%TF.GenerationSoftware,KiCad,Pcbnew,9.0.1*%
%TF.CreationDate,2026-07-16T16:02:55-04:00*%
%TF.ProjectId,Phantom,5068616e-746f-46d2-9e6b-696361645f70,rev?*%
%TF.SameCoordinates,Original*%
%TF.FileFunction,Legend,Top*%
%TF.FilePolarity,Positive*%
%FSLAX46Y46*%
G04 Gerber Fmt 4.6, Leading zero omitted, Abs format (unit mm)*
G04 Created by KiCad (PCBNEW 9.0.1) date 2026-07-16 16:02:55*
%MOMM*%
%LPD*%
G01*
G04 APERTURE LIST*
%ADD10C,0.100000*%
%ADD11C,0.150000*%
%ADD12C,0.120000*%
%ADD13C,0.127000*%
%ADD14C,0.152400*%
%ADD15C,0.200000*%
%ADD16C,0.240000*%
%ADD17C,0.508000*%
G04 APERTURE END LIST*
D10*
X150852817Y-130463409D02*
X150995674Y-130511028D01*
X150995674Y-130511028D02*
X151043293Y-130558647D01*
X151043293Y-130558647D02*
X151090912Y-130653885D01*
X151090912Y-130653885D02*
X151090912Y-130796742D01*
X151090912Y-130796742D02*
X151043293Y-130891980D01*
X151043293Y-130891980D02*
X150995674Y-130939600D01*
X150995674Y-130939600D02*
X150900436Y-130987219D01*
X150900436Y-130987219D02*
X150519484Y-130987219D01*
X150519484Y-130987219D02*
X150519484Y-129987219D01*
X150519484Y-129987219D02*
X150852817Y-129987219D01*
X150852817Y-129987219D02*
X150948055Y-130034838D01*
X150948055Y-130034838D02*
X150995674Y-130082457D01*
X150995674Y-130082457D02*
X151043293Y-130177695D01*
X151043293Y-130177695D02*
X151043293Y-130272933D01*
X151043293Y-130272933D02*
X150995674Y-130368171D01*
X150995674Y-130368171D02*
X150948055Y-130415790D01*
X150948055Y-130415790D02*
X150852817Y-130463409D01*
X150852817Y-130463409D02*
X150519484Y-130463409D01*
X151424246Y-130320552D02*
X151662341Y-130987219D01*
X151900436Y-130320552D02*
X151662341Y-130987219D01*
X151662341Y-130987219D02*
X151567103Y-131225314D01*
X151567103Y-131225314D02*
X151519484Y-131272933D01*
X151519484Y-131272933D02*
X151424246Y-131320552D01*
X152995675Y-130701504D02*
X153471865Y-130701504D01*
X152900437Y-130987219D02*
X153233770Y-129987219D01*
X153233770Y-129987219D02*
X153567103Y-130987219D01*
X153900437Y-130320552D02*
X153900437Y-130987219D01*
X153900437Y-130415790D02*
X153948056Y-130368171D01*
X153948056Y-130368171D02*
X154043294Y-130320552D01*
X154043294Y-130320552D02*
X154186151Y-130320552D01*
X154186151Y-130320552D02*
X154281389Y-130368171D01*
X154281389Y-130368171D02*
X154329008Y-130463409D01*
X154329008Y-130463409D02*
X154329008Y-130987219D01*
X154805199Y-130987219D02*
X154805199Y-130320552D01*
X154805199Y-129987219D02*
X154757580Y-130034838D01*
X154757580Y-130034838D02*
X154805199Y-130082457D01*
X154805199Y-130082457D02*
X154852818Y-130034838D01*
X154852818Y-130034838D02*
X154805199Y-129987219D01*
X154805199Y-129987219D02*
X154805199Y-130082457D01*
X155281389Y-130987219D02*
X155281389Y-129987219D01*
X155376627Y-130606266D02*
X155662341Y-130987219D01*
X155662341Y-130320552D02*
X155281389Y-130701504D01*
X156471865Y-130939600D02*
X156376627Y-130987219D01*
X156376627Y-130987219D02*
X156186151Y-130987219D01*
X156186151Y-130987219D02*
X156090913Y-130939600D01*
X156090913Y-130939600D02*
X156043294Y-130844361D01*
X156043294Y-130844361D02*
X156043294Y-130463409D01*
X156043294Y-130463409D02*
X156090913Y-130368171D01*
X156090913Y-130368171D02*
X156186151Y-130320552D01*
X156186151Y-130320552D02*
X156376627Y-130320552D01*
X156376627Y-130320552D02*
X156471865Y-130368171D01*
X156471865Y-130368171D02*
X156519484Y-130463409D01*
X156519484Y-130463409D02*
X156519484Y-130558647D01*
X156519484Y-130558647D02*
X156043294Y-130653885D01*
X156805199Y-130320552D02*
X157186151Y-130320552D01*
X156948056Y-129987219D02*
X156948056Y-130844361D01*
X156948056Y-130844361D02*
X156995675Y-130939600D01*
X156995675Y-130939600D02*
X157090913Y-130987219D01*
X157090913Y-130987219D02*
X157186151Y-130987219D01*
X158138533Y-129987219D02*
X158709961Y-129987219D01*
X158424247Y-130987219D02*
X158424247Y-129987219D01*
X159471866Y-130987219D02*
X159471866Y-130463409D01*
X159471866Y-130463409D02*
X159424247Y-130368171D01*
X159424247Y-130368171D02*
X159329009Y-130320552D01*
X159329009Y-130320552D02*
X159138533Y-130320552D01*
X159138533Y-130320552D02*
X159043295Y-130368171D01*
X159471866Y-130939600D02*
X159376628Y-130987219D01*
X159376628Y-130987219D02*
X159138533Y-130987219D01*
X159138533Y-130987219D02*
X159043295Y-130939600D01*
X159043295Y-130939600D02*
X158995676Y-130844361D01*
X158995676Y-130844361D02*
X158995676Y-130749123D01*
X158995676Y-130749123D02*
X159043295Y-130653885D01*
X159043295Y-130653885D02*
X159138533Y-130606266D01*
X159138533Y-130606266D02*
X159376628Y-130606266D01*
X159376628Y-130606266D02*
X159471866Y-130558647D01*
X159948057Y-130320552D02*
X159948057Y-130987219D01*
X159948057Y-130415790D02*
X159995676Y-130368171D01*
X159995676Y-130368171D02*
X160090914Y-130320552D01*
X160090914Y-130320552D02*
X160233771Y-130320552D01*
X160233771Y-130320552D02*
X160329009Y-130368171D01*
X160329009Y-130368171D02*
X160376628Y-130463409D01*
X160376628Y-130463409D02*
X160376628Y-130987219D01*
X160852819Y-130987219D02*
X160852819Y-129987219D01*
X160948057Y-130606266D02*
X161233771Y-130987219D01*
X161233771Y-130320552D02*
X160852819Y-130701504D01*
X162662343Y-131320552D02*
X162662343Y-129891980D01*
X164090915Y-130939600D02*
X164233772Y-130987219D01*
X164233772Y-130987219D02*
X164471867Y-130987219D01*
X164471867Y-130987219D02*
X164567105Y-130939600D01*
X164567105Y-130939600D02*
X164614724Y-130891980D01*
X164614724Y-130891980D02*
X164662343Y-130796742D01*
X164662343Y-130796742D02*
X164662343Y-130701504D01*
X164662343Y-130701504D02*
X164614724Y-130606266D01*
X164614724Y-130606266D02*
X164567105Y-130558647D01*
X164567105Y-130558647D02*
X164471867Y-130511028D01*
X164471867Y-130511028D02*
X164281391Y-130463409D01*
X164281391Y-130463409D02*
X164186153Y-130415790D01*
X164186153Y-130415790D02*
X164138534Y-130368171D01*
X164138534Y-130368171D02*
X164090915Y-130272933D01*
X164090915Y-130272933D02*
X164090915Y-130177695D01*
X164090915Y-130177695D02*
X164138534Y-130082457D01*
X164138534Y-130082457D02*
X164186153Y-130034838D01*
X164186153Y-130034838D02*
X164281391Y-129987219D01*
X164281391Y-129987219D02*
X164519486Y-129987219D01*
X164519486Y-129987219D02*
X164662343Y-130034838D01*
X165519486Y-130320552D02*
X165519486Y-130987219D01*
X165090915Y-130320552D02*
X165090915Y-130844361D01*
X165090915Y-130844361D02*
X165138534Y-130939600D01*
X165138534Y-130939600D02*
X165233772Y-130987219D01*
X165233772Y-130987219D02*
X165376629Y-130987219D01*
X165376629Y-130987219D02*
X165471867Y-130939600D01*
X165471867Y-130939600D02*
X165519486Y-130891980D01*
X165995677Y-130987219D02*
X165995677Y-130320552D01*
X165995677Y-130415790D02*
X166043296Y-130368171D01*
X166043296Y-130368171D02*
X166138534Y-130320552D01*
X166138534Y-130320552D02*
X166281391Y-130320552D01*
X166281391Y-130320552D02*
X166376629Y-130368171D01*
X166376629Y-130368171D02*
X166424248Y-130463409D01*
X166424248Y-130463409D02*
X166424248Y-130987219D01*
X166424248Y-130463409D02*
X166471867Y-130368171D01*
X166471867Y-130368171D02*
X166567105Y-130320552D01*
X166567105Y-130320552D02*
X166709962Y-130320552D01*
X166709962Y-130320552D02*
X166805201Y-130368171D01*
X166805201Y-130368171D02*
X166852820Y-130463409D01*
X166852820Y-130463409D02*
X166852820Y-130987219D01*
X167329010Y-130987219D02*
X167329010Y-130320552D01*
X167329010Y-130415790D02*
X167376629Y-130368171D01*
X167376629Y-130368171D02*
X167471867Y-130320552D01*
X167471867Y-130320552D02*
X167614724Y-130320552D01*
X167614724Y-130320552D02*
X167709962Y-130368171D01*
X167709962Y-130368171D02*
X167757581Y-130463409D01*
X167757581Y-130463409D02*
X167757581Y-130987219D01*
X167757581Y-130463409D02*
X167805200Y-130368171D01*
X167805200Y-130368171D02*
X167900438Y-130320552D01*
X167900438Y-130320552D02*
X168043295Y-130320552D01*
X168043295Y-130320552D02*
X168138534Y-130368171D01*
X168138534Y-130368171D02*
X168186153Y-130463409D01*
X168186153Y-130463409D02*
X168186153Y-130987219D01*
X169043295Y-130939600D02*
X168948057Y-130987219D01*
X168948057Y-130987219D02*
X168757581Y-130987219D01*
X168757581Y-130987219D02*
X168662343Y-130939600D01*
X168662343Y-130939600D02*
X168614724Y-130844361D01*
X168614724Y-130844361D02*
X168614724Y-130463409D01*
X168614724Y-130463409D02*
X168662343Y-130368171D01*
X168662343Y-130368171D02*
X168757581Y-130320552D01*
X168757581Y-130320552D02*
X168948057Y-130320552D01*
X168948057Y-130320552D02*
X169043295Y-130368171D01*
X169043295Y-130368171D02*
X169090914Y-130463409D01*
X169090914Y-130463409D02*
X169090914Y-130558647D01*
X169090914Y-130558647D02*
X168614724Y-130653885D01*
X169519486Y-130987219D02*
X169519486Y-130320552D01*
X169519486Y-130511028D02*
X169567105Y-130415790D01*
X169567105Y-130415790D02*
X169614724Y-130368171D01*
X169614724Y-130368171D02*
X169709962Y-130320552D01*
X169709962Y-130320552D02*
X169805200Y-130320552D01*
X170852820Y-130082457D02*
X170900439Y-130034838D01*
X170900439Y-130034838D02*
X170995677Y-129987219D01*
X170995677Y-129987219D02*
X171233772Y-129987219D01*
X171233772Y-129987219D02*
X171329010Y-130034838D01*
X171329010Y-130034838D02*
X171376629Y-130082457D01*
X171376629Y-130082457D02*
X171424248Y-130177695D01*
X171424248Y-130177695D02*
X171424248Y-130272933D01*
X171424248Y-130272933D02*
X171376629Y-130415790D01*
X171376629Y-130415790D02*
X170805201Y-130987219D01*
X170805201Y-130987219D02*
X171424248Y-130987219D01*
X172043296Y-129987219D02*
X172138534Y-129987219D01*
X172138534Y-129987219D02*
X172233772Y-130034838D01*
X172233772Y-130034838D02*
X172281391Y-130082457D01*
X172281391Y-130082457D02*
X172329010Y-130177695D01*
X172329010Y-130177695D02*
X172376629Y-130368171D01*
X172376629Y-130368171D02*
X172376629Y-130606266D01*
X172376629Y-130606266D02*
X172329010Y-130796742D01*
X172329010Y-130796742D02*
X172281391Y-130891980D01*
X172281391Y-130891980D02*
X172233772Y-130939600D01*
X172233772Y-130939600D02*
X172138534Y-130987219D01*
X172138534Y-130987219D02*
X172043296Y-130987219D01*
X172043296Y-130987219D02*
X171948058Y-130939600D01*
X171948058Y-130939600D02*
X171900439Y-130891980D01*
X171900439Y-130891980D02*
X171852820Y-130796742D01*
X171852820Y-130796742D02*
X171805201Y-130606266D01*
X171805201Y-130606266D02*
X171805201Y-130368171D01*
X171805201Y-130368171D02*
X171852820Y-130177695D01*
X171852820Y-130177695D02*
X171900439Y-130082457D01*
X171900439Y-130082457D02*
X171948058Y-130034838D01*
X171948058Y-130034838D02*
X172043296Y-129987219D01*
X172757582Y-130082457D02*
X172805201Y-130034838D01*
X172805201Y-130034838D02*
X172900439Y-129987219D01*
X172900439Y-129987219D02*
X173138534Y-129987219D01*
X173138534Y-129987219D02*
X173233772Y-130034838D01*
X173233772Y-130034838D02*
X173281391Y-130082457D01*
X173281391Y-130082457D02*
X173329010Y-130177695D01*
X173329010Y-130177695D02*
X173329010Y-130272933D01*
X173329010Y-130272933D02*
X173281391Y-130415790D01*
X173281391Y-130415790D02*
X172709963Y-130987219D01*
X172709963Y-130987219D02*
X173329010Y-130987219D01*
X174186153Y-129987219D02*
X173995677Y-129987219D01*
X173995677Y-129987219D02*
X173900439Y-130034838D01*
X173900439Y-130034838D02*
X173852820Y-130082457D01*
X173852820Y-130082457D02*
X173757582Y-130225314D01*
X173757582Y-130225314D02*
X173709963Y-130415790D01*
X173709963Y-130415790D02*
X173709963Y-130796742D01*
X173709963Y-130796742D02*
X173757582Y-130891980D01*
X173757582Y-130891980D02*
X173805201Y-130939600D01*
X173805201Y-130939600D02*
X173900439Y-130987219D01*
X173900439Y-130987219D02*
X174090915Y-130987219D01*
X174090915Y-130987219D02*
X174186153Y-130939600D01*
X174186153Y-130939600D02*
X174233772Y-130891980D01*
X174233772Y-130891980D02*
X174281391Y-130796742D01*
X174281391Y-130796742D02*
X174281391Y-130558647D01*
X174281391Y-130558647D02*
X174233772Y-130463409D01*
X174233772Y-130463409D02*
X174186153Y-130415790D01*
X174186153Y-130415790D02*
X174090915Y-130368171D01*
X174090915Y-130368171D02*
X173900439Y-130368171D01*
X173900439Y-130368171D02*
X173805201Y-130415790D01*
X173805201Y-130415790D02*
X173757582Y-130463409D01*
X173757582Y-130463409D02*
X173709963Y-130558647D01*
D11*
X123683733Y-96219180D02*
X123636114Y-96266800D01*
X123636114Y-96266800D02*
X123493257Y-96314419D01*
X123493257Y-96314419D02*
X123398019Y-96314419D01*
X123398019Y-96314419D02*
X123255162Y-96266800D01*
X123255162Y-96266800D02*
X123159924Y-96171561D01*
X123159924Y-96171561D02*
X123112305Y-96076323D01*
X123112305Y-96076323D02*
X123064686Y-95885847D01*
X123064686Y-95885847D02*
X123064686Y-95742990D01*
X123064686Y-95742990D02*
X123112305Y-95552514D01*
X123112305Y-95552514D02*
X123159924Y-95457276D01*
X123159924Y-95457276D02*
X123255162Y-95362038D01*
X123255162Y-95362038D02*
X123398019Y-95314419D01*
X123398019Y-95314419D02*
X123493257Y-95314419D01*
X123493257Y-95314419D02*
X123636114Y-95362038D01*
X123636114Y-95362038D02*
X123683733Y-95409657D01*
X124636114Y-96314419D02*
X124064686Y-96314419D01*
X124350400Y-96314419D02*
X124350400Y-95314419D01*
X124350400Y-95314419D02*
X124255162Y-95457276D01*
X124255162Y-95457276D02*
X124159924Y-95552514D01*
X124159924Y-95552514D02*
X124064686Y-95600133D01*
X127101695Y-124118019D02*
X127101695Y-124927542D01*
X127101695Y-124927542D02*
X127149314Y-125022780D01*
X127149314Y-125022780D02*
X127196933Y-125070400D01*
X127196933Y-125070400D02*
X127292171Y-125118019D01*
X127292171Y-125118019D02*
X127482647Y-125118019D01*
X127482647Y-125118019D02*
X127577885Y-125070400D01*
X127577885Y-125070400D02*
X127625504Y-125022780D01*
X127625504Y-125022780D02*
X127673123Y-124927542D01*
X127673123Y-124927542D02*
X127673123Y-124118019D01*
X128577885Y-124118019D02*
X128387409Y-124118019D01*
X128387409Y-124118019D02*
X128292171Y-124165638D01*
X128292171Y-124165638D02*
X128244552Y-124213257D01*
X128244552Y-124213257D02*
X128149314Y-124356114D01*
X128149314Y-124356114D02*
X128101695Y-124546590D01*
X128101695Y-124546590D02*
X128101695Y-124927542D01*
X128101695Y-124927542D02*
X128149314Y-125022780D01*
X128149314Y-125022780D02*
X128196933Y-125070400D01*
X128196933Y-125070400D02*
X128292171Y-125118019D01*
X128292171Y-125118019D02*
X128482647Y-125118019D01*
X128482647Y-125118019D02*
X128577885Y-125070400D01*
X128577885Y-125070400D02*
X128625504Y-125022780D01*
X128625504Y-125022780D02*
X128673123Y-124927542D01*
X128673123Y-124927542D02*
X128673123Y-124689447D01*
X128673123Y-124689447D02*
X128625504Y-124594209D01*
X128625504Y-124594209D02*
X128577885Y-124546590D01*
X128577885Y-124546590D02*
X128482647Y-124498971D01*
X128482647Y-124498971D02*
X128292171Y-124498971D01*
X128292171Y-124498971D02*
X128196933Y-124546590D01*
X128196933Y-124546590D02*
X128149314Y-124594209D01*
X128149314Y-124594209D02*
X128101695Y-124689447D01*
X113828533Y-96981180D02*
X113780914Y-97028800D01*
X113780914Y-97028800D02*
X113638057Y-97076419D01*
X113638057Y-97076419D02*
X113542819Y-97076419D01*
X113542819Y-97076419D02*
X113399962Y-97028800D01*
X113399962Y-97028800D02*
X113304724Y-96933561D01*
X113304724Y-96933561D02*
X113257105Y-96838323D01*
X113257105Y-96838323D02*
X113209486Y-96647847D01*
X113209486Y-96647847D02*
X113209486Y-96504990D01*
X113209486Y-96504990D02*
X113257105Y-96314514D01*
X113257105Y-96314514D02*
X113304724Y-96219276D01*
X113304724Y-96219276D02*
X113399962Y-96124038D01*
X113399962Y-96124038D02*
X113542819Y-96076419D01*
X113542819Y-96076419D02*
X113638057Y-96076419D01*
X113638057Y-96076419D02*
X113780914Y-96124038D01*
X113780914Y-96124038D02*
X113828533Y-96171657D01*
X114733295Y-96076419D02*
X114257105Y-96076419D01*
X114257105Y-96076419D02*
X114209486Y-96552609D01*
X114209486Y-96552609D02*
X114257105Y-96504990D01*
X114257105Y-96504990D02*
X114352343Y-96457371D01*
X114352343Y-96457371D02*
X114590438Y-96457371D01*
X114590438Y-96457371D02*
X114685676Y-96504990D01*
X114685676Y-96504990D02*
X114733295Y-96552609D01*
X114733295Y-96552609D02*
X114780914Y-96647847D01*
X114780914Y-96647847D02*
X114780914Y-96885942D01*
X114780914Y-96885942D02*
X114733295Y-96981180D01*
X114733295Y-96981180D02*
X114685676Y-97028800D01*
X114685676Y-97028800D02*
X114590438Y-97076419D01*
X114590438Y-97076419D02*
X114352343Y-97076419D01*
X114352343Y-97076419D02*
X114257105Y-97028800D01*
X114257105Y-97028800D02*
X114209486Y-96981180D01*
X180154342Y-151069219D02*
X179821009Y-150593028D01*
X179582914Y-151069219D02*
X179582914Y-150069219D01*
X179582914Y-150069219D02*
X179963866Y-150069219D01*
X179963866Y-150069219D02*
X180059104Y-150116838D01*
X180059104Y-150116838D02*
X180106723Y-150164457D01*
X180106723Y-150164457D02*
X180154342Y-150259695D01*
X180154342Y-150259695D02*
X180154342Y-150402552D01*
X180154342Y-150402552D02*
X180106723Y-150497790D01*
X180106723Y-150497790D02*
X180059104Y-150545409D01*
X180059104Y-150545409D02*
X179963866Y-150593028D01*
X179963866Y-150593028D02*
X179582914Y-150593028D01*
X181106723Y-151069219D02*
X180535295Y-151069219D01*
X180821009Y-151069219D02*
X180821009Y-150069219D01*
X180821009Y-150069219D02*
X180725771Y-150212076D01*
X180725771Y-150212076D02*
X180630533Y-150307314D01*
X180630533Y-150307314D02*
X180535295Y-150354933D01*
X182011485Y-150069219D02*
X181535295Y-150069219D01*
X181535295Y-150069219D02*
X181487676Y-150545409D01*
X181487676Y-150545409D02*
X181535295Y-150497790D01*
X181535295Y-150497790D02*
X181630533Y-150450171D01*
X181630533Y-150450171D02*
X181868628Y-150450171D01*
X181868628Y-150450171D02*
X181963866Y-150497790D01*
X181963866Y-150497790D02*
X182011485Y-150545409D01*
X182011485Y-150545409D02*
X182059104Y-150640647D01*
X182059104Y-150640647D02*
X182059104Y-150878742D01*
X182059104Y-150878742D02*
X182011485Y-150973980D01*
X182011485Y-150973980D02*
X181963866Y-151021600D01*
X181963866Y-151021600D02*
X181868628Y-151069219D01*
X181868628Y-151069219D02*
X181630533Y-151069219D01*
X181630533Y-151069219D02*
X181535295Y-151021600D01*
X181535295Y-151021600D02*
X181487676Y-150973980D01*
X151283220Y-99739800D02*
X151374804Y-99777895D01*
X151374804Y-99777895D02*
X151527443Y-99777895D01*
X151527443Y-99777895D02*
X151588499Y-99739800D01*
X151588499Y-99739800D02*
X151619026Y-99701704D01*
X151619026Y-99701704D02*
X151649554Y-99625514D01*
X151649554Y-99625514D02*
X151649554Y-99549323D01*
X151649554Y-99549323D02*
X151619026Y-99473133D01*
X151619026Y-99473133D02*
X151588499Y-99435038D01*
X151588499Y-99435038D02*
X151527443Y-99396942D01*
X151527443Y-99396942D02*
X151405331Y-99358847D01*
X151405331Y-99358847D02*
X151344276Y-99320752D01*
X151344276Y-99320752D02*
X151313748Y-99282657D01*
X151313748Y-99282657D02*
X151283220Y-99206466D01*
X151283220Y-99206466D02*
X151283220Y-99130276D01*
X151283220Y-99130276D02*
X151313748Y-99054085D01*
X151313748Y-99054085D02*
X151344276Y-99015990D01*
X151344276Y-99015990D02*
X151405331Y-98977895D01*
X151405331Y-98977895D02*
X151557971Y-98977895D01*
X151557971Y-98977895D02*
X151649554Y-99015990D01*
X151863249Y-98977895D02*
X152015888Y-99777895D01*
X152015888Y-99777895D02*
X152138000Y-99206466D01*
X152138000Y-99206466D02*
X152260111Y-99777895D01*
X152260111Y-99777895D02*
X152412751Y-98977895D01*
X152992780Y-99777895D02*
X152626446Y-99777895D01*
X152809613Y-99777895D02*
X152809613Y-98977895D01*
X152809613Y-98977895D02*
X152748557Y-99092180D01*
X152748557Y-99092180D02*
X152687502Y-99168371D01*
X152687502Y-99168371D02*
X152626446Y-99206466D01*
X141630495Y-93587219D02*
X141630495Y-94396742D01*
X141630495Y-94396742D02*
X141678114Y-94491980D01*
X141678114Y-94491980D02*
X141725733Y-94539600D01*
X141725733Y-94539600D02*
X141820971Y-94587219D01*
X141820971Y-94587219D02*
X142011447Y-94587219D01*
X142011447Y-94587219D02*
X142106685Y-94539600D01*
X142106685Y-94539600D02*
X142154304Y-94491980D01*
X142154304Y-94491980D02*
X142201923Y-94396742D01*
X142201923Y-94396742D02*
X142201923Y-93587219D01*
X143201923Y-94587219D02*
X142630495Y-94587219D01*
X142916209Y-94587219D02*
X142916209Y-93587219D01*
X142916209Y-93587219D02*
X142820971Y-93730076D01*
X142820971Y-93730076D02*
X142725733Y-93825314D01*
X142725733Y-93825314D02*
X142630495Y-93872933D01*
X124963401Y-96957218D02*
X124963401Y-97195313D01*
X124725306Y-97100075D02*
X124963401Y-97195313D01*
X124963401Y-97195313D02*
X125201496Y-97100075D01*
X124820544Y-97385789D02*
X124963401Y-97195313D01*
X124963401Y-97195313D02*
X125106258Y-97385789D01*
X124963401Y-96957218D02*
X124963401Y-97195313D01*
X124725306Y-97100075D02*
X124963401Y-97195313D01*
X124963401Y-97195313D02*
X125201496Y-97100075D01*
X124820544Y-97385789D02*
X124963401Y-97195313D01*
X124963401Y-97195313D02*
X125106258Y-97385789D01*
X142886133Y-97533619D02*
X142552800Y-97057428D01*
X142314705Y-97533619D02*
X142314705Y-96533619D01*
X142314705Y-96533619D02*
X142695657Y-96533619D01*
X142695657Y-96533619D02*
X142790895Y-96581238D01*
X142790895Y-96581238D02*
X142838514Y-96628857D01*
X142838514Y-96628857D02*
X142886133Y-96724095D01*
X142886133Y-96724095D02*
X142886133Y-96866952D01*
X142886133Y-96866952D02*
X142838514Y-96962190D01*
X142838514Y-96962190D02*
X142790895Y-97009809D01*
X142790895Y-97009809D02*
X142695657Y-97057428D01*
X142695657Y-97057428D02*
X142314705Y-97057428D01*
X143838514Y-97533619D02*
X143267086Y-97533619D01*
X143552800Y-97533619D02*
X143552800Y-96533619D01*
X143552800Y-96533619D02*
X143457562Y-96676476D01*
X143457562Y-96676476D02*
X143362324Y-96771714D01*
X143362324Y-96771714D02*
X143267086Y-96819333D01*
X117915620Y-105480200D02*
X118007204Y-105518295D01*
X118007204Y-105518295D02*
X118159843Y-105518295D01*
X118159843Y-105518295D02*
X118220899Y-105480200D01*
X118220899Y-105480200D02*
X118251426Y-105442104D01*
X118251426Y-105442104D02*
X118281954Y-105365914D01*
X118281954Y-105365914D02*
X118281954Y-105289723D01*
X118281954Y-105289723D02*
X118251426Y-105213533D01*
X118251426Y-105213533D02*
X118220899Y-105175438D01*
X118220899Y-105175438D02*
X118159843Y-105137342D01*
X118159843Y-105137342D02*
X118037731Y-105099247D01*
X118037731Y-105099247D02*
X117976676Y-105061152D01*
X117976676Y-105061152D02*
X117946148Y-105023057D01*
X117946148Y-105023057D02*
X117915620Y-104946866D01*
X117915620Y-104946866D02*
X117915620Y-104870676D01*
X117915620Y-104870676D02*
X117946148Y-104794485D01*
X117946148Y-104794485D02*
X117976676Y-104756390D01*
X117976676Y-104756390D02*
X118037731Y-104718295D01*
X118037731Y-104718295D02*
X118190371Y-104718295D01*
X118190371Y-104718295D02*
X118281954Y-104756390D01*
X118495649Y-104718295D02*
X118648288Y-105518295D01*
X118648288Y-105518295D02*
X118770400Y-104946866D01*
X118770400Y-104946866D02*
X118892511Y-105518295D01*
X118892511Y-105518295D02*
X119045151Y-104718295D01*
X119258846Y-104794485D02*
X119289374Y-104756390D01*
X119289374Y-104756390D02*
X119350430Y-104718295D01*
X119350430Y-104718295D02*
X119503069Y-104718295D01*
X119503069Y-104718295D02*
X119564125Y-104756390D01*
X119564125Y-104756390D02*
X119594652Y-104794485D01*
X119594652Y-104794485D02*
X119625180Y-104870676D01*
X119625180Y-104870676D02*
X119625180Y-104946866D01*
X119625180Y-104946866D02*
X119594652Y-105061152D01*
X119594652Y-105061152D02*
X119228318Y-105518295D01*
X119228318Y-105518295D02*
X119625180Y-105518295D01*
X189997342Y-129645580D02*
X189949723Y-129693200D01*
X189949723Y-129693200D02*
X189806866Y-129740819D01*
X189806866Y-129740819D02*
X189711628Y-129740819D01*
X189711628Y-129740819D02*
X189568771Y-129693200D01*
X189568771Y-129693200D02*
X189473533Y-129597961D01*
X189473533Y-129597961D02*
X189425914Y-129502723D01*
X189425914Y-129502723D02*
X189378295Y-129312247D01*
X189378295Y-129312247D02*
X189378295Y-129169390D01*
X189378295Y-129169390D02*
X189425914Y-128978914D01*
X189425914Y-128978914D02*
X189473533Y-128883676D01*
X189473533Y-128883676D02*
X189568771Y-128788438D01*
X189568771Y-128788438D02*
X189711628Y-128740819D01*
X189711628Y-128740819D02*
X189806866Y-128740819D01*
X189806866Y-128740819D02*
X189949723Y-128788438D01*
X189949723Y-128788438D02*
X189997342Y-128836057D01*
X190949723Y-129740819D02*
X190378295Y-129740819D01*
X190664009Y-129740819D02*
X190664009Y-128740819D01*
X190664009Y-128740819D02*
X190568771Y-128883676D01*
X190568771Y-128883676D02*
X190473533Y-128978914D01*
X190473533Y-128978914D02*
X190378295Y-129026533D01*
X191330676Y-128836057D02*
X191378295Y-128788438D01*
X191378295Y-128788438D02*
X191473533Y-128740819D01*
X191473533Y-128740819D02*
X191711628Y-128740819D01*
X191711628Y-128740819D02*
X191806866Y-128788438D01*
X191806866Y-128788438D02*
X191854485Y-128836057D01*
X191854485Y-128836057D02*
X191902104Y-128931295D01*
X191902104Y-128931295D02*
X191902104Y-129026533D01*
X191902104Y-129026533D02*
X191854485Y-129169390D01*
X191854485Y-129169390D02*
X191283057Y-129740819D01*
X191283057Y-129740819D02*
X191902104Y-129740819D01*
X136263142Y-114856419D02*
X135929809Y-114380228D01*
X135691714Y-114856419D02*
X135691714Y-113856419D01*
X135691714Y-113856419D02*
X136072666Y-113856419D01*
X136072666Y-113856419D02*
X136167904Y-113904038D01*
X136167904Y-113904038D02*
X136215523Y-113951657D01*
X136215523Y-113951657D02*
X136263142Y-114046895D01*
X136263142Y-114046895D02*
X136263142Y-114189752D01*
X136263142Y-114189752D02*
X136215523Y-114284990D01*
X136215523Y-114284990D02*
X136167904Y-114332609D01*
X136167904Y-114332609D02*
X136072666Y-114380228D01*
X136072666Y-114380228D02*
X135691714Y-114380228D01*
X137215523Y-114856419D02*
X136644095Y-114856419D01*
X136929809Y-114856419D02*
X136929809Y-113856419D01*
X136929809Y-113856419D02*
X136834571Y-113999276D01*
X136834571Y-113999276D02*
X136739333Y-114094514D01*
X136739333Y-114094514D02*
X136644095Y-114142133D01*
X137786952Y-114284990D02*
X137691714Y-114237371D01*
X137691714Y-114237371D02*
X137644095Y-114189752D01*
X137644095Y-114189752D02*
X137596476Y-114094514D01*
X137596476Y-114094514D02*
X137596476Y-114046895D01*
X137596476Y-114046895D02*
X137644095Y-113951657D01*
X137644095Y-113951657D02*
X137691714Y-113904038D01*
X137691714Y-113904038D02*
X137786952Y-113856419D01*
X137786952Y-113856419D02*
X137977428Y-113856419D01*
X137977428Y-113856419D02*
X138072666Y-113904038D01*
X138072666Y-113904038D02*
X138120285Y-113951657D01*
X138120285Y-113951657D02*
X138167904Y-114046895D01*
X138167904Y-114046895D02*
X138167904Y-114094514D01*
X138167904Y-114094514D02*
X138120285Y-114189752D01*
X138120285Y-114189752D02*
X138072666Y-114237371D01*
X138072666Y-114237371D02*
X137977428Y-114284990D01*
X137977428Y-114284990D02*
X137786952Y-114284990D01*
X137786952Y-114284990D02*
X137691714Y-114332609D01*
X137691714Y-114332609D02*
X137644095Y-114380228D01*
X137644095Y-114380228D02*
X137596476Y-114475466D01*
X137596476Y-114475466D02*
X137596476Y-114665942D01*
X137596476Y-114665942D02*
X137644095Y-114761180D01*
X137644095Y-114761180D02*
X137691714Y-114808800D01*
X137691714Y-114808800D02*
X137786952Y-114856419D01*
X137786952Y-114856419D02*
X137977428Y-114856419D01*
X137977428Y-114856419D02*
X138072666Y-114808800D01*
X138072666Y-114808800D02*
X138120285Y-114761180D01*
X138120285Y-114761180D02*
X138167904Y-114665942D01*
X138167904Y-114665942D02*
X138167904Y-114475466D01*
X138167904Y-114475466D02*
X138120285Y-114380228D01*
X138120285Y-114380228D02*
X138072666Y-114332609D01*
X138072666Y-114332609D02*
X137977428Y-114284990D01*
X189582533Y-104628619D02*
X189249200Y-104152428D01*
X189011105Y-104628619D02*
X189011105Y-103628619D01*
X189011105Y-103628619D02*
X189392057Y-103628619D01*
X189392057Y-103628619D02*
X189487295Y-103676238D01*
X189487295Y-103676238D02*
X189534914Y-103723857D01*
X189534914Y-103723857D02*
X189582533Y-103819095D01*
X189582533Y-103819095D02*
X189582533Y-103961952D01*
X189582533Y-103961952D02*
X189534914Y-104057190D01*
X189534914Y-104057190D02*
X189487295Y-104104809D01*
X189487295Y-104104809D02*
X189392057Y-104152428D01*
X189392057Y-104152428D02*
X189011105Y-104152428D01*
X190058724Y-104628619D02*
X190249200Y-104628619D01*
X190249200Y-104628619D02*
X190344438Y-104581000D01*
X190344438Y-104581000D02*
X190392057Y-104533380D01*
X190392057Y-104533380D02*
X190487295Y-104390523D01*
X190487295Y-104390523D02*
X190534914Y-104200047D01*
X190534914Y-104200047D02*
X190534914Y-103819095D01*
X190534914Y-103819095D02*
X190487295Y-103723857D01*
X190487295Y-103723857D02*
X190439676Y-103676238D01*
X190439676Y-103676238D02*
X190344438Y-103628619D01*
X190344438Y-103628619D02*
X190153962Y-103628619D01*
X190153962Y-103628619D02*
X190058724Y-103676238D01*
X190058724Y-103676238D02*
X190011105Y-103723857D01*
X190011105Y-103723857D02*
X189963486Y-103819095D01*
X189963486Y-103819095D02*
X189963486Y-104057190D01*
X189963486Y-104057190D02*
X190011105Y-104152428D01*
X190011105Y-104152428D02*
X190058724Y-104200047D01*
X190058724Y-104200047D02*
X190153962Y-104247666D01*
X190153962Y-104247666D02*
X190344438Y-104247666D01*
X190344438Y-104247666D02*
X190439676Y-104200047D01*
X190439676Y-104200047D02*
X190487295Y-104152428D01*
X190487295Y-104152428D02*
X190534914Y-104057190D01*
X119518133Y-120546019D02*
X119184800Y-120069828D01*
X118946705Y-120546019D02*
X118946705Y-119546019D01*
X118946705Y-119546019D02*
X119327657Y-119546019D01*
X119327657Y-119546019D02*
X119422895Y-119593638D01*
X119422895Y-119593638D02*
X119470514Y-119641257D01*
X119470514Y-119641257D02*
X119518133Y-119736495D01*
X119518133Y-119736495D02*
X119518133Y-119879352D01*
X119518133Y-119879352D02*
X119470514Y-119974590D01*
X119470514Y-119974590D02*
X119422895Y-120022209D01*
X119422895Y-120022209D02*
X119327657Y-120069828D01*
X119327657Y-120069828D02*
X118946705Y-120069828D01*
X120375276Y-119546019D02*
X120184800Y-119546019D01*
X120184800Y-119546019D02*
X120089562Y-119593638D01*
X120089562Y-119593638D02*
X120041943Y-119641257D01*
X120041943Y-119641257D02*
X119946705Y-119784114D01*
X119946705Y-119784114D02*
X119899086Y-119974590D01*
X119899086Y-119974590D02*
X119899086Y-120355542D01*
X119899086Y-120355542D02*
X119946705Y-120450780D01*
X119946705Y-120450780D02*
X119994324Y-120498400D01*
X119994324Y-120498400D02*
X120089562Y-120546019D01*
X120089562Y-120546019D02*
X120280038Y-120546019D01*
X120280038Y-120546019D02*
X120375276Y-120498400D01*
X120375276Y-120498400D02*
X120422895Y-120450780D01*
X120422895Y-120450780D02*
X120470514Y-120355542D01*
X120470514Y-120355542D02*
X120470514Y-120117447D01*
X120470514Y-120117447D02*
X120422895Y-120022209D01*
X120422895Y-120022209D02*
X120375276Y-119974590D01*
X120375276Y-119974590D02*
X120280038Y-119926971D01*
X120280038Y-119926971D02*
X120089562Y-119926971D01*
X120089562Y-119926971D02*
X119994324Y-119974590D01*
X119994324Y-119974590D02*
X119946705Y-120022209D01*
X119946705Y-120022209D02*
X119899086Y-120117447D01*
X191747942Y-104616419D02*
X191414609Y-104140228D01*
X191176514Y-104616419D02*
X191176514Y-103616419D01*
X191176514Y-103616419D02*
X191557466Y-103616419D01*
X191557466Y-103616419D02*
X191652704Y-103664038D01*
X191652704Y-103664038D02*
X191700323Y-103711657D01*
X191700323Y-103711657D02*
X191747942Y-103806895D01*
X191747942Y-103806895D02*
X191747942Y-103949752D01*
X191747942Y-103949752D02*
X191700323Y-104044990D01*
X191700323Y-104044990D02*
X191652704Y-104092609D01*
X191652704Y-104092609D02*
X191557466Y-104140228D01*
X191557466Y-104140228D02*
X191176514Y-104140228D01*
X192700323Y-104616419D02*
X192128895Y-104616419D01*
X192414609Y-104616419D02*
X192414609Y-103616419D01*
X192414609Y-103616419D02*
X192319371Y-103759276D01*
X192319371Y-103759276D02*
X192224133Y-103854514D01*
X192224133Y-103854514D02*
X192128895Y-103902133D01*
X193319371Y-103616419D02*
X193414609Y-103616419D01*
X193414609Y-103616419D02*
X193509847Y-103664038D01*
X193509847Y-103664038D02*
X193557466Y-103711657D01*
X193557466Y-103711657D02*
X193605085Y-103806895D01*
X193605085Y-103806895D02*
X193652704Y-103997371D01*
X193652704Y-103997371D02*
X193652704Y-104235466D01*
X193652704Y-104235466D02*
X193605085Y-104425942D01*
X193605085Y-104425942D02*
X193557466Y-104521180D01*
X193557466Y-104521180D02*
X193509847Y-104568800D01*
X193509847Y-104568800D02*
X193414609Y-104616419D01*
X193414609Y-104616419D02*
X193319371Y-104616419D01*
X193319371Y-104616419D02*
X193224133Y-104568800D01*
X193224133Y-104568800D02*
X193176514Y-104521180D01*
X193176514Y-104521180D02*
X193128895Y-104425942D01*
X193128895Y-104425942D02*
X193081276Y-104235466D01*
X193081276Y-104235466D02*
X193081276Y-103997371D01*
X193081276Y-103997371D02*
X193128895Y-103806895D01*
X193128895Y-103806895D02*
X193176514Y-103711657D01*
X193176514Y-103711657D02*
X193224133Y-103664038D01*
X193224133Y-103664038D02*
X193319371Y-103616419D01*
X136115466Y-122594019D02*
X136115466Y-123308304D01*
X136115466Y-123308304D02*
X136067847Y-123451161D01*
X136067847Y-123451161D02*
X135972609Y-123546400D01*
X135972609Y-123546400D02*
X135829752Y-123594019D01*
X135829752Y-123594019D02*
X135734514Y-123594019D01*
X136496419Y-122594019D02*
X137115466Y-122594019D01*
X137115466Y-122594019D02*
X136782133Y-122974971D01*
X136782133Y-122974971D02*
X136924990Y-122974971D01*
X136924990Y-122974971D02*
X137020228Y-123022590D01*
X137020228Y-123022590D02*
X137067847Y-123070209D01*
X137067847Y-123070209D02*
X137115466Y-123165447D01*
X137115466Y-123165447D02*
X137115466Y-123403542D01*
X137115466Y-123403542D02*
X137067847Y-123498780D01*
X137067847Y-123498780D02*
X137020228Y-123546400D01*
X137020228Y-123546400D02*
X136924990Y-123594019D01*
X136924990Y-123594019D02*
X136639276Y-123594019D01*
X136639276Y-123594019D02*
X136544038Y-123546400D01*
X136544038Y-123546400D02*
X136496419Y-123498780D01*
X166344695Y-115329619D02*
X166344695Y-116139142D01*
X166344695Y-116139142D02*
X166392314Y-116234380D01*
X166392314Y-116234380D02*
X166439933Y-116282000D01*
X166439933Y-116282000D02*
X166535171Y-116329619D01*
X166535171Y-116329619D02*
X166725647Y-116329619D01*
X166725647Y-116329619D02*
X166820885Y-116282000D01*
X166820885Y-116282000D02*
X166868504Y-116234380D01*
X166868504Y-116234380D02*
X166916123Y-116139142D01*
X166916123Y-116139142D02*
X166916123Y-115329619D01*
X167344695Y-115424857D02*
X167392314Y-115377238D01*
X167392314Y-115377238D02*
X167487552Y-115329619D01*
X167487552Y-115329619D02*
X167725647Y-115329619D01*
X167725647Y-115329619D02*
X167820885Y-115377238D01*
X167820885Y-115377238D02*
X167868504Y-115424857D01*
X167868504Y-115424857D02*
X167916123Y-115520095D01*
X167916123Y-115520095D02*
X167916123Y-115615333D01*
X167916123Y-115615333D02*
X167868504Y-115758190D01*
X167868504Y-115758190D02*
X167297076Y-116329619D01*
X167297076Y-116329619D02*
X167916123Y-116329619D01*
X182140266Y-123152819D02*
X182140266Y-123867104D01*
X182140266Y-123867104D02*
X182092647Y-124009961D01*
X182092647Y-124009961D02*
X181997409Y-124105200D01*
X181997409Y-124105200D02*
X181854552Y-124152819D01*
X181854552Y-124152819D02*
X181759314Y-124152819D01*
X183140266Y-124152819D02*
X182568838Y-124152819D01*
X182854552Y-124152819D02*
X182854552Y-123152819D01*
X182854552Y-123152819D02*
X182759314Y-123295676D01*
X182759314Y-123295676D02*
X182664076Y-123390914D01*
X182664076Y-123390914D02*
X182568838Y-123438533D01*
X115570095Y-99506019D02*
X115570095Y-100315542D01*
X115570095Y-100315542D02*
X115617714Y-100410780D01*
X115617714Y-100410780D02*
X115665333Y-100458400D01*
X115665333Y-100458400D02*
X115760571Y-100506019D01*
X115760571Y-100506019D02*
X115951047Y-100506019D01*
X115951047Y-100506019D02*
X116046285Y-100458400D01*
X116046285Y-100458400D02*
X116093904Y-100410780D01*
X116093904Y-100410780D02*
X116141523Y-100315542D01*
X116141523Y-100315542D02*
X116141523Y-99506019D01*
X117093904Y-99506019D02*
X116617714Y-99506019D01*
X116617714Y-99506019D02*
X116570095Y-99982209D01*
X116570095Y-99982209D02*
X116617714Y-99934590D01*
X116617714Y-99934590D02*
X116712952Y-99886971D01*
X116712952Y-99886971D02*
X116951047Y-99886971D01*
X116951047Y-99886971D02*
X117046285Y-99934590D01*
X117046285Y-99934590D02*
X117093904Y-99982209D01*
X117093904Y-99982209D02*
X117141523Y-100077447D01*
X117141523Y-100077447D02*
X117141523Y-100315542D01*
X117141523Y-100315542D02*
X117093904Y-100410780D01*
X117093904Y-100410780D02*
X117046285Y-100458400D01*
X117046285Y-100458400D02*
X116951047Y-100506019D01*
X116951047Y-100506019D02*
X116712952Y-100506019D01*
X116712952Y-100506019D02*
X116617714Y-100458400D01*
X116617714Y-100458400D02*
X116570095Y-100410780D01*
X148316632Y-128521442D02*
X148316632Y-129236228D01*
X148316632Y-129236228D02*
X148268980Y-129379186D01*
X148268980Y-129379186D02*
X148173675Y-129474491D01*
X148173675Y-129474491D02*
X148030718Y-129522143D01*
X148030718Y-129522143D02*
X147935413Y-129522143D01*
X148745504Y-128616747D02*
X148793157Y-128569094D01*
X148793157Y-128569094D02*
X148888462Y-128521442D01*
X148888462Y-128521442D02*
X149126724Y-128521442D01*
X149126724Y-128521442D02*
X149222029Y-128569094D01*
X149222029Y-128569094D02*
X149269681Y-128616747D01*
X149269681Y-128616747D02*
X149317333Y-128712052D01*
X149317333Y-128712052D02*
X149317333Y-128807357D01*
X149317333Y-128807357D02*
X149269681Y-128950314D01*
X149269681Y-128950314D02*
X148697852Y-129522143D01*
X148697852Y-129522143D02*
X149317333Y-129522143D01*
X153858933Y-94606580D02*
X153811314Y-94654200D01*
X153811314Y-94654200D02*
X153668457Y-94701819D01*
X153668457Y-94701819D02*
X153573219Y-94701819D01*
X153573219Y-94701819D02*
X153430362Y-94654200D01*
X153430362Y-94654200D02*
X153335124Y-94558961D01*
X153335124Y-94558961D02*
X153287505Y-94463723D01*
X153287505Y-94463723D02*
X153239886Y-94273247D01*
X153239886Y-94273247D02*
X153239886Y-94130390D01*
X153239886Y-94130390D02*
X153287505Y-93939914D01*
X153287505Y-93939914D02*
X153335124Y-93844676D01*
X153335124Y-93844676D02*
X153430362Y-93749438D01*
X153430362Y-93749438D02*
X153573219Y-93701819D01*
X153573219Y-93701819D02*
X153668457Y-93701819D01*
X153668457Y-93701819D02*
X153811314Y-93749438D01*
X153811314Y-93749438D02*
X153858933Y-93797057D01*
X154430362Y-94130390D02*
X154335124Y-94082771D01*
X154335124Y-94082771D02*
X154287505Y-94035152D01*
X154287505Y-94035152D02*
X154239886Y-93939914D01*
X154239886Y-93939914D02*
X154239886Y-93892295D01*
X154239886Y-93892295D02*
X154287505Y-93797057D01*
X154287505Y-93797057D02*
X154335124Y-93749438D01*
X154335124Y-93749438D02*
X154430362Y-93701819D01*
X154430362Y-93701819D02*
X154620838Y-93701819D01*
X154620838Y-93701819D02*
X154716076Y-93749438D01*
X154716076Y-93749438D02*
X154763695Y-93797057D01*
X154763695Y-93797057D02*
X154811314Y-93892295D01*
X154811314Y-93892295D02*
X154811314Y-93939914D01*
X154811314Y-93939914D02*
X154763695Y-94035152D01*
X154763695Y-94035152D02*
X154716076Y-94082771D01*
X154716076Y-94082771D02*
X154620838Y-94130390D01*
X154620838Y-94130390D02*
X154430362Y-94130390D01*
X154430362Y-94130390D02*
X154335124Y-94178009D01*
X154335124Y-94178009D02*
X154287505Y-94225628D01*
X154287505Y-94225628D02*
X154239886Y-94320866D01*
X154239886Y-94320866D02*
X154239886Y-94511342D01*
X154239886Y-94511342D02*
X154287505Y-94606580D01*
X154287505Y-94606580D02*
X154335124Y-94654200D01*
X154335124Y-94654200D02*
X154430362Y-94701819D01*
X154430362Y-94701819D02*
X154620838Y-94701819D01*
X154620838Y-94701819D02*
X154716076Y-94654200D01*
X154716076Y-94654200D02*
X154763695Y-94606580D01*
X154763695Y-94606580D02*
X154811314Y-94511342D01*
X154811314Y-94511342D02*
X154811314Y-94320866D01*
X154811314Y-94320866D02*
X154763695Y-94225628D01*
X154763695Y-94225628D02*
X154716076Y-94178009D01*
X154716076Y-94178009D02*
X154620838Y-94130390D01*
X124809633Y-129174819D02*
X124476300Y-128698628D01*
X124238205Y-129174819D02*
X124238205Y-128174819D01*
X124238205Y-128174819D02*
X124619157Y-128174819D01*
X124619157Y-128174819D02*
X124714395Y-128222438D01*
X124714395Y-128222438D02*
X124762014Y-128270057D01*
X124762014Y-128270057D02*
X124809633Y-128365295D01*
X124809633Y-128365295D02*
X124809633Y-128508152D01*
X124809633Y-128508152D02*
X124762014Y-128603390D01*
X124762014Y-128603390D02*
X124714395Y-128651009D01*
X124714395Y-128651009D02*
X124619157Y-128698628D01*
X124619157Y-128698628D02*
X124238205Y-128698628D01*
X125190586Y-128270057D02*
X125238205Y-128222438D01*
X125238205Y-128222438D02*
X125333443Y-128174819D01*
X125333443Y-128174819D02*
X125571538Y-128174819D01*
X125571538Y-128174819D02*
X125666776Y-128222438D01*
X125666776Y-128222438D02*
X125714395Y-128270057D01*
X125714395Y-128270057D02*
X125762014Y-128365295D01*
X125762014Y-128365295D02*
X125762014Y-128460533D01*
X125762014Y-128460533D02*
X125714395Y-128603390D01*
X125714395Y-128603390D02*
X125142967Y-129174819D01*
X125142967Y-129174819D02*
X125762014Y-129174819D01*
X119772133Y-125981619D02*
X119438800Y-125505428D01*
X119200705Y-125981619D02*
X119200705Y-124981619D01*
X119200705Y-124981619D02*
X119581657Y-124981619D01*
X119581657Y-124981619D02*
X119676895Y-125029238D01*
X119676895Y-125029238D02*
X119724514Y-125076857D01*
X119724514Y-125076857D02*
X119772133Y-125172095D01*
X119772133Y-125172095D02*
X119772133Y-125314952D01*
X119772133Y-125314952D02*
X119724514Y-125410190D01*
X119724514Y-125410190D02*
X119676895Y-125457809D01*
X119676895Y-125457809D02*
X119581657Y-125505428D01*
X119581657Y-125505428D02*
X119200705Y-125505428D01*
X120676895Y-124981619D02*
X120200705Y-124981619D01*
X120200705Y-124981619D02*
X120153086Y-125457809D01*
X120153086Y-125457809D02*
X120200705Y-125410190D01*
X120200705Y-125410190D02*
X120295943Y-125362571D01*
X120295943Y-125362571D02*
X120534038Y-125362571D01*
X120534038Y-125362571D02*
X120629276Y-125410190D01*
X120629276Y-125410190D02*
X120676895Y-125457809D01*
X120676895Y-125457809D02*
X120724514Y-125553047D01*
X120724514Y-125553047D02*
X120724514Y-125791142D01*
X120724514Y-125791142D02*
X120676895Y-125886380D01*
X120676895Y-125886380D02*
X120629276Y-125934000D01*
X120629276Y-125934000D02*
X120534038Y-125981619D01*
X120534038Y-125981619D02*
X120295943Y-125981619D01*
X120295943Y-125981619D02*
X120200705Y-125934000D01*
X120200705Y-125934000D02*
X120153086Y-125886380D01*
X192001942Y-126675819D02*
X191668609Y-126199628D01*
X191430514Y-126675819D02*
X191430514Y-125675819D01*
X191430514Y-125675819D02*
X191811466Y-125675819D01*
X191811466Y-125675819D02*
X191906704Y-125723438D01*
X191906704Y-125723438D02*
X191954323Y-125771057D01*
X191954323Y-125771057D02*
X192001942Y-125866295D01*
X192001942Y-125866295D02*
X192001942Y-126009152D01*
X192001942Y-126009152D02*
X191954323Y-126104390D01*
X191954323Y-126104390D02*
X191906704Y-126152009D01*
X191906704Y-126152009D02*
X191811466Y-126199628D01*
X191811466Y-126199628D02*
X191430514Y-126199628D01*
X192954323Y-126675819D02*
X192382895Y-126675819D01*
X192668609Y-126675819D02*
X192668609Y-125675819D01*
X192668609Y-125675819D02*
X192573371Y-125818676D01*
X192573371Y-125818676D02*
X192478133Y-125913914D01*
X192478133Y-125913914D02*
X192382895Y-125961533D01*
X193906704Y-126675819D02*
X193335276Y-126675819D01*
X193620990Y-126675819D02*
X193620990Y-125675819D01*
X193620990Y-125675819D02*
X193525752Y-125818676D01*
X193525752Y-125818676D02*
X193430514Y-125913914D01*
X193430514Y-125913914D02*
X193335276Y-125961533D01*
X122705533Y-105210780D02*
X122657914Y-105258400D01*
X122657914Y-105258400D02*
X122515057Y-105306019D01*
X122515057Y-105306019D02*
X122419819Y-105306019D01*
X122419819Y-105306019D02*
X122276962Y-105258400D01*
X122276962Y-105258400D02*
X122181724Y-105163161D01*
X122181724Y-105163161D02*
X122134105Y-105067923D01*
X122134105Y-105067923D02*
X122086486Y-104877447D01*
X122086486Y-104877447D02*
X122086486Y-104734590D01*
X122086486Y-104734590D02*
X122134105Y-104544114D01*
X122134105Y-104544114D02*
X122181724Y-104448876D01*
X122181724Y-104448876D02*
X122276962Y-104353638D01*
X122276962Y-104353638D02*
X122419819Y-104306019D01*
X122419819Y-104306019D02*
X122515057Y-104306019D01*
X122515057Y-104306019D02*
X122657914Y-104353638D01*
X122657914Y-104353638D02*
X122705533Y-104401257D01*
X123562676Y-104639352D02*
X123562676Y-105306019D01*
X123324581Y-104258400D02*
X123086486Y-104972685D01*
X123086486Y-104972685D02*
X123705533Y-104972685D01*
X153154142Y-109198580D02*
X153106523Y-109246200D01*
X153106523Y-109246200D02*
X152963666Y-109293819D01*
X152963666Y-109293819D02*
X152868428Y-109293819D01*
X152868428Y-109293819D02*
X152725571Y-109246200D01*
X152725571Y-109246200D02*
X152630333Y-109150961D01*
X152630333Y-109150961D02*
X152582714Y-109055723D01*
X152582714Y-109055723D02*
X152535095Y-108865247D01*
X152535095Y-108865247D02*
X152535095Y-108722390D01*
X152535095Y-108722390D02*
X152582714Y-108531914D01*
X152582714Y-108531914D02*
X152630333Y-108436676D01*
X152630333Y-108436676D02*
X152725571Y-108341438D01*
X152725571Y-108341438D02*
X152868428Y-108293819D01*
X152868428Y-108293819D02*
X152963666Y-108293819D01*
X152963666Y-108293819D02*
X153106523Y-108341438D01*
X153106523Y-108341438D02*
X153154142Y-108389057D01*
X154106523Y-109293819D02*
X153535095Y-109293819D01*
X153820809Y-109293819D02*
X153820809Y-108293819D01*
X153820809Y-108293819D02*
X153725571Y-108436676D01*
X153725571Y-108436676D02*
X153630333Y-108531914D01*
X153630333Y-108531914D02*
X153535095Y-108579533D01*
X155011285Y-108293819D02*
X154535095Y-108293819D01*
X154535095Y-108293819D02*
X154487476Y-108770009D01*
X154487476Y-108770009D02*
X154535095Y-108722390D01*
X154535095Y-108722390D02*
X154630333Y-108674771D01*
X154630333Y-108674771D02*
X154868428Y-108674771D01*
X154868428Y-108674771D02*
X154963666Y-108722390D01*
X154963666Y-108722390D02*
X155011285Y-108770009D01*
X155011285Y-108770009D02*
X155058904Y-108865247D01*
X155058904Y-108865247D02*
X155058904Y-109103342D01*
X155058904Y-109103342D02*
X155011285Y-109198580D01*
X155011285Y-109198580D02*
X154963666Y-109246200D01*
X154963666Y-109246200D02*
X154868428Y-109293819D01*
X154868428Y-109293819D02*
X154630333Y-109293819D01*
X154630333Y-109293819D02*
X154535095Y-109246200D01*
X154535095Y-109246200D02*
X154487476Y-109198580D01*
X145019733Y-97438380D02*
X144972114Y-97486000D01*
X144972114Y-97486000D02*
X144829257Y-97533619D01*
X144829257Y-97533619D02*
X144734019Y-97533619D01*
X144734019Y-97533619D02*
X144591162Y-97486000D01*
X144591162Y-97486000D02*
X144495924Y-97390761D01*
X144495924Y-97390761D02*
X144448305Y-97295523D01*
X144448305Y-97295523D02*
X144400686Y-97105047D01*
X144400686Y-97105047D02*
X144400686Y-96962190D01*
X144400686Y-96962190D02*
X144448305Y-96771714D01*
X144448305Y-96771714D02*
X144495924Y-96676476D01*
X144495924Y-96676476D02*
X144591162Y-96581238D01*
X144591162Y-96581238D02*
X144734019Y-96533619D01*
X144734019Y-96533619D02*
X144829257Y-96533619D01*
X144829257Y-96533619D02*
X144972114Y-96581238D01*
X144972114Y-96581238D02*
X145019733Y-96628857D01*
X145353067Y-96533619D02*
X145972114Y-96533619D01*
X145972114Y-96533619D02*
X145638781Y-96914571D01*
X145638781Y-96914571D02*
X145781638Y-96914571D01*
X145781638Y-96914571D02*
X145876876Y-96962190D01*
X145876876Y-96962190D02*
X145924495Y-97009809D01*
X145924495Y-97009809D02*
X145972114Y-97105047D01*
X145972114Y-97105047D02*
X145972114Y-97343142D01*
X145972114Y-97343142D02*
X145924495Y-97438380D01*
X145924495Y-97438380D02*
X145876876Y-97486000D01*
X145876876Y-97486000D02*
X145781638Y-97533619D01*
X145781638Y-97533619D02*
X145495924Y-97533619D01*
X145495924Y-97533619D02*
X145400686Y-97486000D01*
X145400686Y-97486000D02*
X145353067Y-97438380D01*
X185640800Y-97493333D02*
X185840800Y-97560000D01*
X185840800Y-97560000D02*
X185907466Y-97626666D01*
X185907466Y-97626666D02*
X185974133Y-97760000D01*
X185974133Y-97760000D02*
X185974133Y-97960000D01*
X185974133Y-97960000D02*
X185907466Y-98093333D01*
X185907466Y-98093333D02*
X185840800Y-98160000D01*
X185840800Y-98160000D02*
X185707466Y-98226666D01*
X185707466Y-98226666D02*
X185174133Y-98226666D01*
X185174133Y-98226666D02*
X185174133Y-96826666D01*
X185174133Y-96826666D02*
X185640800Y-96826666D01*
X185640800Y-96826666D02*
X185774133Y-96893333D01*
X185774133Y-96893333D02*
X185840800Y-96960000D01*
X185840800Y-96960000D02*
X185907466Y-97093333D01*
X185907466Y-97093333D02*
X185907466Y-97226666D01*
X185907466Y-97226666D02*
X185840800Y-97360000D01*
X185840800Y-97360000D02*
X185774133Y-97426666D01*
X185774133Y-97426666D02*
X185640800Y-97493333D01*
X185640800Y-97493333D02*
X185174133Y-97493333D01*
X186374133Y-96826666D02*
X187174133Y-96826666D01*
X186774133Y-98226666D02*
X186774133Y-96826666D01*
X188374133Y-98226666D02*
X187574133Y-98226666D01*
X187974133Y-98226666D02*
X187974133Y-96826666D01*
X187974133Y-96826666D02*
X187840800Y-97026666D01*
X187840800Y-97026666D02*
X187707467Y-97160000D01*
X187707467Y-97160000D02*
X187574133Y-97226666D01*
X177042933Y-88163332D02*
X177042933Y-87096666D01*
X176331733Y-109625932D02*
X176331733Y-108559266D01*
X176865066Y-109092599D02*
X175798400Y-109092599D01*
X129913142Y-114717219D02*
X129579809Y-114241028D01*
X129341714Y-114717219D02*
X129341714Y-113717219D01*
X129341714Y-113717219D02*
X129722666Y-113717219D01*
X129722666Y-113717219D02*
X129817904Y-113764838D01*
X129817904Y-113764838D02*
X129865523Y-113812457D01*
X129865523Y-113812457D02*
X129913142Y-113907695D01*
X129913142Y-113907695D02*
X129913142Y-114050552D01*
X129913142Y-114050552D02*
X129865523Y-114145790D01*
X129865523Y-114145790D02*
X129817904Y-114193409D01*
X129817904Y-114193409D02*
X129722666Y-114241028D01*
X129722666Y-114241028D02*
X129341714Y-114241028D01*
X130865523Y-114717219D02*
X130294095Y-114717219D01*
X130579809Y-114717219D02*
X130579809Y-113717219D01*
X130579809Y-113717219D02*
X130484571Y-113860076D01*
X130484571Y-113860076D02*
X130389333Y-113955314D01*
X130389333Y-113955314D02*
X130294095Y-114002933D01*
X131198857Y-113717219D02*
X131865523Y-113717219D01*
X131865523Y-113717219D02*
X131436952Y-114717219D01*
X121194533Y-96066780D02*
X121146914Y-96114400D01*
X121146914Y-96114400D02*
X121004057Y-96162019D01*
X121004057Y-96162019D02*
X120908819Y-96162019D01*
X120908819Y-96162019D02*
X120765962Y-96114400D01*
X120765962Y-96114400D02*
X120670724Y-96019161D01*
X120670724Y-96019161D02*
X120623105Y-95923923D01*
X120623105Y-95923923D02*
X120575486Y-95733447D01*
X120575486Y-95733447D02*
X120575486Y-95590590D01*
X120575486Y-95590590D02*
X120623105Y-95400114D01*
X120623105Y-95400114D02*
X120670724Y-95304876D01*
X120670724Y-95304876D02*
X120765962Y-95209638D01*
X120765962Y-95209638D02*
X120908819Y-95162019D01*
X120908819Y-95162019D02*
X121004057Y-95162019D01*
X121004057Y-95162019D02*
X121146914Y-95209638D01*
X121146914Y-95209638D02*
X121194533Y-95257257D01*
X121575486Y-95257257D02*
X121623105Y-95209638D01*
X121623105Y-95209638D02*
X121718343Y-95162019D01*
X121718343Y-95162019D02*
X121956438Y-95162019D01*
X121956438Y-95162019D02*
X122051676Y-95209638D01*
X122051676Y-95209638D02*
X122099295Y-95257257D01*
X122099295Y-95257257D02*
X122146914Y-95352495D01*
X122146914Y-95352495D02*
X122146914Y-95447733D01*
X122146914Y-95447733D02*
X122099295Y-95590590D01*
X122099295Y-95590590D02*
X121527867Y-96162019D01*
X121527867Y-96162019D02*
X122146914Y-96162019D01*
X195795333Y-106553180D02*
X195747714Y-106600800D01*
X195747714Y-106600800D02*
X195604857Y-106648419D01*
X195604857Y-106648419D02*
X195509619Y-106648419D01*
X195509619Y-106648419D02*
X195366762Y-106600800D01*
X195366762Y-106600800D02*
X195271524Y-106505561D01*
X195271524Y-106505561D02*
X195223905Y-106410323D01*
X195223905Y-106410323D02*
X195176286Y-106219847D01*
X195176286Y-106219847D02*
X195176286Y-106076990D01*
X195176286Y-106076990D02*
X195223905Y-105886514D01*
X195223905Y-105886514D02*
X195271524Y-105791276D01*
X195271524Y-105791276D02*
X195366762Y-105696038D01*
X195366762Y-105696038D02*
X195509619Y-105648419D01*
X195509619Y-105648419D02*
X195604857Y-105648419D01*
X195604857Y-105648419D02*
X195747714Y-105696038D01*
X195747714Y-105696038D02*
X195795333Y-105743657D01*
X196128667Y-105648419D02*
X196795333Y-105648419D01*
X196795333Y-105648419D02*
X196366762Y-106648419D01*
X179555942Y-118027619D02*
X179222609Y-117551428D01*
X178984514Y-118027619D02*
X178984514Y-117027619D01*
X178984514Y-117027619D02*
X179365466Y-117027619D01*
X179365466Y-117027619D02*
X179460704Y-117075238D01*
X179460704Y-117075238D02*
X179508323Y-117122857D01*
X179508323Y-117122857D02*
X179555942Y-117218095D01*
X179555942Y-117218095D02*
X179555942Y-117360952D01*
X179555942Y-117360952D02*
X179508323Y-117456190D01*
X179508323Y-117456190D02*
X179460704Y-117503809D01*
X179460704Y-117503809D02*
X179365466Y-117551428D01*
X179365466Y-117551428D02*
X178984514Y-117551428D01*
X180508323Y-118027619D02*
X179936895Y-118027619D01*
X180222609Y-118027619D02*
X180222609Y-117027619D01*
X180222609Y-117027619D02*
X180127371Y-117170476D01*
X180127371Y-117170476D02*
X180032133Y-117265714D01*
X180032133Y-117265714D02*
X179936895Y-117313333D01*
X181365466Y-117027619D02*
X181174990Y-117027619D01*
X181174990Y-117027619D02*
X181079752Y-117075238D01*
X181079752Y-117075238D02*
X181032133Y-117122857D01*
X181032133Y-117122857D02*
X180936895Y-117265714D01*
X180936895Y-117265714D02*
X180889276Y-117456190D01*
X180889276Y-117456190D02*
X180889276Y-117837142D01*
X180889276Y-117837142D02*
X180936895Y-117932380D01*
X180936895Y-117932380D02*
X180984514Y-117980000D01*
X180984514Y-117980000D02*
X181079752Y-118027619D01*
X181079752Y-118027619D02*
X181270228Y-118027619D01*
X181270228Y-118027619D02*
X181365466Y-117980000D01*
X181365466Y-117980000D02*
X181413085Y-117932380D01*
X181413085Y-117932380D02*
X181460704Y-117837142D01*
X181460704Y-117837142D02*
X181460704Y-117599047D01*
X181460704Y-117599047D02*
X181413085Y-117503809D01*
X181413085Y-117503809D02*
X181365466Y-117456190D01*
X181365466Y-117456190D02*
X181270228Y-117408571D01*
X181270228Y-117408571D02*
X181079752Y-117408571D01*
X181079752Y-117408571D02*
X180984514Y-117456190D01*
X180984514Y-117456190D02*
X180936895Y-117503809D01*
X180936895Y-117503809D02*
X180889276Y-117599047D01*
X176242742Y-131925219D02*
X175909409Y-131449028D01*
X175671314Y-131925219D02*
X175671314Y-130925219D01*
X175671314Y-130925219D02*
X176052266Y-130925219D01*
X176052266Y-130925219D02*
X176147504Y-130972838D01*
X176147504Y-130972838D02*
X176195123Y-131020457D01*
X176195123Y-131020457D02*
X176242742Y-131115695D01*
X176242742Y-131115695D02*
X176242742Y-131258552D01*
X176242742Y-131258552D02*
X176195123Y-131353790D01*
X176195123Y-131353790D02*
X176147504Y-131401409D01*
X176147504Y-131401409D02*
X176052266Y-131449028D01*
X176052266Y-131449028D02*
X175671314Y-131449028D01*
X177195123Y-131925219D02*
X176623695Y-131925219D01*
X176909409Y-131925219D02*
X176909409Y-130925219D01*
X176909409Y-130925219D02*
X176814171Y-131068076D01*
X176814171Y-131068076D02*
X176718933Y-131163314D01*
X176718933Y-131163314D02*
X176623695Y-131210933D01*
X178052266Y-131258552D02*
X178052266Y-131925219D01*
X177814171Y-130877600D02*
X177576076Y-131591885D01*
X177576076Y-131591885D02*
X178195123Y-131591885D01*
X165609942Y-106454019D02*
X165276609Y-105977828D01*
X165038514Y-106454019D02*
X165038514Y-105454019D01*
X165038514Y-105454019D02*
X165419466Y-105454019D01*
X165419466Y-105454019D02*
X165514704Y-105501638D01*
X165514704Y-105501638D02*
X165562323Y-105549257D01*
X165562323Y-105549257D02*
X165609942Y-105644495D01*
X165609942Y-105644495D02*
X165609942Y-105787352D01*
X165609942Y-105787352D02*
X165562323Y-105882590D01*
X165562323Y-105882590D02*
X165514704Y-105930209D01*
X165514704Y-105930209D02*
X165419466Y-105977828D01*
X165419466Y-105977828D02*
X165038514Y-105977828D01*
X166562323Y-106454019D02*
X165990895Y-106454019D01*
X166276609Y-106454019D02*
X166276609Y-105454019D01*
X166276609Y-105454019D02*
X166181371Y-105596876D01*
X166181371Y-105596876D02*
X166086133Y-105692114D01*
X166086133Y-105692114D02*
X165990895Y-105739733D01*
X166943276Y-105549257D02*
X166990895Y-105501638D01*
X166990895Y-105501638D02*
X167086133Y-105454019D01*
X167086133Y-105454019D02*
X167324228Y-105454019D01*
X167324228Y-105454019D02*
X167419466Y-105501638D01*
X167419466Y-105501638D02*
X167467085Y-105549257D01*
X167467085Y-105549257D02*
X167514704Y-105644495D01*
X167514704Y-105644495D02*
X167514704Y-105739733D01*
X167514704Y-105739733D02*
X167467085Y-105882590D01*
X167467085Y-105882590D02*
X166895657Y-106454019D01*
X166895657Y-106454019D02*
X167514704Y-106454019D01*
X144119695Y-122289219D02*
X144119695Y-123098742D01*
X144119695Y-123098742D02*
X144167314Y-123193980D01*
X144167314Y-123193980D02*
X144214933Y-123241600D01*
X144214933Y-123241600D02*
X144310171Y-123289219D01*
X144310171Y-123289219D02*
X144500647Y-123289219D01*
X144500647Y-123289219D02*
X144595885Y-123241600D01*
X144595885Y-123241600D02*
X144643504Y-123193980D01*
X144643504Y-123193980D02*
X144691123Y-123098742D01*
X144691123Y-123098742D02*
X144691123Y-122289219D01*
X145072076Y-122289219D02*
X145691123Y-122289219D01*
X145691123Y-122289219D02*
X145357790Y-122670171D01*
X145357790Y-122670171D02*
X145500647Y-122670171D01*
X145500647Y-122670171D02*
X145595885Y-122717790D01*
X145595885Y-122717790D02*
X145643504Y-122765409D01*
X145643504Y-122765409D02*
X145691123Y-122860647D01*
X145691123Y-122860647D02*
X145691123Y-123098742D01*
X145691123Y-123098742D02*
X145643504Y-123193980D01*
X145643504Y-123193980D02*
X145595885Y-123241600D01*
X145595885Y-123241600D02*
X145500647Y-123289219D01*
X145500647Y-123289219D02*
X145214933Y-123289219D01*
X145214933Y-123289219D02*
X145119695Y-123241600D01*
X145119695Y-123241600D02*
X145072076Y-123193980D01*
X190098942Y-131874419D02*
X189765609Y-131398228D01*
X189527514Y-131874419D02*
X189527514Y-130874419D01*
X189527514Y-130874419D02*
X189908466Y-130874419D01*
X189908466Y-130874419D02*
X190003704Y-130922038D01*
X190003704Y-130922038D02*
X190051323Y-130969657D01*
X190051323Y-130969657D02*
X190098942Y-131064895D01*
X190098942Y-131064895D02*
X190098942Y-131207752D01*
X190098942Y-131207752D02*
X190051323Y-131302990D01*
X190051323Y-131302990D02*
X190003704Y-131350609D01*
X190003704Y-131350609D02*
X189908466Y-131398228D01*
X189908466Y-131398228D02*
X189527514Y-131398228D01*
X191051323Y-131874419D02*
X190479895Y-131874419D01*
X190765609Y-131874419D02*
X190765609Y-130874419D01*
X190765609Y-130874419D02*
X190670371Y-131017276D01*
X190670371Y-131017276D02*
X190575133Y-131112514D01*
X190575133Y-131112514D02*
X190479895Y-131160133D01*
X191384657Y-130874419D02*
X192003704Y-130874419D01*
X192003704Y-130874419D02*
X191670371Y-131255371D01*
X191670371Y-131255371D02*
X191813228Y-131255371D01*
X191813228Y-131255371D02*
X191908466Y-131302990D01*
X191908466Y-131302990D02*
X191956085Y-131350609D01*
X191956085Y-131350609D02*
X192003704Y-131445847D01*
X192003704Y-131445847D02*
X192003704Y-131683942D01*
X192003704Y-131683942D02*
X191956085Y-131779180D01*
X191956085Y-131779180D02*
X191908466Y-131826800D01*
X191908466Y-131826800D02*
X191813228Y-131874419D01*
X191813228Y-131874419D02*
X191527514Y-131874419D01*
X191527514Y-131874419D02*
X191432276Y-131826800D01*
X191432276Y-131826800D02*
X191384657Y-131779180D01*
X120627433Y-117568219D02*
X120294100Y-117092028D01*
X120056005Y-117568219D02*
X120056005Y-116568219D01*
X120056005Y-116568219D02*
X120436957Y-116568219D01*
X120436957Y-116568219D02*
X120532195Y-116615838D01*
X120532195Y-116615838D02*
X120579814Y-116663457D01*
X120579814Y-116663457D02*
X120627433Y-116758695D01*
X120627433Y-116758695D02*
X120627433Y-116901552D01*
X120627433Y-116901552D02*
X120579814Y-116996790D01*
X120579814Y-116996790D02*
X120532195Y-117044409D01*
X120532195Y-117044409D02*
X120436957Y-117092028D01*
X120436957Y-117092028D02*
X120056005Y-117092028D01*
X121484576Y-116901552D02*
X121484576Y-117568219D01*
X121246481Y-116520600D02*
X121008386Y-117234885D01*
X121008386Y-117234885D02*
X121627433Y-117234885D01*
X122523633Y-129124019D02*
X122190300Y-128647828D01*
X121952205Y-129124019D02*
X121952205Y-128124019D01*
X121952205Y-128124019D02*
X122333157Y-128124019D01*
X122333157Y-128124019D02*
X122428395Y-128171638D01*
X122428395Y-128171638D02*
X122476014Y-128219257D01*
X122476014Y-128219257D02*
X122523633Y-128314495D01*
X122523633Y-128314495D02*
X122523633Y-128457352D01*
X122523633Y-128457352D02*
X122476014Y-128552590D01*
X122476014Y-128552590D02*
X122428395Y-128600209D01*
X122428395Y-128600209D02*
X122333157Y-128647828D01*
X122333157Y-128647828D02*
X121952205Y-128647828D01*
X122856967Y-128124019D02*
X123476014Y-128124019D01*
X123476014Y-128124019D02*
X123142681Y-128504971D01*
X123142681Y-128504971D02*
X123285538Y-128504971D01*
X123285538Y-128504971D02*
X123380776Y-128552590D01*
X123380776Y-128552590D02*
X123428395Y-128600209D01*
X123428395Y-128600209D02*
X123476014Y-128695447D01*
X123476014Y-128695447D02*
X123476014Y-128933542D01*
X123476014Y-128933542D02*
X123428395Y-129028780D01*
X123428395Y-129028780D02*
X123380776Y-129076400D01*
X123380776Y-129076400D02*
X123285538Y-129124019D01*
X123285538Y-129124019D02*
X122999824Y-129124019D01*
X122999824Y-129124019D02*
X122904586Y-129076400D01*
X122904586Y-129076400D02*
X122856967Y-129028780D01*
X163804695Y-88811619D02*
X163804695Y-89621142D01*
X163804695Y-89621142D02*
X163852314Y-89716380D01*
X163852314Y-89716380D02*
X163899933Y-89764000D01*
X163899933Y-89764000D02*
X163995171Y-89811619D01*
X163995171Y-89811619D02*
X164185647Y-89811619D01*
X164185647Y-89811619D02*
X164280885Y-89764000D01*
X164280885Y-89764000D02*
X164328504Y-89716380D01*
X164328504Y-89716380D02*
X164376123Y-89621142D01*
X164376123Y-89621142D02*
X164376123Y-88811619D01*
X164757076Y-88811619D02*
X165423742Y-88811619D01*
X165423742Y-88811619D02*
X164995171Y-89811619D01*
X186483733Y-126574219D02*
X186150400Y-126098028D01*
X185912305Y-126574219D02*
X185912305Y-125574219D01*
X185912305Y-125574219D02*
X186293257Y-125574219D01*
X186293257Y-125574219D02*
X186388495Y-125621838D01*
X186388495Y-125621838D02*
X186436114Y-125669457D01*
X186436114Y-125669457D02*
X186483733Y-125764695D01*
X186483733Y-125764695D02*
X186483733Y-125907552D01*
X186483733Y-125907552D02*
X186436114Y-126002790D01*
X186436114Y-126002790D02*
X186388495Y-126050409D01*
X186388495Y-126050409D02*
X186293257Y-126098028D01*
X186293257Y-126098028D02*
X185912305Y-126098028D01*
X186817067Y-125574219D02*
X187483733Y-125574219D01*
X187483733Y-125574219D02*
X187055162Y-126574219D01*
X160245466Y-125490619D02*
X160245466Y-126204904D01*
X160245466Y-126204904D02*
X160197847Y-126347761D01*
X160197847Y-126347761D02*
X160102609Y-126443000D01*
X160102609Y-126443000D02*
X159959752Y-126490619D01*
X159959752Y-126490619D02*
X159864514Y-126490619D01*
X161150228Y-125823952D02*
X161150228Y-126490619D01*
X160912133Y-125443000D02*
X160674038Y-126157285D01*
X160674038Y-126157285D02*
X161293085Y-126157285D01*
X158919942Y-95609580D02*
X158872323Y-95657200D01*
X158872323Y-95657200D02*
X158729466Y-95704819D01*
X158729466Y-95704819D02*
X158634228Y-95704819D01*
X158634228Y-95704819D02*
X158491371Y-95657200D01*
X158491371Y-95657200D02*
X158396133Y-95561961D01*
X158396133Y-95561961D02*
X158348514Y-95466723D01*
X158348514Y-95466723D02*
X158300895Y-95276247D01*
X158300895Y-95276247D02*
X158300895Y-95133390D01*
X158300895Y-95133390D02*
X158348514Y-94942914D01*
X158348514Y-94942914D02*
X158396133Y-94847676D01*
X158396133Y-94847676D02*
X158491371Y-94752438D01*
X158491371Y-94752438D02*
X158634228Y-94704819D01*
X158634228Y-94704819D02*
X158729466Y-94704819D01*
X158729466Y-94704819D02*
X158872323Y-94752438D01*
X158872323Y-94752438D02*
X158919942Y-94800057D01*
X159872323Y-95704819D02*
X159300895Y-95704819D01*
X159586609Y-95704819D02*
X159586609Y-94704819D01*
X159586609Y-94704819D02*
X159491371Y-94847676D01*
X159491371Y-94847676D02*
X159396133Y-94942914D01*
X159396133Y-94942914D02*
X159300895Y-94990533D01*
X160491371Y-94704819D02*
X160586609Y-94704819D01*
X160586609Y-94704819D02*
X160681847Y-94752438D01*
X160681847Y-94752438D02*
X160729466Y-94800057D01*
X160729466Y-94800057D02*
X160777085Y-94895295D01*
X160777085Y-94895295D02*
X160824704Y-95085771D01*
X160824704Y-95085771D02*
X160824704Y-95323866D01*
X160824704Y-95323866D02*
X160777085Y-95514342D01*
X160777085Y-95514342D02*
X160729466Y-95609580D01*
X160729466Y-95609580D02*
X160681847Y-95657200D01*
X160681847Y-95657200D02*
X160586609Y-95704819D01*
X160586609Y-95704819D02*
X160491371Y-95704819D01*
X160491371Y-95704819D02*
X160396133Y-95657200D01*
X160396133Y-95657200D02*
X160348514Y-95609580D01*
X160348514Y-95609580D02*
X160300895Y-95514342D01*
X160300895Y-95514342D02*
X160253276Y-95323866D01*
X160253276Y-95323866D02*
X160253276Y-95085771D01*
X160253276Y-95085771D02*
X160300895Y-94895295D01*
X160300895Y-94895295D02*
X160348514Y-94800057D01*
X160348514Y-94800057D02*
X160396133Y-94752438D01*
X160396133Y-94752438D02*
X160491371Y-94704819D01*
X124952286Y-116802819D02*
X125523714Y-116802819D01*
X125238000Y-117802819D02*
X125238000Y-116802819D01*
X125857048Y-117802819D02*
X125857048Y-116802819D01*
X125857048Y-117279009D02*
X126428476Y-117279009D01*
X126428476Y-117802819D02*
X126428476Y-116802819D01*
X127428476Y-117802819D02*
X126857048Y-117802819D01*
X127142762Y-117802819D02*
X127142762Y-116802819D01*
X127142762Y-116802819D02*
X127047524Y-116945676D01*
X127047524Y-116945676D02*
X126952286Y-117040914D01*
X126952286Y-117040914D02*
X126857048Y-117088533D01*
X153909733Y-92320580D02*
X153862114Y-92368200D01*
X153862114Y-92368200D02*
X153719257Y-92415819D01*
X153719257Y-92415819D02*
X153624019Y-92415819D01*
X153624019Y-92415819D02*
X153481162Y-92368200D01*
X153481162Y-92368200D02*
X153385924Y-92272961D01*
X153385924Y-92272961D02*
X153338305Y-92177723D01*
X153338305Y-92177723D02*
X153290686Y-91987247D01*
X153290686Y-91987247D02*
X153290686Y-91844390D01*
X153290686Y-91844390D02*
X153338305Y-91653914D01*
X153338305Y-91653914D02*
X153385924Y-91558676D01*
X153385924Y-91558676D02*
X153481162Y-91463438D01*
X153481162Y-91463438D02*
X153624019Y-91415819D01*
X153624019Y-91415819D02*
X153719257Y-91415819D01*
X153719257Y-91415819D02*
X153862114Y-91463438D01*
X153862114Y-91463438D02*
X153909733Y-91511057D01*
X154385924Y-92415819D02*
X154576400Y-92415819D01*
X154576400Y-92415819D02*
X154671638Y-92368200D01*
X154671638Y-92368200D02*
X154719257Y-92320580D01*
X154719257Y-92320580D02*
X154814495Y-92177723D01*
X154814495Y-92177723D02*
X154862114Y-91987247D01*
X154862114Y-91987247D02*
X154862114Y-91606295D01*
X154862114Y-91606295D02*
X154814495Y-91511057D01*
X154814495Y-91511057D02*
X154766876Y-91463438D01*
X154766876Y-91463438D02*
X154671638Y-91415819D01*
X154671638Y-91415819D02*
X154481162Y-91415819D01*
X154481162Y-91415819D02*
X154385924Y-91463438D01*
X154385924Y-91463438D02*
X154338305Y-91511057D01*
X154338305Y-91511057D02*
X154290686Y-91606295D01*
X154290686Y-91606295D02*
X154290686Y-91844390D01*
X154290686Y-91844390D02*
X154338305Y-91939628D01*
X154338305Y-91939628D02*
X154385924Y-91987247D01*
X154385924Y-91987247D02*
X154481162Y-92034866D01*
X154481162Y-92034866D02*
X154671638Y-92034866D01*
X154671638Y-92034866D02*
X154766876Y-91987247D01*
X154766876Y-91987247D02*
X154814495Y-91939628D01*
X154814495Y-91939628D02*
X154862114Y-91844390D01*
X129151142Y-120040780D02*
X129103523Y-120088400D01*
X129103523Y-120088400D02*
X128960666Y-120136019D01*
X128960666Y-120136019D02*
X128865428Y-120136019D01*
X128865428Y-120136019D02*
X128722571Y-120088400D01*
X128722571Y-120088400D02*
X128627333Y-119993161D01*
X128627333Y-119993161D02*
X128579714Y-119897923D01*
X128579714Y-119897923D02*
X128532095Y-119707447D01*
X128532095Y-119707447D02*
X128532095Y-119564590D01*
X128532095Y-119564590D02*
X128579714Y-119374114D01*
X128579714Y-119374114D02*
X128627333Y-119278876D01*
X128627333Y-119278876D02*
X128722571Y-119183638D01*
X128722571Y-119183638D02*
X128865428Y-119136019D01*
X128865428Y-119136019D02*
X128960666Y-119136019D01*
X128960666Y-119136019D02*
X129103523Y-119183638D01*
X129103523Y-119183638D02*
X129151142Y-119231257D01*
X130103523Y-120136019D02*
X129532095Y-120136019D01*
X129817809Y-120136019D02*
X129817809Y-119136019D01*
X129817809Y-119136019D02*
X129722571Y-119278876D01*
X129722571Y-119278876D02*
X129627333Y-119374114D01*
X129627333Y-119374114D02*
X129532095Y-119421733D01*
X131055904Y-120136019D02*
X130484476Y-120136019D01*
X130770190Y-120136019D02*
X130770190Y-119136019D01*
X130770190Y-119136019D02*
X130674952Y-119278876D01*
X130674952Y-119278876D02*
X130579714Y-119374114D01*
X130579714Y-119374114D02*
X130484476Y-119421733D01*
X176344342Y-129696380D02*
X176296723Y-129744000D01*
X176296723Y-129744000D02*
X176153866Y-129791619D01*
X176153866Y-129791619D02*
X176058628Y-129791619D01*
X176058628Y-129791619D02*
X175915771Y-129744000D01*
X175915771Y-129744000D02*
X175820533Y-129648761D01*
X175820533Y-129648761D02*
X175772914Y-129553523D01*
X175772914Y-129553523D02*
X175725295Y-129363047D01*
X175725295Y-129363047D02*
X175725295Y-129220190D01*
X175725295Y-129220190D02*
X175772914Y-129029714D01*
X175772914Y-129029714D02*
X175820533Y-128934476D01*
X175820533Y-128934476D02*
X175915771Y-128839238D01*
X175915771Y-128839238D02*
X176058628Y-128791619D01*
X176058628Y-128791619D02*
X176153866Y-128791619D01*
X176153866Y-128791619D02*
X176296723Y-128839238D01*
X176296723Y-128839238D02*
X176344342Y-128886857D01*
X177296723Y-129791619D02*
X176725295Y-129791619D01*
X177011009Y-129791619D02*
X177011009Y-128791619D01*
X177011009Y-128791619D02*
X176915771Y-128934476D01*
X176915771Y-128934476D02*
X176820533Y-129029714D01*
X176820533Y-129029714D02*
X176725295Y-129077333D01*
X177630057Y-128791619D02*
X178249104Y-128791619D01*
X178249104Y-128791619D02*
X177915771Y-129172571D01*
X177915771Y-129172571D02*
X178058628Y-129172571D01*
X178058628Y-129172571D02*
X178153866Y-129220190D01*
X178153866Y-129220190D02*
X178201485Y-129267809D01*
X178201485Y-129267809D02*
X178249104Y-129363047D01*
X178249104Y-129363047D02*
X178249104Y-129601142D01*
X178249104Y-129601142D02*
X178201485Y-129696380D01*
X178201485Y-129696380D02*
X178153866Y-129744000D01*
X178153866Y-129744000D02*
X178058628Y-129791619D01*
X178058628Y-129791619D02*
X177772914Y-129791619D01*
X177772914Y-129791619D02*
X177677676Y-129744000D01*
X177677676Y-129744000D02*
X177630057Y-129696380D01*
X187550533Y-104616419D02*
X187217200Y-104140228D01*
X186979105Y-104616419D02*
X186979105Y-103616419D01*
X186979105Y-103616419D02*
X187360057Y-103616419D01*
X187360057Y-103616419D02*
X187455295Y-103664038D01*
X187455295Y-103664038D02*
X187502914Y-103711657D01*
X187502914Y-103711657D02*
X187550533Y-103806895D01*
X187550533Y-103806895D02*
X187550533Y-103949752D01*
X187550533Y-103949752D02*
X187502914Y-104044990D01*
X187502914Y-104044990D02*
X187455295Y-104092609D01*
X187455295Y-104092609D02*
X187360057Y-104140228D01*
X187360057Y-104140228D02*
X186979105Y-104140228D01*
X188121962Y-104044990D02*
X188026724Y-103997371D01*
X188026724Y-103997371D02*
X187979105Y-103949752D01*
X187979105Y-103949752D02*
X187931486Y-103854514D01*
X187931486Y-103854514D02*
X187931486Y-103806895D01*
X187931486Y-103806895D02*
X187979105Y-103711657D01*
X187979105Y-103711657D02*
X188026724Y-103664038D01*
X188026724Y-103664038D02*
X188121962Y-103616419D01*
X188121962Y-103616419D02*
X188312438Y-103616419D01*
X188312438Y-103616419D02*
X188407676Y-103664038D01*
X188407676Y-103664038D02*
X188455295Y-103711657D01*
X188455295Y-103711657D02*
X188502914Y-103806895D01*
X188502914Y-103806895D02*
X188502914Y-103854514D01*
X188502914Y-103854514D02*
X188455295Y-103949752D01*
X188455295Y-103949752D02*
X188407676Y-103997371D01*
X188407676Y-103997371D02*
X188312438Y-104044990D01*
X188312438Y-104044990D02*
X188121962Y-104044990D01*
X188121962Y-104044990D02*
X188026724Y-104092609D01*
X188026724Y-104092609D02*
X187979105Y-104140228D01*
X187979105Y-104140228D02*
X187931486Y-104235466D01*
X187931486Y-104235466D02*
X187931486Y-104425942D01*
X187931486Y-104425942D02*
X187979105Y-104521180D01*
X187979105Y-104521180D02*
X188026724Y-104568800D01*
X188026724Y-104568800D02*
X188121962Y-104616419D01*
X188121962Y-104616419D02*
X188312438Y-104616419D01*
X188312438Y-104616419D02*
X188407676Y-104568800D01*
X188407676Y-104568800D02*
X188455295Y-104521180D01*
X188455295Y-104521180D02*
X188502914Y-104425942D01*
X188502914Y-104425942D02*
X188502914Y-104235466D01*
X188502914Y-104235466D02*
X188455295Y-104140228D01*
X188455295Y-104140228D02*
X188407676Y-104092609D01*
X188407676Y-104092609D02*
X188312438Y-104044990D01*
X160843933Y-123263819D02*
X160367743Y-123263819D01*
X160367743Y-123263819D02*
X160367743Y-122263819D01*
X161701076Y-123263819D02*
X161129648Y-123263819D01*
X161415362Y-123263819D02*
X161415362Y-122263819D01*
X161415362Y-122263819D02*
X161320124Y-122406676D01*
X161320124Y-122406676D02*
X161224886Y-122501914D01*
X161224886Y-122501914D02*
X161129648Y-122549533D01*
X153154142Y-106785580D02*
X153106523Y-106833200D01*
X153106523Y-106833200D02*
X152963666Y-106880819D01*
X152963666Y-106880819D02*
X152868428Y-106880819D01*
X152868428Y-106880819D02*
X152725571Y-106833200D01*
X152725571Y-106833200D02*
X152630333Y-106737961D01*
X152630333Y-106737961D02*
X152582714Y-106642723D01*
X152582714Y-106642723D02*
X152535095Y-106452247D01*
X152535095Y-106452247D02*
X152535095Y-106309390D01*
X152535095Y-106309390D02*
X152582714Y-106118914D01*
X152582714Y-106118914D02*
X152630333Y-106023676D01*
X152630333Y-106023676D02*
X152725571Y-105928438D01*
X152725571Y-105928438D02*
X152868428Y-105880819D01*
X152868428Y-105880819D02*
X152963666Y-105880819D01*
X152963666Y-105880819D02*
X153106523Y-105928438D01*
X153106523Y-105928438D02*
X153154142Y-105976057D01*
X154106523Y-106880819D02*
X153535095Y-106880819D01*
X153820809Y-106880819D02*
X153820809Y-105880819D01*
X153820809Y-105880819D02*
X153725571Y-106023676D01*
X153725571Y-106023676D02*
X153630333Y-106118914D01*
X153630333Y-106118914D02*
X153535095Y-106166533D01*
X154963666Y-106214152D02*
X154963666Y-106880819D01*
X154725571Y-105833200D02*
X154487476Y-106547485D01*
X154487476Y-106547485D02*
X155106523Y-106547485D01*
X118451333Y-95736580D02*
X118403714Y-95784200D01*
X118403714Y-95784200D02*
X118260857Y-95831819D01*
X118260857Y-95831819D02*
X118165619Y-95831819D01*
X118165619Y-95831819D02*
X118022762Y-95784200D01*
X118022762Y-95784200D02*
X117927524Y-95688961D01*
X117927524Y-95688961D02*
X117879905Y-95593723D01*
X117879905Y-95593723D02*
X117832286Y-95403247D01*
X117832286Y-95403247D02*
X117832286Y-95260390D01*
X117832286Y-95260390D02*
X117879905Y-95069914D01*
X117879905Y-95069914D02*
X117927524Y-94974676D01*
X117927524Y-94974676D02*
X118022762Y-94879438D01*
X118022762Y-94879438D02*
X118165619Y-94831819D01*
X118165619Y-94831819D02*
X118260857Y-94831819D01*
X118260857Y-94831819D02*
X118403714Y-94879438D01*
X118403714Y-94879438D02*
X118451333Y-94927057D01*
X119308476Y-94831819D02*
X119118000Y-94831819D01*
X119118000Y-94831819D02*
X119022762Y-94879438D01*
X119022762Y-94879438D02*
X118975143Y-94927057D01*
X118975143Y-94927057D02*
X118879905Y-95069914D01*
X118879905Y-95069914D02*
X118832286Y-95260390D01*
X118832286Y-95260390D02*
X118832286Y-95641342D01*
X118832286Y-95641342D02*
X118879905Y-95736580D01*
X118879905Y-95736580D02*
X118927524Y-95784200D01*
X118927524Y-95784200D02*
X119022762Y-95831819D01*
X119022762Y-95831819D02*
X119213238Y-95831819D01*
X119213238Y-95831819D02*
X119308476Y-95784200D01*
X119308476Y-95784200D02*
X119356095Y-95736580D01*
X119356095Y-95736580D02*
X119403714Y-95641342D01*
X119403714Y-95641342D02*
X119403714Y-95403247D01*
X119403714Y-95403247D02*
X119356095Y-95308009D01*
X119356095Y-95308009D02*
X119308476Y-95260390D01*
X119308476Y-95260390D02*
X119213238Y-95212771D01*
X119213238Y-95212771D02*
X119022762Y-95212771D01*
X119022762Y-95212771D02*
X118927524Y-95260390D01*
X118927524Y-95260390D02*
X118879905Y-95308009D01*
X118879905Y-95308009D02*
X118832286Y-95403247D01*
D12*
%TO.C,C1*%
X123340400Y-98184580D02*
X123340400Y-97903420D01*
X124360400Y-98184580D02*
X124360400Y-97903420D01*
%TO.C,U6*%
X122639400Y-119591400D02*
X123364400Y-119591400D01*
X122639400Y-120316400D02*
X122639400Y-119591400D01*
X122639400Y-123086400D02*
X122639400Y-123811400D01*
X122639400Y-123811400D02*
X123364400Y-123811400D01*
X126134400Y-119591400D02*
X126619400Y-119591400D01*
X126859400Y-120316400D02*
X126859400Y-119891400D01*
X126859400Y-123086400D02*
X126859400Y-123811400D01*
X126859400Y-123811400D02*
X126134400Y-123811400D01*
X127189400Y-119831400D02*
X126859400Y-119591400D01*
X127189400Y-119351400D01*
X127189400Y-119831400D01*
G36*
X127189400Y-119831400D02*
G01*
X126859400Y-119591400D01*
X127189400Y-119351400D01*
X127189400Y-119831400D01*
G37*
%TO.C,C5*%
X113485200Y-99200580D02*
X113485200Y-98919420D01*
X114505200Y-99200580D02*
X114505200Y-98919420D01*
%TO.C,R15*%
X180559942Y-151521900D02*
X181034458Y-151521900D01*
X180559942Y-152566900D02*
X181034458Y-152566900D01*
D13*
%TO.C,SW1*%
X147848000Y-99490400D02*
X147948000Y-99490400D01*
X147848000Y-102490400D02*
X147848000Y-99490400D01*
X147948000Y-102490400D02*
X147848000Y-102490400D01*
X150248000Y-99490400D02*
X150348000Y-99490400D01*
X150248000Y-102490400D02*
X150348000Y-102490400D01*
X150348000Y-99490400D02*
X150348000Y-100290400D01*
X150348000Y-102490400D02*
X150348000Y-101690400D01*
D10*
X147898000Y-98840400D02*
G75*
G02*
X147798000Y-98840400I-50000J0D01*
G01*
X147798000Y-98840400D02*
G75*
G02*
X147898000Y-98840400I50000J0D01*
G01*
D13*
X149848000Y-100990400D02*
G75*
G02*
X148348000Y-100990400I-750000J0D01*
G01*
X148348000Y-100990400D02*
G75*
G02*
X149848000Y-100990400I750000J0D01*
G01*
D14*
%TO.C,U1*%
X125181601Y-90523799D02*
X125181601Y-111275599D01*
X125181601Y-111275599D02*
X140828001Y-111275599D01*
X140828001Y-90523799D02*
X125181601Y-90523799D01*
X140828001Y-111275599D02*
X140828001Y-90523799D01*
D12*
%TO.C,R1*%
X142530300Y-98975142D02*
X142530300Y-99449658D01*
X143575300Y-98975142D02*
X143575300Y-99449658D01*
D13*
%TO.C,SW2*%
X117297600Y-101518400D02*
X118097600Y-101518400D01*
X117297600Y-101618400D02*
X117297600Y-101518400D01*
X117297600Y-104018400D02*
X117297600Y-103918400D01*
X120297600Y-101518400D02*
X119497600Y-101518400D01*
X120297600Y-101618400D02*
X120297600Y-101518400D01*
X120297600Y-103918400D02*
X120297600Y-104018400D01*
X120297600Y-104018400D02*
X117297600Y-104018400D01*
D10*
X116697600Y-104018400D02*
G75*
G02*
X116597600Y-104018400I-50000J0D01*
G01*
X116597600Y-104018400D02*
G75*
G02*
X116697600Y-104018400I50000J0D01*
G01*
D13*
X119547600Y-102768400D02*
G75*
G02*
X118047600Y-102768400I-750000J0D01*
G01*
X118047600Y-102768400D02*
G75*
G02*
X119547600Y-102768400I750000J0D01*
G01*
D12*
%TO.C,C12*%
X187489420Y-128776000D02*
X187770580Y-128776000D01*
X187489420Y-129796000D02*
X187770580Y-129796000D01*
%TO.C,R18*%
X134072100Y-114025142D02*
X134072100Y-114499658D01*
X135117100Y-114025142D02*
X135117100Y-114499658D01*
%TO.C,R9*%
X189328300Y-106159542D02*
X189328300Y-106634058D01*
X190373300Y-106159542D02*
X190373300Y-106634058D01*
%TO.C,R6*%
X120066158Y-121040500D02*
X119591642Y-121040500D01*
X120066158Y-122085500D02*
X119591642Y-122085500D01*
%TO.C,R10*%
X191563500Y-106159542D02*
X191563500Y-106634058D01*
X192608500Y-106159542D02*
X192608500Y-106634058D01*
%TO.C,J3*%
X130712400Y-124270000D02*
X130712400Y-132090000D01*
X130712400Y-125870000D02*
X131632400Y-125870000D01*
X130712400Y-132090000D02*
X136832400Y-132090000D01*
X131472400Y-128230000D02*
X131472400Y-129830000D01*
X131472400Y-129830000D02*
X132472400Y-129830000D01*
X131632400Y-124270000D02*
X130712400Y-124270000D01*
X131632400Y-125870000D02*
X131632400Y-124270000D01*
X131912400Y-125870000D02*
X131632400Y-125870000D01*
X131912400Y-125870000D02*
X131912400Y-124655000D01*
X131972400Y-129830000D02*
X131972400Y-132090000D01*
X132472400Y-128230000D02*
X131472400Y-128230000D01*
X132472400Y-129830000D02*
X132472400Y-128230000D01*
X132472400Y-129830000D02*
X132472400Y-132090000D01*
X133272400Y-127730000D02*
X134272400Y-127730000D01*
X133272400Y-132090000D02*
X133272400Y-127730000D01*
X134272400Y-127730000D02*
X134272400Y-132090000D01*
X135072400Y-128230000D02*
X136072400Y-128230000D01*
X135072400Y-129830000D02*
X135072400Y-128230000D01*
X135912400Y-124270000D02*
X135912400Y-125870000D01*
X135912400Y-125870000D02*
X135632400Y-125870000D01*
X136072400Y-128230000D02*
X136072400Y-129830000D01*
X136072400Y-129830000D02*
X135072400Y-129830000D01*
X136832400Y-124270000D02*
X135912400Y-124270000D01*
X136832400Y-125870000D02*
X135912400Y-125870000D01*
X136832400Y-132090000D02*
X136832400Y-124270000D01*
%TO.C,U2*%
X155489200Y-110889200D02*
X155489200Y-120809200D01*
X155639200Y-110889200D02*
X155489200Y-110889200D01*
X155639200Y-120809200D02*
X155489200Y-120809200D01*
X165809200Y-110889200D02*
X165659200Y-110889200D01*
X165809200Y-110889200D02*
X165809200Y-120809200D01*
X165809200Y-120809200D02*
X165659200Y-120809200D01*
X165989200Y-110659200D02*
X165659200Y-110419200D01*
X165989200Y-110179200D01*
X165989200Y-110659200D01*
G36*
X165989200Y-110659200D02*
G01*
X165659200Y-110419200D01*
X165989200Y-110179200D01*
X165989200Y-110659200D01*
G37*
D15*
%TO.C,J1*%
X184167600Y-109408200D02*
X197447600Y-109408200D01*
X184167600Y-114723200D02*
X184167600Y-109408200D01*
X184167600Y-123408200D02*
X184167600Y-122363200D01*
X196447600Y-123408200D02*
X184167600Y-123408200D01*
X199417600Y-110853200D02*
X199417600Y-123408200D01*
X199417600Y-123408200D02*
X198987600Y-123408200D01*
X199957600Y-114503200D02*
G75*
G02*
X199757600Y-114503200I-100000J0D01*
G01*
X199757600Y-114503200D02*
G75*
G02*
X199957600Y-114503200I100000J0D01*
G01*
D12*
%TO.C,U5*%
X117332000Y-96991200D02*
X115332000Y-96991200D01*
X117332000Y-99211200D02*
X115332000Y-99211200D01*
X117572000Y-99391200D02*
X117572000Y-99111200D01*
X117852000Y-99111200D01*
X117572000Y-99391200D01*
G36*
X117572000Y-99391200D02*
G01*
X117572000Y-99111200D01*
X117852000Y-99111200D01*
X117572000Y-99391200D01*
G37*
D13*
%TO.C,J2*%
X139901600Y-126531400D02*
X140311600Y-126531400D01*
X139901600Y-131531400D02*
X139901600Y-126531400D01*
X139901600Y-131531400D02*
X139901600Y-132206400D01*
X139901600Y-131531400D02*
X147321600Y-131531400D01*
X139901600Y-132231400D02*
X147321600Y-132231400D01*
X147321600Y-126531400D02*
X146911600Y-126531400D01*
X147321600Y-126531400D02*
X147321600Y-131531400D01*
X147321600Y-131531400D02*
X147321600Y-132206400D01*
D16*
X142331600Y-126206400D02*
G75*
G02*
X142091600Y-126206400I-120000J0D01*
G01*
X142091600Y-126206400D02*
G75*
G02*
X142331600Y-126206400I120000J0D01*
G01*
D12*
%TO.C,C8*%
X156756980Y-93737000D02*
X156475820Y-93737000D01*
X156756980Y-94757000D02*
X156475820Y-94757000D01*
%TO.C,R2*%
X124445500Y-126639858D02*
X124445500Y-126165342D01*
X125490500Y-126639858D02*
X125490500Y-126165342D01*
%TO.C,R5*%
X120066158Y-123550500D02*
X119591642Y-123550500D01*
X120066158Y-124595500D02*
X119591642Y-124595500D01*
%TO.C,R11*%
X189734700Y-126395258D02*
X189734700Y-125920742D01*
X190779700Y-126395258D02*
X190779700Y-125920742D01*
%TO.C,C4*%
X122833220Y-102766400D02*
X123114380Y-102766400D01*
X122833220Y-103786400D02*
X123114380Y-103786400D01*
%TO.C,C15*%
X156691420Y-108329000D02*
X156972580Y-108329000D01*
X156691420Y-109349000D02*
X156972580Y-109349000D01*
%TO.C,C3*%
X144676400Y-99352980D02*
X144676400Y-99071820D01*
X145696400Y-99352980D02*
X145696400Y-99071820D01*
D13*
%TO.C,BT1*%
X169787200Y-102713600D02*
X170487200Y-101743600D01*
X169787200Y-105228600D02*
X169787200Y-102713600D01*
X175367200Y-105228600D02*
X169787200Y-105228600D01*
X184187200Y-102713600D02*
X183487200Y-101743600D01*
X184187200Y-105228600D02*
X178607200Y-105228600D01*
X184187200Y-105228600D02*
X184187200Y-102713600D01*
X170487200Y-101743601D02*
G75*
G02*
X175367200Y-90723600I6503807J3710420D01*
G01*
X178607200Y-90723601D02*
G75*
G02*
X183487200Y-101743600I-1623808J-7309581D01*
G01*
D12*
%TO.C,R17*%
X132243300Y-114011942D02*
X132243300Y-114486458D01*
X133288300Y-114011942D02*
X133288300Y-114486458D01*
%TO.C,C2*%
X120575400Y-98391652D02*
X120575400Y-97869148D01*
X122045400Y-98391652D02*
X122045400Y-97869148D01*
%TO.C,C7*%
X196102580Y-107309200D02*
X195821420Y-107309200D01*
X196102580Y-108329200D02*
X195821420Y-108329200D01*
%TO.C,R16*%
X181860700Y-118097542D02*
X181860700Y-118572058D01*
X182905700Y-118097542D02*
X182905700Y-118572058D01*
%TO.C,R14*%
X180323258Y-130998700D02*
X179848742Y-130998700D01*
X180323258Y-132043700D02*
X179848742Y-132043700D01*
%TO.C,R12*%
X166320342Y-107097500D02*
X166794858Y-107097500D01*
X166320342Y-108142500D02*
X166794858Y-108142500D01*
%TO.C,U3*%
X142623200Y-124232900D02*
X142623200Y-125232900D01*
X145343200Y-124232900D02*
X145343200Y-125232900D01*
X142673200Y-125902900D02*
X142393200Y-125622900D01*
X142673200Y-125622900D01*
X142673200Y-125902900D01*
G36*
X142673200Y-125902900D02*
G01*
X142393200Y-125622900D01*
X142673200Y-125622900D01*
X142673200Y-125902900D01*
G37*
%TO.C,R13*%
X187354942Y-130846300D02*
X187829458Y-130846300D01*
X187354942Y-131891300D02*
X187829458Y-131891300D01*
%TO.C,R4*%
X121998800Y-117362858D02*
X121998800Y-116888342D01*
X123043800Y-117362858D02*
X123043800Y-116888342D01*
%TO.C,R3*%
X122362700Y-126639858D02*
X122362700Y-126165342D01*
X123407700Y-126639858D02*
X123407700Y-126165342D01*
D13*
%TO.C,U7*%
X156215200Y-90240800D02*
X156215200Y-89165800D01*
X156965200Y-90240800D02*
X156215200Y-90240800D01*
X162215200Y-88090800D02*
X157215200Y-88090800D01*
X162465200Y-90240800D02*
X163215200Y-90240800D01*
X163215200Y-90240800D02*
X163215200Y-89165800D01*
D15*
X162615200Y-90715800D02*
G75*
G02*
X162415200Y-90715800I-100000J0D01*
G01*
X162415200Y-90715800D02*
G75*
G02*
X162615200Y-90715800I100000J0D01*
G01*
D12*
%TO.C,R7*%
X187855100Y-126395258D02*
X187855100Y-125920742D01*
X188900100Y-126395258D02*
X188900100Y-125920742D01*
%TO.C,J4*%
X155826000Y-124675800D02*
X156466000Y-124675800D01*
X157986000Y-124675800D02*
X157986000Y-124045800D01*
X158576000Y-127395800D02*
X155876000Y-127395800D01*
X158626000Y-124675800D02*
X157986000Y-124675800D01*
%TO.C,C10*%
X158544800Y-92887220D02*
X158544800Y-93168380D01*
X159564800Y-92887220D02*
X159564800Y-93168380D01*
%TO.C,TH1*%
X123683500Y-116876742D02*
X123683500Y-117351258D01*
X124728500Y-116876742D02*
X124728500Y-117351258D01*
%TO.C,C9*%
X156781780Y-91451000D02*
X156500620Y-91451000D01*
X156781780Y-92471000D02*
X156500620Y-92471000D01*
%TO.C,C11*%
X129532748Y-120626200D02*
X130055252Y-120626200D01*
X129532748Y-122096200D02*
X130055252Y-122096200D01*
%TO.C,C13*%
X180162780Y-128826800D02*
X179881620Y-128826800D01*
X180162780Y-129846800D02*
X179881620Y-129846800D01*
%TO.C,R8*%
X187143900Y-106159542D02*
X187143900Y-106634058D01*
X188188900Y-106159542D02*
X188188900Y-106634058D01*
%TO.C,L1*%
X158176279Y-122132800D02*
X157850721Y-122132800D01*
X158176279Y-123152800D02*
X157850721Y-123152800D01*
%TO.C,C14*%
X156704420Y-105950000D02*
X156985580Y-105950000D01*
X156704420Y-106970000D02*
X156985580Y-106970000D01*
%TO.C,C6*%
X118108000Y-97689580D02*
X118108000Y-97408420D01*
X119128000Y-97689580D02*
X119128000Y-97408420D01*
D17*
%TO.C,SW3*%
X175990601Y-148531150D02*
G75*
G02*
X175228601Y-148531150I-381000J0D01*
G01*
X175228601Y-148531150D02*
G75*
G02*
X175990601Y-148531150I381000J0D01*
G01*
%TD*%
M02*
