%TF.GenerationSoftware,KiCad,Pcbnew,9.0.1*%
%TF.CreationDate,2026-07-16T16:02:54-04:00*%
%TF.ProjectId,Phantom,5068616e-746f-46d2-9e6b-696361645f70,rev?*%
%TF.SameCoordinates,Original*%
%TF.FileFunction,Copper,L2,Bot*%
%TF.FilePolarity,Positive*%
%FSLAX46Y46*%
G04 Gerber Fmt 4.6, Leading zero omitted, Abs format (unit mm)*
G04 Created by KiCad (PCBNEW 9.0.1) date 2026-07-16 16:02:54*
%MOMM*%
%LPD*%
G01*
G04 APERTURE LIST*
G04 Aperture macros list*
%AMRoundRect*
0 Rectangle with rounded corners*
0 $1 Rounding radius*
0 $2 $3 $4 $5 $6 $7 $8 $9 X,Y pos of 4 corners*
0 Add a 4 corners polygon primitive as box body*
4,1,4,$2,$3,$4,$5,$6,$7,$8,$9,$2,$3,0*
0 Add four circle primitives for the rounded corners*
1,1,$1+$1,$2,$3*
1,1,$1+$1,$4,$5*
1,1,$1+$1,$6,$7*
1,1,$1+$1,$8,$9*
0 Add four rect primitives between the rounded corners*
20,1,$1+$1,$2,$3,$4,$5,0*
20,1,$1+$1,$4,$5,$6,$7,0*
20,1,$1+$1,$6,$7,$8,$9,0*
20,1,$1+$1,$8,$9,$2,$3,0*%
G04 Aperture macros list end*
%TA.AperFunction,ComponentPad*%
%ADD10RoundRect,0.250000X-0.350000X-0.625000X0.350000X-0.625000X0.350000X0.625000X-0.350000X0.625000X0*%
%TD*%
%TA.AperFunction,ComponentPad*%
%ADD11O,1.200000X1.750000*%
%TD*%
%TA.AperFunction,HeatsinkPad*%
%ADD12C,0.600000*%
%TD*%
%TA.AperFunction,HeatsinkPad*%
%ADD13R,0.500000X1.600000*%
%TD*%
%TA.AperFunction,ComponentPad*%
%ADD14C,2.159000*%
%TD*%
%TA.AperFunction,ComponentPad*%
%ADD15C,1.498600*%
%TD*%
%TA.AperFunction,ComponentPad*%
%ADD16C,1.600200*%
%TD*%
%TA.AperFunction,ViaPad*%
%ADD17C,0.600000*%
%TD*%
%TA.AperFunction,Conductor*%
%ADD18C,0.304800*%
%TD*%
%TA.AperFunction,Conductor*%
%ADD19C,0.254000*%
%TD*%
%TA.AperFunction,Conductor*%
%ADD20C,0.381000*%
%TD*%
%TA.AperFunction,Conductor*%
%ADD21C,1.016000*%
%TD*%
G04 APERTURE END LIST*
D10*
%TO.P,J3,1,Pin_1*%
%TO.N,+BATT*%
X132772400Y-125730000D03*
D11*
%TO.P,J3,2,Pin_2*%
%TO.N,GND*%
X134772400Y-125730000D03*
%TD*%
D12*
%TO.P,U5,7,PAD*%
%TO.N,GND*%
X116332000Y-98651200D03*
D13*
X116332000Y-98101200D03*
D12*
X116332000Y-97551200D03*
%TD*%
D14*
%TO.P,SW4,1,A*%
%TO.N,/OUT*%
X118008400Y-114175601D03*
%TO.P,SW4,2,B*%
%TO.N,/LDOIN*%
X118008400Y-109575600D03*
%TD*%
D15*
%TO.P,SW3,2*%
%TO.N,N/C*%
X181712200Y-148531150D03*
%TO.P,SW3,4*%
X185712202Y-148531150D03*
%TO.P,SW3,5*%
X187712200Y-148531150D03*
D16*
%TO.P,SW3,A,A*%
%TO.N,/A*%
X181212201Y-134031151D03*
%TO.P,SW3,B,B*%
%TO.N,/B*%
X186212201Y-134031151D03*
%TO.P,SW3,C,C*%
%TO.N,GND*%
X183712201Y-134031151D03*
D15*
%TO.P,SW3,S1,S1*%
%TO.N,/S1*%
X179712201Y-148531150D03*
%TO.P,SW3,S2,S2*%
%TO.N,GND*%
X183712201Y-148531150D03*
%TD*%
D17*
%TO.N,/DAT2*%
X192074800Y-108661200D03*
X132154800Y-111861600D03*
%TO.N,/CMD*%
X130454801Y-111911999D03*
X136626600Y-113592821D03*
%TO.N,GND*%
X136525000Y-126365000D03*
X140970000Y-121920000D03*
X177800000Y-120650000D03*
X113665000Y-121285000D03*
X180975000Y-122555000D03*
X116332000Y-99872800D03*
X113665000Y-120015000D03*
X183515000Y-150495000D03*
X168910000Y-116840000D03*
X124333000Y-115062000D03*
X122555000Y-123825000D03*
X167005000Y-100330000D03*
X182880000Y-121285000D03*
X167005000Y-95250000D03*
X150495000Y-124460000D03*
X198755000Y-107315000D03*
X111760000Y-121285000D03*
X155829000Y-95758000D03*
X146685000Y-124460000D03*
X120650000Y-126365000D03*
X167005000Y-97790000D03*
X193675000Y-106680000D03*
X150495000Y-127000000D03*
X125730000Y-116332000D03*
X166370000Y-111125000D03*
X198755000Y-114300000D03*
X126365000Y-129540000D03*
X196215000Y-123825000D03*
X168275000Y-111125000D03*
X113665000Y-118745000D03*
X130175000Y-126365000D03*
X180975000Y-121285000D03*
X187325000Y-113665000D03*
X158369000Y-95758000D03*
X168275000Y-109855000D03*
X173990000Y-120650000D03*
X191770000Y-123825000D03*
X139065000Y-128270000D03*
X136525000Y-128270000D03*
X133985000Y-128270000D03*
X117297200Y-100736400D03*
X153670000Y-128905000D03*
X183515000Y-146685000D03*
X177800000Y-116840000D03*
X111760000Y-122555000D03*
X120650000Y-129540000D03*
X164465000Y-100330000D03*
X173990000Y-116840000D03*
X140970000Y-123825000D03*
X144145000Y-101600000D03*
X117246400Y-99872800D03*
X164465000Y-92710000D03*
X158750000Y-94996000D03*
X111760000Y-118745000D03*
X166370000Y-109855000D03*
X111760000Y-117475000D03*
X164465000Y-97790000D03*
X194310000Y-125095000D03*
X164465000Y-95250000D03*
X131927600Y-121615200D03*
X193675000Y-121920000D03*
X167005000Y-92710000D03*
X184150000Y-113665000D03*
X126365000Y-126365000D03*
X195580000Y-109220000D03*
X187325000Y-116840000D03*
X153670000Y-127000000D03*
X116332000Y-100736400D03*
X118160800Y-99822000D03*
X111760000Y-120015000D03*
X148590000Y-104775000D03*
X184785000Y-122555000D03*
X113665000Y-117475000D03*
X182880000Y-122555000D03*
X155829000Y-96647000D03*
X146685000Y-99060000D03*
X198755000Y-105410000D03*
X146050000Y-103505000D03*
X137160000Y-121920000D03*
X113665000Y-122555000D03*
X119024400Y-99771200D03*
X150495000Y-128905000D03*
X198755000Y-112395000D03*
%TO.N,+3.3V*%
X192405000Y-118110000D03*
X158496000Y-105410000D03*
X112877600Y-112522000D03*
X122377200Y-115163600D03*
X180975000Y-116205000D03*
X153111200Y-100787200D03*
X129590800Y-129997200D03*
X179705000Y-126365000D03*
X174142400Y-131673600D03*
%TO.N,/DAT1*%
X127904801Y-112055201D03*
X135587042Y-115933600D03*
%TO.N,/CD_PIN*%
X136575800Y-115192408D03*
X128778000Y-112064800D03*
%TO.N,/DAT3*%
X131304802Y-111899202D03*
X136412601Y-112796666D03*
%TO.N,/CLK*%
X129590800Y-112014000D03*
X136093200Y-114392614D03*
%TO.N,/DAT0*%
X136626600Y-116586000D03*
X127050800Y-112064800D03*
%TO.N,/GPSTX*%
X142748000Y-102362000D03*
X163931600Y-109524800D03*
%TO.N,/GPSRX*%
X142138400Y-103428800D03*
X162864800Y-109524800D03*
%TO.N,/VBUS*%
X128828800Y-120091200D03*
X133858000Y-121310400D03*
%TO.N,/B*%
X130672983Y-117383663D03*
%TO.N,/A*%
X131470400Y-118770400D03*
%TO.N,/S1*%
X130990398Y-118118000D03*
%TO.N,/OUT*%
X127050800Y-118973600D03*
%TD*%
D18*
%TO.N,/DAT2*%
X188735489Y-112000511D02*
X192074800Y-108661200D01*
X133797601Y-112369600D02*
X132662800Y-112369600D01*
X134254801Y-112000511D02*
X134254801Y-111912400D01*
X134254801Y-112000511D02*
X188735489Y-112000511D01*
X134254801Y-111912400D02*
X133797601Y-112369600D01*
X132662800Y-112369600D02*
X132154800Y-111861600D01*
%TO.N,/CMD*%
X136579870Y-113639551D02*
X134254801Y-113639551D01*
X134002444Y-113739214D02*
X133619692Y-114121966D01*
X133619692Y-114188160D02*
X133454851Y-114353000D01*
X136626600Y-113592821D02*
X136579870Y-113639551D01*
X133619692Y-114121966D02*
X133619692Y-114188160D01*
X134155138Y-113739214D02*
X134002444Y-113739214D01*
X133454851Y-114353000D02*
X132834552Y-114353000D01*
X132834552Y-114353000D02*
X130454801Y-111973249D01*
X134254801Y-113639551D02*
X134155138Y-113739214D01*
X130454801Y-111973249D02*
X130454801Y-111911999D01*
D19*
%TO.N,+3.3V*%
X119735600Y-112522000D02*
X112877600Y-112522000D01*
D20*
X182880000Y-118110000D02*
X192405000Y-118110000D01*
X129590800Y-129997200D02*
X172466000Y-129997200D01*
X180975000Y-116205000D02*
X182880000Y-118110000D01*
X179705000Y-117475000D02*
X180975000Y-116205000D01*
X179705000Y-126365000D02*
X179705000Y-117475000D01*
D19*
X122377200Y-115163600D02*
X119735600Y-112522000D01*
D18*
X157276800Y-105410000D02*
X153111200Y-101244400D01*
X158496000Y-105410000D02*
X157276800Y-105410000D01*
D20*
X172466000Y-129997200D02*
X174142400Y-131673600D01*
D18*
X153111200Y-101244400D02*
X153111200Y-100787200D01*
%TO.N,/DAT1*%
X127904801Y-112115649D02*
X127904801Y-112055201D01*
X134462261Y-116027200D02*
X131816352Y-116027200D01*
X135587042Y-115933600D02*
X134555861Y-115933600D01*
X131816352Y-116027200D02*
X127904801Y-112115649D01*
X134555861Y-115933600D02*
X134462261Y-116027200D01*
%TO.N,/CD_PIN*%
X136575800Y-115192408D02*
X134315625Y-115192408D01*
X134147813Y-115417600D02*
X132070352Y-115417600D01*
X134285213Y-115222820D02*
X134285213Y-115280200D01*
X134315625Y-115192408D02*
X134285213Y-115222820D01*
X132070352Y-115417600D02*
X128778000Y-112125248D01*
X134285213Y-115280200D02*
X134147813Y-115417600D01*
X128778000Y-112125248D02*
X128778000Y-112064800D01*
%TO.N,/DAT3*%
X133502400Y-113436400D02*
X132805552Y-113436400D01*
X136412601Y-112796666D02*
X134142134Y-112796666D01*
X134142134Y-112796666D02*
X133999379Y-112939421D01*
X131304802Y-111935650D02*
X131304802Y-111899202D01*
X133601401Y-113322173D02*
X133601401Y-113337399D01*
X133601401Y-113337399D02*
X133502400Y-113436400D01*
X133999379Y-112939421D02*
X133984153Y-112939421D01*
X132805552Y-113436400D02*
X131304802Y-111935650D01*
X133984153Y-112939421D02*
X133601401Y-113322173D01*
%TO.N,/CLK*%
X134269744Y-114539008D02*
X133984153Y-114539008D01*
X135950154Y-114535660D02*
X134273092Y-114535660D01*
X133664361Y-114858800D02*
X132435600Y-114858800D01*
X136093200Y-114392614D02*
X135950154Y-114535660D01*
X133984153Y-114539008D02*
X133664361Y-114858800D01*
X132435600Y-114858800D02*
X129590800Y-112014000D01*
X134273092Y-114535660D02*
X134269744Y-114539008D01*
%TO.N,/DAT0*%
X131511552Y-116586000D02*
X127050800Y-112125248D01*
X127050800Y-112125248D02*
X127050800Y-112064800D01*
X136626600Y-116586000D02*
X131511552Y-116586000D01*
%TO.N,/GPSTX*%
X148894800Y-108508800D02*
X162915600Y-108508800D01*
X142748000Y-102362000D02*
X148894800Y-108508800D01*
X162915600Y-108508800D02*
X163931600Y-109524800D01*
%TO.N,/GPSRX*%
X148234400Y-109524800D02*
X142138400Y-103428800D01*
X162864800Y-109524800D02*
X148234400Y-109524800D01*
D20*
%TO.N,/VBUS*%
X132638800Y-120091200D02*
X128828800Y-120091200D01*
X133858000Y-121310400D02*
X132638800Y-120091200D01*
D18*
%TO.N,/B*%
X167995600Y-117398800D02*
X182880000Y-132283200D01*
X183845200Y-132283200D02*
X185593151Y-134031151D01*
X182880000Y-132283200D02*
X183845200Y-132283200D01*
X185593151Y-134031151D02*
X186212201Y-134031151D01*
X130672983Y-117383663D02*
X130688120Y-117398800D01*
X130688120Y-117398800D02*
X167995600Y-117398800D01*
%TO.N,/A*%
X131521200Y-118821200D02*
X166002250Y-118821200D01*
X131470400Y-118770400D02*
X131521200Y-118821200D01*
X166002250Y-118821200D02*
X181212201Y-134031151D01*
%TO.N,/S1*%
X182365701Y-145877650D02*
X179712201Y-148531150D01*
X131033198Y-118160800D02*
X131155952Y-118160800D01*
X182365701Y-133553355D02*
X182365701Y-145877650D01*
X166929346Y-118117000D02*
X182365701Y-133553355D01*
X130990398Y-118118000D02*
X131033198Y-118160800D01*
X131199752Y-118117000D02*
X166929346Y-118117000D01*
X131155952Y-118160800D02*
X131199752Y-118117000D01*
D21*
%TO.N,/OUT*%
X122145999Y-118313200D02*
X118008400Y-114175601D01*
X127050800Y-118973600D02*
X126390400Y-118313200D01*
X126390400Y-118313200D02*
X122145999Y-118313200D01*
%TD*%
%TA.AperFunction,Conductor*%
%TO.N,GND*%
G36*
X199629339Y-87231385D02*
G01*
X199675094Y-87284189D01*
X199686300Y-87335700D01*
X199686300Y-153655216D01*
X199666615Y-153722255D01*
X199613811Y-153768010D01*
X199562299Y-153779216D01*
X172453699Y-153779102D01*
X172386660Y-153759417D01*
X172340905Y-153706613D01*
X172329700Y-153655102D01*
X172329700Y-150158311D01*
X194336300Y-150158311D01*
X194336300Y-150400888D01*
X194367961Y-150641385D01*
X194430747Y-150875704D01*
X194523573Y-151099805D01*
X194523576Y-151099812D01*
X194644864Y-151309889D01*
X194644866Y-151309892D01*
X194644867Y-151309893D01*
X194792533Y-151502336D01*
X194792539Y-151502343D01*
X194964056Y-151673860D01*
X194964062Y-151673865D01*
X195156511Y-151821536D01*
X195366588Y-151942824D01*
X195590700Y-152035654D01*
X195825011Y-152098438D01*
X196005386Y-152122184D01*
X196065511Y-152130100D01*
X196065512Y-152130100D01*
X196308089Y-152130100D01*
X196356188Y-152123767D01*
X196548589Y-152098438D01*
X196782900Y-152035654D01*
X197007012Y-151942824D01*
X197217089Y-151821536D01*
X197409538Y-151673865D01*
X197581065Y-151502338D01*
X197728736Y-151309889D01*
X197850024Y-151099812D01*
X197942854Y-150875700D01*
X198005638Y-150641389D01*
X198037300Y-150400888D01*
X198037300Y-150158312D01*
X198005638Y-149917811D01*
X197942854Y-149683500D01*
X197850024Y-149459388D01*
X197728736Y-149249311D01*
X197667818Y-149169921D01*
X197581066Y-149056863D01*
X197581060Y-149056856D01*
X197409543Y-148885339D01*
X197409536Y-148885333D01*
X197217093Y-148737667D01*
X197217092Y-148737666D01*
X197217089Y-148737664D01*
X197007012Y-148616376D01*
X197007005Y-148616373D01*
X196782904Y-148523547D01*
X196548585Y-148460761D01*
X196308089Y-148429100D01*
X196308088Y-148429100D01*
X196065512Y-148429100D01*
X196065511Y-148429100D01*
X195825014Y-148460761D01*
X195590695Y-148523547D01*
X195366594Y-148616373D01*
X195366585Y-148616377D01*
X195156506Y-148737667D01*
X194964063Y-148885333D01*
X194964056Y-148885339D01*
X194792539Y-149056856D01*
X194792533Y-149056863D01*
X194644867Y-149249306D01*
X194523577Y-149459385D01*
X194523573Y-149459394D01*
X194430747Y-149683495D01*
X194367961Y-149917814D01*
X194336300Y-150158311D01*
X172329700Y-150158311D01*
X172329700Y-141419838D01*
X176413902Y-141419838D01*
X176413902Y-141642463D01*
X176442959Y-141863180D01*
X176500580Y-142078223D01*
X176585770Y-142283893D01*
X176585775Y-142283902D01*
X176697087Y-142476700D01*
X176697090Y-142476705D01*
X176697092Y-142476707D01*
X176832611Y-142653319D01*
X176832617Y-142653326D01*
X176990026Y-142810735D01*
X176990032Y-142810740D01*
X177166653Y-142946266D01*
X177359451Y-143057578D01*
X177359454Y-143057579D01*
X177359459Y-143057582D01*
X177470418Y-143103542D01*
X177565130Y-143142773D01*
X177780169Y-143200393D01*
X177945709Y-143222186D01*
X178000889Y-143229451D01*
X178000890Y-143229451D01*
X178223515Y-143229451D01*
X178267658Y-143223639D01*
X178444235Y-143200393D01*
X178659274Y-143142773D01*
X178820954Y-143075802D01*
X178864944Y-143057582D01*
X178864945Y-143057580D01*
X178864953Y-143057578D01*
X179057751Y-142946266D01*
X179234372Y-142810740D01*
X179391791Y-142653321D01*
X179527317Y-142476700D01*
X179638629Y-142283902D01*
X179723824Y-142078223D01*
X179781444Y-141863184D01*
X179810502Y-141642463D01*
X179810502Y-141419839D01*
X179781444Y-141199118D01*
X179723824Y-140984079D01*
X179684593Y-140889367D01*
X179638633Y-140778408D01*
X179638628Y-140778399D01*
X179527317Y-140585602D01*
X179391791Y-140408981D01*
X179391786Y-140408975D01*
X179234377Y-140251566D01*
X179234370Y-140251560D01*
X179057758Y-140116041D01*
X179057756Y-140116039D01*
X179057751Y-140116036D01*
X178864953Y-140004724D01*
X178864944Y-140004719D01*
X178659274Y-139919529D01*
X178444231Y-139861908D01*
X178223515Y-139832851D01*
X178223514Y-139832851D01*
X178000890Y-139832851D01*
X178000889Y-139832851D01*
X177780172Y-139861908D01*
X177565129Y-139919529D01*
X177359459Y-140004719D01*
X177359450Y-140004724D01*
X177243320Y-140071772D01*
X177166653Y-140116036D01*
X177166650Y-140116037D01*
X177166645Y-140116041D01*
X176990033Y-140251560D01*
X176990026Y-140251566D01*
X176832617Y-140408975D01*
X176832611Y-140408982D01*
X176697092Y-140585594D01*
X176585775Y-140778399D01*
X176585770Y-140778408D01*
X176500580Y-140984078D01*
X176442959Y-141199121D01*
X176413902Y-141419838D01*
X172329700Y-141419838D01*
X172329700Y-131775577D01*
X172329716Y-131775518D01*
X172329700Y-131709626D01*
X172329700Y-131643858D01*
X172329700Y-131643857D01*
X172329684Y-131643741D01*
X172329684Y-131643734D01*
X172312460Y-131579518D01*
X172312460Y-131579517D01*
X172312452Y-131579486D01*
X172295593Y-131516567D01*
X172295546Y-131516453D01*
X172295544Y-131516450D01*
X172295544Y-131516448D01*
X172262470Y-131459195D01*
X172262469Y-131459193D01*
X172262474Y-131459189D01*
X172262454Y-131459168D01*
X172229696Y-131402429D01*
X172229625Y-131402337D01*
X172183025Y-131355760D01*
X172183019Y-131355755D01*
X172136514Y-131309250D01*
X172136463Y-131309220D01*
X172136423Y-131309180D01*
X172136418Y-131309176D01*
X172128990Y-131304890D01*
X172079539Y-131276355D01*
X172022386Y-131243358D01*
X172022384Y-131243357D01*
X172022380Y-131243355D01*
X172022276Y-131243312D01*
X172022271Y-131243310D01*
X172022270Y-131243310D01*
X171959191Y-131226425D01*
X171895092Y-131209250D01*
X171895091Y-131209250D01*
X171895084Y-131209248D01*
X171894975Y-131209234D01*
X171894968Y-131209234D01*
X171830476Y-131209250D01*
X171755763Y-131209250D01*
X171755475Y-131209267D01*
X110431331Y-131224482D01*
X110364286Y-131204814D01*
X110318518Y-131152021D01*
X110307300Y-131100482D01*
X110307300Y-129918143D01*
X128990300Y-129918143D01*
X128990300Y-130076256D01*
X129031223Y-130228983D01*
X129031226Y-130228990D01*
X129110275Y-130365909D01*
X129110279Y-130365914D01*
X129110280Y-130365916D01*
X129222084Y-130477720D01*
X129222086Y-130477721D01*
X129222090Y-130477724D01*
X129303143Y-130524519D01*
X129359016Y-130556777D01*
X129511743Y-130597700D01*
X129511745Y-130597700D01*
X129669855Y-130597700D01*
X129669857Y-130597700D01*
X129822584Y-130556777D01*
X129912589Y-130504812D01*
X129974589Y-130488200D01*
X172211259Y-130488200D01*
X172278298Y-130507885D01*
X172298940Y-130524519D01*
X173327631Y-131553210D01*
X173342701Y-131571478D01*
X173615353Y-131975082D01*
X173633315Y-132001670D01*
X173636583Y-132006411D01*
X173636587Y-132006415D01*
X173640469Y-132011018D01*
X173640024Y-132011392D01*
X173655589Y-132031422D01*
X173661875Y-132042309D01*
X173661879Y-132042314D01*
X173661880Y-132042316D01*
X173773684Y-132154120D01*
X173773686Y-132154121D01*
X173773690Y-132154124D01*
X173897558Y-132225638D01*
X173910616Y-132233177D01*
X174063343Y-132274100D01*
X174063345Y-132274100D01*
X174221455Y-132274100D01*
X174221457Y-132274100D01*
X174374184Y-132233177D01*
X174511116Y-132154120D01*
X174622920Y-132042316D01*
X174701977Y-131905384D01*
X174742900Y-131752657D01*
X174742900Y-131594543D01*
X174701977Y-131441816D01*
X174652290Y-131355755D01*
X174622924Y-131304890D01*
X174622918Y-131304882D01*
X174511117Y-131193081D01*
X174511112Y-131193077D01*
X174496694Y-131184753D01*
X174474901Y-131168143D01*
X174474900Y-131168146D01*
X174474836Y-131168093D01*
X174471584Y-131165615D01*
X174470469Y-131164514D01*
X174470464Y-131164510D01*
X174040277Y-130873900D01*
X174022009Y-130858830D01*
X172767482Y-129604303D01*
X172767477Y-129604299D01*
X172655521Y-129539662D01*
X172655520Y-129539661D01*
X172619606Y-129530038D01*
X172530642Y-129506200D01*
X172530641Y-129506200D01*
X172530639Y-129506200D01*
X129974589Y-129506200D01*
X129912589Y-129489587D01*
X129822586Y-129437624D01*
X129822585Y-129437623D01*
X129822584Y-129437623D01*
X129669857Y-129396700D01*
X129511743Y-129396700D01*
X129359016Y-129437623D01*
X129359009Y-129437626D01*
X129222090Y-129516675D01*
X129222082Y-129516681D01*
X129110281Y-129628482D01*
X129110275Y-129628490D01*
X129031226Y-129765409D01*
X129031223Y-129765416D01*
X128990300Y-129918143D01*
X110307300Y-129918143D01*
X110307300Y-127589911D01*
X111956300Y-127589911D01*
X111956300Y-127832488D01*
X111987961Y-128072985D01*
X112050747Y-128307304D01*
X112143573Y-128531405D01*
X112143576Y-128531412D01*
X112264864Y-128741489D01*
X112264866Y-128741492D01*
X112264867Y-128741493D01*
X112412533Y-128933936D01*
X112412539Y-128933943D01*
X112584056Y-129105460D01*
X112584062Y-129105465D01*
X112776511Y-129253136D01*
X112986588Y-129374424D01*
X113210700Y-129467254D01*
X113445011Y-129530038D01*
X113625386Y-129553784D01*
X113685511Y-129561700D01*
X113685512Y-129561700D01*
X113928089Y-129561700D01*
X113976188Y-129555367D01*
X114168589Y-129530038D01*
X114402900Y-129467254D01*
X114627012Y-129374424D01*
X114837089Y-129253136D01*
X115029538Y-129105465D01*
X115201065Y-128933938D01*
X115348736Y-128741489D01*
X115470024Y-128531412D01*
X115562854Y-128307300D01*
X115625638Y-128072989D01*
X115657300Y-127832488D01*
X115657300Y-127589912D01*
X115625638Y-127349411D01*
X115568401Y-127135800D01*
X156276000Y-127135800D01*
X158176000Y-127135800D01*
X158176000Y-125045800D01*
X156276000Y-125045800D01*
X156276000Y-127135800D01*
X115568401Y-127135800D01*
X115562854Y-127115100D01*
X115470024Y-126890988D01*
X115348736Y-126680911D01*
X115201065Y-126488462D01*
X115201060Y-126488456D01*
X115029543Y-126316939D01*
X115029536Y-126316933D01*
X114837093Y-126169267D01*
X114837092Y-126169266D01*
X114837089Y-126169264D01*
X114627012Y-126047976D01*
X114627005Y-126047973D01*
X114402904Y-125955147D01*
X114168585Y-125892361D01*
X113928089Y-125860700D01*
X113928088Y-125860700D01*
X113685512Y-125860700D01*
X113685511Y-125860700D01*
X113445014Y-125892361D01*
X113210695Y-125955147D01*
X112986594Y-126047973D01*
X112986585Y-126047977D01*
X112776506Y-126169267D01*
X112584063Y-126316933D01*
X112584056Y-126316939D01*
X112412539Y-126488456D01*
X112412533Y-126488463D01*
X112264867Y-126680906D01*
X112143577Y-126890985D01*
X112143573Y-126890994D01*
X112050747Y-127115095D01*
X111987961Y-127349414D01*
X111956300Y-127589911D01*
X110307300Y-127589911D01*
X110307300Y-125061898D01*
X131871900Y-125061898D01*
X131871900Y-126398102D01*
X131877418Y-126444055D01*
X131882522Y-126486561D01*
X131882522Y-126486563D01*
X131882523Y-126486564D01*
X131883272Y-126488463D01*
X131938039Y-126627343D01*
X132029477Y-126747922D01*
X132150056Y-126839360D01*
X132150057Y-126839360D01*
X132150058Y-126839361D01*
X132290836Y-126894877D01*
X132379298Y-126905500D01*
X132379303Y-126905500D01*
X133165497Y-126905500D01*
X133165502Y-126905500D01*
X133253964Y-126894877D01*
X133394742Y-126839361D01*
X133515322Y-126747922D01*
X133606761Y-126627342D01*
X133662277Y-126486564D01*
X133672900Y-126398102D01*
X133672900Y-125061898D01*
X133662277Y-124973436D01*
X133606761Y-124832658D01*
X133606760Y-124832657D01*
X133606760Y-124832656D01*
X133515322Y-124712077D01*
X133394743Y-124620639D01*
X133253961Y-124565122D01*
X133208326Y-124559642D01*
X133165502Y-124554500D01*
X132379298Y-124554500D01*
X132340253Y-124559188D01*
X132290838Y-124565122D01*
X132150056Y-124620639D01*
X132029477Y-124712077D01*
X131938039Y-124832656D01*
X131882522Y-124973438D01*
X131878226Y-125009221D01*
X131871900Y-125061898D01*
X110307300Y-125061898D01*
X110307300Y-112442943D01*
X112277100Y-112442943D01*
X112277100Y-112601057D01*
X112308331Y-112717611D01*
X112318023Y-112753783D01*
X112318026Y-112753790D01*
X112397075Y-112890709D01*
X112397079Y-112890714D01*
X112397080Y-112890716D01*
X112508884Y-113002520D01*
X112508886Y-113002521D01*
X112508890Y-113002524D01*
X112618198Y-113065632D01*
X112645816Y-113081577D01*
X112798543Y-113122500D01*
X112798545Y-113122500D01*
X112956655Y-113122500D01*
X112956657Y-113122500D01*
X113109384Y-113081577D01*
X113246316Y-113002520D01*
X113263017Y-112985819D01*
X113324340Y-112952334D01*
X113350698Y-112949500D01*
X116983524Y-112949500D01*
X117050563Y-112969185D01*
X117096318Y-113021989D01*
X117106262Y-113091147D01*
X117077237Y-113154703D01*
X117071205Y-113161181D01*
X116955797Y-113276588D01*
X116955797Y-113276589D01*
X116955795Y-113276591D01*
X116900962Y-113352061D01*
X116828118Y-113452322D01*
X116729505Y-113645862D01*
X116662379Y-113852453D01*
X116628400Y-114066987D01*
X116628400Y-114284214D01*
X116662379Y-114498748D01*
X116662380Y-114498752D01*
X116729504Y-114705337D01*
X116828118Y-114898879D01*
X116955795Y-115074611D01*
X117109390Y-115228206D01*
X117285122Y-115355883D01*
X117478664Y-115454497D01*
X117685249Y-115521621D01*
X117765702Y-115534363D01*
X117899787Y-115555601D01*
X117899792Y-115555601D01*
X118117007Y-115555601D01*
X118117008Y-115555601D01*
X118165103Y-115547983D01*
X118234395Y-115556937D01*
X118272182Y-115582775D01*
X121630606Y-118941200D01*
X121630610Y-118941203D01*
X121763024Y-119029680D01*
X121763037Y-119029687D01*
X121862615Y-119070933D01*
X121867072Y-119072779D01*
X121910168Y-119090630D01*
X121936084Y-119095784D01*
X122026763Y-119113822D01*
X122066367Y-119121701D01*
X122066369Y-119121701D01*
X122231743Y-119121701D01*
X122231763Y-119121700D01*
X126004146Y-119121700D01*
X126071185Y-119141385D01*
X126091827Y-119158019D01*
X126535407Y-119601600D01*
X126535411Y-119601603D01*
X126667825Y-119690080D01*
X126667838Y-119690087D01*
X126778185Y-119735793D01*
X126814970Y-119751030D01*
X126814972Y-119751030D01*
X126814977Y-119751032D01*
X126971165Y-119782099D01*
X126971169Y-119782100D01*
X126971170Y-119782100D01*
X127130431Y-119782100D01*
X127130432Y-119782099D01*
X127182497Y-119771743D01*
X127286623Y-119751032D01*
X127286626Y-119751030D01*
X127286631Y-119751030D01*
X127433769Y-119690084D01*
X127566189Y-119601603D01*
X127678803Y-119488989D01*
X127767284Y-119356569D01*
X127828230Y-119209431D01*
X127838457Y-119158019D01*
X127851861Y-119090630D01*
X127859300Y-119053230D01*
X127859300Y-118893970D01*
X127850446Y-118849456D01*
X127828232Y-118737777D01*
X127828229Y-118737768D01*
X127820509Y-118719131D01*
X127805448Y-118682768D01*
X127767287Y-118590638D01*
X127767280Y-118590625D01*
X127678803Y-118458211D01*
X127678800Y-118458207D01*
X126905792Y-117685199D01*
X126905788Y-117685196D01*
X126773371Y-117596717D01*
X126773368Y-117596716D01*
X126678810Y-117557549D01*
X126626231Y-117535770D01*
X126626223Y-117535768D01*
X126470034Y-117504700D01*
X126470030Y-117504700D01*
X122532253Y-117504700D01*
X122465214Y-117485015D01*
X122444572Y-117468381D01*
X119415574Y-114439383D01*
X119382089Y-114378060D01*
X119380782Y-114332303D01*
X119388400Y-114284209D01*
X119388400Y-114066993D01*
X119388400Y-114066987D01*
X119354420Y-113852453D01*
X119354420Y-113852450D01*
X119287296Y-113645865D01*
X119188682Y-113452323D01*
X119061005Y-113276591D01*
X118945595Y-113161181D01*
X118912110Y-113099858D01*
X118917094Y-113030166D01*
X118958966Y-112974233D01*
X119024430Y-112949816D01*
X119033276Y-112949500D01*
X119507162Y-112949500D01*
X119574201Y-112969185D01*
X119594843Y-112985819D01*
X121740381Y-115131357D01*
X121773866Y-115192680D01*
X121776700Y-115219038D01*
X121776700Y-115242657D01*
X121807039Y-115355882D01*
X121817623Y-115395383D01*
X121817626Y-115395390D01*
X121896675Y-115532309D01*
X121896679Y-115532314D01*
X121896680Y-115532316D01*
X122008484Y-115644120D01*
X122008486Y-115644121D01*
X122008490Y-115644124D01*
X122058381Y-115672928D01*
X122145416Y-115723177D01*
X122298143Y-115764100D01*
X122298145Y-115764100D01*
X122456255Y-115764100D01*
X122456257Y-115764100D01*
X122608984Y-115723177D01*
X122745916Y-115644120D01*
X122857720Y-115532316D01*
X122936777Y-115395384D01*
X122977700Y-115242657D01*
X122977700Y-115084543D01*
X122936777Y-114931816D01*
X122874356Y-114823698D01*
X122857724Y-114794890D01*
X122857718Y-114794882D01*
X122745917Y-114683081D01*
X122745909Y-114683075D01*
X122608990Y-114604026D01*
X122608986Y-114604024D01*
X122608984Y-114604023D01*
X122456257Y-114563100D01*
X122456256Y-114563100D01*
X122432638Y-114563100D01*
X122365599Y-114543415D01*
X122344957Y-114526781D01*
X119998093Y-112179917D01*
X119998091Y-112179915D01*
X119935636Y-112143856D01*
X119900610Y-112123633D01*
X119862554Y-112113436D01*
X119791881Y-112094500D01*
X119791880Y-112094500D01*
X113350698Y-112094500D01*
X113283659Y-112074815D01*
X113263017Y-112058181D01*
X113246317Y-112041481D01*
X113246309Y-112041475D01*
X113149777Y-111985743D01*
X126450300Y-111985743D01*
X126450300Y-112143857D01*
X126452826Y-112153282D01*
X126491223Y-112296583D01*
X126491226Y-112296590D01*
X126570275Y-112433509D01*
X126570279Y-112433514D01*
X126570280Y-112433516D01*
X126682084Y-112545320D01*
X126682086Y-112545321D01*
X126682090Y-112545324D01*
X126819009Y-112624373D01*
X126819016Y-112624377D01*
X126910433Y-112648872D01*
X126966020Y-112680965D01*
X130857854Y-116572799D01*
X130891339Y-116634122D01*
X130886355Y-116703814D01*
X130844483Y-116759747D01*
X130779019Y-116784164D01*
X130753992Y-116783420D01*
X130752040Y-116783163D01*
X130593926Y-116783163D01*
X130441199Y-116824086D01*
X130441192Y-116824089D01*
X130304273Y-116903138D01*
X130304265Y-116903144D01*
X130192464Y-117014945D01*
X130192458Y-117014953D01*
X130113409Y-117151872D01*
X130113406Y-117151879D01*
X130072483Y-117304606D01*
X130072483Y-117462720D01*
X130109084Y-117599315D01*
X130113406Y-117615446D01*
X130113409Y-117615453D01*
X130192458Y-117752372D01*
X130192462Y-117752377D01*
X130192463Y-117752379D01*
X130304267Y-117864183D01*
X130336579Y-117882838D01*
X130384792Y-117933401D01*
X130398017Y-118002008D01*
X130394355Y-118022306D01*
X130389898Y-118038943D01*
X130389898Y-118197057D01*
X130428678Y-118341784D01*
X130430821Y-118349783D01*
X130430824Y-118349790D01*
X130509873Y-118486709D01*
X130509877Y-118486714D01*
X130509878Y-118486716D01*
X130621682Y-118598520D01*
X130621684Y-118598521D01*
X130621688Y-118598524D01*
X130758611Y-118677576D01*
X130758613Y-118677576D01*
X130758614Y-118677577D01*
X130777991Y-118682769D01*
X130837651Y-118719131D01*
X130868182Y-118781977D01*
X130869900Y-118802544D01*
X130869900Y-118849457D01*
X130894483Y-118941200D01*
X130910823Y-119002183D01*
X130910826Y-119002190D01*
X130989875Y-119139109D01*
X130989879Y-119139114D01*
X130989880Y-119139116D01*
X131101684Y-119250920D01*
X131101686Y-119250921D01*
X131101690Y-119250924D01*
X131175929Y-119293785D01*
X131238616Y-119329977D01*
X131337324Y-119356425D01*
X131396984Y-119392790D01*
X131427513Y-119455637D01*
X131419218Y-119525012D01*
X131374733Y-119578890D01*
X131308181Y-119600165D01*
X131305230Y-119600200D01*
X129212589Y-119600200D01*
X129150589Y-119583587D01*
X129060586Y-119531624D01*
X129060585Y-119531623D01*
X129060584Y-119531623D01*
X128907857Y-119490700D01*
X128749743Y-119490700D01*
X128597016Y-119531623D01*
X128597009Y-119531626D01*
X128460090Y-119610675D01*
X128460082Y-119610681D01*
X128348281Y-119722482D01*
X128348275Y-119722490D01*
X128269226Y-119859409D01*
X128269223Y-119859416D01*
X128228300Y-120012143D01*
X128228300Y-120170256D01*
X128269223Y-120322983D01*
X128269226Y-120322990D01*
X128348275Y-120459909D01*
X128348279Y-120459914D01*
X128348280Y-120459916D01*
X128460084Y-120571720D01*
X128460086Y-120571721D01*
X128460090Y-120571724D01*
X128541143Y-120618519D01*
X128597016Y-120650777D01*
X128749743Y-120691700D01*
X128749745Y-120691700D01*
X128907855Y-120691700D01*
X128907857Y-120691700D01*
X129060584Y-120650777D01*
X129150589Y-120598812D01*
X129212589Y-120582200D01*
X132384059Y-120582200D01*
X132451098Y-120601885D01*
X132471740Y-120618519D01*
X133239429Y-121386208D01*
X133271522Y-121441794D01*
X133298421Y-121542179D01*
X133298426Y-121542190D01*
X133377475Y-121679109D01*
X133377479Y-121679114D01*
X133377480Y-121679116D01*
X133489284Y-121790920D01*
X133489286Y-121790921D01*
X133489290Y-121790924D01*
X133626209Y-121869973D01*
X133626216Y-121869977D01*
X133778943Y-121910900D01*
X133778945Y-121910900D01*
X133937055Y-121910900D01*
X133937057Y-121910900D01*
X134089784Y-121869977D01*
X134226716Y-121790920D01*
X134338520Y-121679116D01*
X134417577Y-121542184D01*
X134458500Y-121389457D01*
X134458500Y-121231343D01*
X134417577Y-121078616D01*
X134417573Y-121078609D01*
X134338524Y-120941690D01*
X134338518Y-120941682D01*
X134226717Y-120829881D01*
X134226709Y-120829875D01*
X134089790Y-120750826D01*
X134089786Y-120750824D01*
X134089784Y-120750823D01*
X134089782Y-120750822D01*
X134089779Y-120750821D01*
X133989394Y-120723922D01*
X133933808Y-120691829D01*
X132940282Y-119698303D01*
X132940277Y-119698299D01*
X132828321Y-119633662D01*
X132828320Y-119633661D01*
X132797099Y-119625295D01*
X132703442Y-119600200D01*
X132703441Y-119600200D01*
X132703439Y-119600200D01*
X131635570Y-119600200D01*
X131623892Y-119596770D01*
X131611774Y-119597895D01*
X131590992Y-119587110D01*
X131568531Y-119580515D01*
X131560562Y-119571319D01*
X131549758Y-119565712D01*
X131538104Y-119545401D01*
X131522776Y-119527711D01*
X131521044Y-119515666D01*
X131514987Y-119505109D01*
X131516164Y-119481726D01*
X131512832Y-119458553D01*
X131517888Y-119447481D01*
X131518500Y-119435327D01*
X131532130Y-119416294D01*
X131541857Y-119394997D01*
X131553102Y-119387012D01*
X131559182Y-119378523D01*
X131578938Y-119368666D01*
X131589795Y-119360958D01*
X131596498Y-119358295D01*
X131702184Y-119329977D01*
X131778023Y-119286191D01*
X131786416Y-119282858D01*
X131806436Y-119281001D01*
X131832191Y-119274100D01*
X165763291Y-119274100D01*
X165830330Y-119293785D01*
X165850972Y-119310419D01*
X180127955Y-133587402D01*
X180161440Y-133648725D01*
X180158205Y-133713401D01*
X180138702Y-133773425D01*
X180111601Y-133944532D01*
X180111601Y-134117769D01*
X180138702Y-134288876D01*
X180192233Y-134453632D01*
X180192234Y-134453635D01*
X180270884Y-134607991D01*
X180372711Y-134748144D01*
X180495208Y-134870641D01*
X180635361Y-134972468D01*
X180711067Y-135011042D01*
X180789716Y-135051117D01*
X180789719Y-135051118D01*
X180872097Y-135077883D01*
X180954477Y-135104650D01*
X181125582Y-135131751D01*
X181125583Y-135131751D01*
X181298819Y-135131751D01*
X181298820Y-135131751D01*
X181469925Y-135104650D01*
X181634685Y-135051117D01*
X181634685Y-135051116D01*
X181634690Y-135051115D01*
X181732505Y-135001275D01*
X181801175Y-134988378D01*
X181865915Y-135014654D01*
X181906173Y-135071760D01*
X181912801Y-135111759D01*
X181912801Y-145638690D01*
X181893116Y-145705729D01*
X181876482Y-145726371D01*
X180117617Y-147485235D01*
X180056294Y-147518720D01*
X180005746Y-147519172D01*
X179835128Y-147485235D01*
X179815597Y-147481350D01*
X179608805Y-147481350D01*
X179608800Y-147481350D01*
X179405992Y-147521691D01*
X179405984Y-147521693D01*
X179214936Y-147600827D01*
X179214927Y-147600832D01*
X179042992Y-147715716D01*
X179042988Y-147715719D01*
X178896770Y-147861937D01*
X178896767Y-147861941D01*
X178781883Y-148033876D01*
X178781878Y-148033885D01*
X178702744Y-148224933D01*
X178702742Y-148224941D01*
X178662401Y-148427749D01*
X178662401Y-148634550D01*
X178702742Y-148837358D01*
X178702744Y-148837366D01*
X178781878Y-149028414D01*
X178781883Y-149028423D01*
X178896767Y-149200358D01*
X178896770Y-149200362D01*
X179042988Y-149346580D01*
X179042992Y-149346583D01*
X179214927Y-149461467D01*
X179214933Y-149461470D01*
X179214934Y-149461471D01*
X179405985Y-149540607D01*
X179608800Y-149580949D01*
X179608804Y-149580950D01*
X179608805Y-149580950D01*
X179815598Y-149580950D01*
X179815599Y-149580949D01*
X180018417Y-149540607D01*
X180209468Y-149461471D01*
X180381410Y-149346583D01*
X180527634Y-149200359D01*
X180609098Y-149078440D01*
X180662710Y-149033634D01*
X180732035Y-149024927D01*
X180795062Y-149055081D01*
X180815302Y-149078439D01*
X180896766Y-149200358D01*
X180896769Y-149200362D01*
X181042987Y-149346580D01*
X181042991Y-149346583D01*
X181214926Y-149461467D01*
X181214932Y-149461470D01*
X181214933Y-149461471D01*
X181405984Y-149540607D01*
X181608799Y-149580949D01*
X181608803Y-149580950D01*
X181608804Y-149580950D01*
X181815597Y-149580950D01*
X181815598Y-149580949D01*
X182018416Y-149540607D01*
X182209467Y-149461471D01*
X182381409Y-149346583D01*
X182527633Y-149200359D01*
X182642521Y-149028417D01*
X182721657Y-148837366D01*
X182762000Y-148634546D01*
X182762000Y-148427754D01*
X182761999Y-148427749D01*
X184662402Y-148427749D01*
X184662402Y-148634550D01*
X184702743Y-148837358D01*
X184702745Y-148837366D01*
X184781879Y-149028414D01*
X184781884Y-149028423D01*
X184896768Y-149200358D01*
X184896771Y-149200362D01*
X185042989Y-149346580D01*
X185042993Y-149346583D01*
X185214928Y-149461467D01*
X185214934Y-149461470D01*
X185214935Y-149461471D01*
X185405986Y-149540607D01*
X185608801Y-149580949D01*
X185608805Y-149580950D01*
X185608806Y-149580950D01*
X185815599Y-149580950D01*
X185815600Y-149580949D01*
X186018418Y-149540607D01*
X186209469Y-149461471D01*
X186381411Y-149346583D01*
X186527635Y-149200359D01*
X186609099Y-149078440D01*
X186662711Y-149033635D01*
X186732036Y-149024928D01*
X186795063Y-149055082D01*
X186815303Y-149078440D01*
X186896766Y-149200358D01*
X186896769Y-149200362D01*
X187042987Y-149346580D01*
X187042991Y-149346583D01*
X187214926Y-149461467D01*
X187214932Y-149461470D01*
X187214933Y-149461471D01*
X187405984Y-149540607D01*
X187608799Y-149580949D01*
X187608803Y-149580950D01*
X187608804Y-149580950D01*
X187815597Y-149580950D01*
X187815598Y-149580949D01*
X188018416Y-149540607D01*
X188209467Y-149461471D01*
X188381409Y-149346583D01*
X188527633Y-149200359D01*
X188642521Y-149028417D01*
X188721657Y-148837366D01*
X188762000Y-148634546D01*
X188762000Y-148427754D01*
X188721657Y-148224934D01*
X188642521Y-148033883D01*
X188642520Y-148033882D01*
X188642517Y-148033876D01*
X188527633Y-147861941D01*
X188527630Y-147861937D01*
X188381412Y-147715719D01*
X188381408Y-147715716D01*
X188209473Y-147600832D01*
X188209464Y-147600827D01*
X188018416Y-147521693D01*
X188018408Y-147521691D01*
X187815600Y-147481350D01*
X187815596Y-147481350D01*
X187608804Y-147481350D01*
X187608799Y-147481350D01*
X187405991Y-147521691D01*
X187405983Y-147521693D01*
X187214935Y-147600827D01*
X187214926Y-147600832D01*
X187042991Y-147715716D01*
X187042987Y-147715719D01*
X186896769Y-147861937D01*
X186896766Y-147861941D01*
X186815303Y-147983859D01*
X186761691Y-148028664D01*
X186692366Y-148037371D01*
X186629338Y-148007216D01*
X186609099Y-147983859D01*
X186527635Y-147861941D01*
X186527632Y-147861937D01*
X186381414Y-147715719D01*
X186381410Y-147715716D01*
X186209475Y-147600832D01*
X186209466Y-147600827D01*
X186018418Y-147521693D01*
X186018410Y-147521691D01*
X185815602Y-147481350D01*
X185815598Y-147481350D01*
X185608806Y-147481350D01*
X185608801Y-147481350D01*
X185405993Y-147521691D01*
X185405985Y-147521693D01*
X185214937Y-147600827D01*
X185214928Y-147600832D01*
X185042993Y-147715716D01*
X185042989Y-147715719D01*
X184896771Y-147861937D01*
X184896768Y-147861941D01*
X184781884Y-148033876D01*
X184781879Y-148033885D01*
X184702745Y-148224933D01*
X184702743Y-148224941D01*
X184662402Y-148427749D01*
X182761999Y-148427749D01*
X182721657Y-148224934D01*
X182642521Y-148033883D01*
X182642520Y-148033882D01*
X182642517Y-148033876D01*
X182527633Y-147861941D01*
X182527630Y-147861937D01*
X182381412Y-147715719D01*
X182381408Y-147715716D01*
X182209473Y-147600832D01*
X182209464Y-147600827D01*
X182018416Y-147521693D01*
X182018408Y-147521691D01*
X181815600Y-147481350D01*
X181815596Y-147481350D01*
X181701859Y-147481350D01*
X181634820Y-147461665D01*
X181589065Y-147408861D01*
X181579121Y-147339703D01*
X181608146Y-147276147D01*
X181614178Y-147269669D01*
X182728111Y-146155737D01*
X182787737Y-146052463D01*
X182818601Y-145937275D01*
X182818601Y-145818024D01*
X182818601Y-141419838D01*
X187613900Y-141419838D01*
X187613900Y-141642463D01*
X187642957Y-141863180D01*
X187700578Y-142078223D01*
X187785768Y-142283893D01*
X187785773Y-142283902D01*
X187897085Y-142476700D01*
X187897088Y-142476705D01*
X187897090Y-142476707D01*
X188032609Y-142653319D01*
X188032615Y-142653326D01*
X188190024Y-142810735D01*
X188190030Y-142810740D01*
X188366651Y-142946266D01*
X188559449Y-143057578D01*
X188559452Y-143057579D01*
X188559457Y-143057582D01*
X188670416Y-143103542D01*
X188765128Y-143142773D01*
X188980167Y-143200393D01*
X189145707Y-143222186D01*
X189200887Y-143229451D01*
X189200888Y-143229451D01*
X189423513Y-143229451D01*
X189467656Y-143223639D01*
X189644233Y-143200393D01*
X189859272Y-143142773D01*
X190020952Y-143075802D01*
X190064942Y-143057582D01*
X190064943Y-143057580D01*
X190064951Y-143057578D01*
X190257749Y-142946266D01*
X190434370Y-142810740D01*
X190591789Y-142653321D01*
X190727315Y-142476700D01*
X190838627Y-142283902D01*
X190923822Y-142078223D01*
X190981442Y-141863184D01*
X191010500Y-141642463D01*
X191010500Y-141419839D01*
X190981442Y-141199118D01*
X190923822Y-140984079D01*
X190884591Y-140889367D01*
X190838631Y-140778408D01*
X190838626Y-140778399D01*
X190727315Y-140585602D01*
X190591789Y-140408981D01*
X190591784Y-140408975D01*
X190434375Y-140251566D01*
X190434368Y-140251560D01*
X190257756Y-140116041D01*
X190257754Y-140116039D01*
X190257749Y-140116036D01*
X190064951Y-140004724D01*
X190064942Y-140004719D01*
X189859272Y-139919529D01*
X189644229Y-139861908D01*
X189423513Y-139832851D01*
X189423512Y-139832851D01*
X189200888Y-139832851D01*
X189200887Y-139832851D01*
X188980170Y-139861908D01*
X188765127Y-139919529D01*
X188559457Y-140004719D01*
X188559448Y-140004724D01*
X188443318Y-140071772D01*
X188366651Y-140116036D01*
X188366648Y-140116037D01*
X188366643Y-140116041D01*
X188190031Y-140251560D01*
X188190024Y-140251566D01*
X188032615Y-140408975D01*
X188032609Y-140408982D01*
X187897090Y-140585594D01*
X187785773Y-140778399D01*
X187785768Y-140778408D01*
X187700578Y-140984078D01*
X187642957Y-141199121D01*
X187613900Y-141419838D01*
X182818601Y-141419838D01*
X182818601Y-133493730D01*
X182787737Y-133378542D01*
X182728111Y-133275268D01*
X182643788Y-133190945D01*
X167516224Y-118063381D01*
X167505611Y-118043944D01*
X167491111Y-118027211D01*
X167489194Y-118013879D01*
X167482739Y-118002058D01*
X167484318Y-117979971D01*
X167481167Y-117958053D01*
X167486762Y-117945801D01*
X167487723Y-117932366D01*
X167500993Y-117914639D01*
X167510192Y-117894497D01*
X167521523Y-117887214D01*
X167529595Y-117876433D01*
X167550340Y-117868695D01*
X167568970Y-117856723D01*
X167590888Y-117853571D01*
X167595059Y-117852016D01*
X167603905Y-117851700D01*
X167756641Y-117851700D01*
X167823680Y-117871385D01*
X167844321Y-117888018D01*
X182601912Y-132645610D01*
X182705187Y-132705236D01*
X182820374Y-132736100D01*
X182820375Y-132736100D01*
X183606241Y-132736100D01*
X183673280Y-132755785D01*
X183693922Y-132772419D01*
X185096722Y-134175219D01*
X185130207Y-134236542D01*
X185131514Y-134243499D01*
X185138702Y-134288879D01*
X185192233Y-134453632D01*
X185192234Y-134453635D01*
X185270884Y-134607991D01*
X185372711Y-134748144D01*
X185495208Y-134870641D01*
X185635361Y-134972468D01*
X185711067Y-135011042D01*
X185789716Y-135051117D01*
X185789719Y-135051118D01*
X185872097Y-135077883D01*
X185954477Y-135104650D01*
X186125582Y-135131751D01*
X186125583Y-135131751D01*
X186298819Y-135131751D01*
X186298820Y-135131751D01*
X186469925Y-135104650D01*
X186634685Y-135051117D01*
X186789041Y-134972468D01*
X186929194Y-134870641D01*
X187051691Y-134748144D01*
X187153518Y-134607991D01*
X187232167Y-134453635D01*
X187285700Y-134288875D01*
X187312801Y-134117770D01*
X187312801Y-133944532D01*
X187285700Y-133773427D01*
X187258933Y-133691047D01*
X187232168Y-133608669D01*
X187232167Y-133608666D01*
X187153517Y-133454310D01*
X187051691Y-133314158D01*
X186929194Y-133191661D01*
X186789041Y-133089834D01*
X186789039Y-133089833D01*
X186634685Y-133011184D01*
X186634682Y-133011183D01*
X186469926Y-132957652D01*
X186384372Y-132944101D01*
X186298820Y-132930551D01*
X186125582Y-132930551D01*
X186068547Y-132939584D01*
X185954475Y-132957652D01*
X185789719Y-133011183D01*
X185789716Y-133011184D01*
X185635361Y-133089833D01*
X185522359Y-133171934D01*
X185456552Y-133195413D01*
X185388498Y-133179587D01*
X185361793Y-133159296D01*
X184123289Y-131920792D01*
X184123287Y-131920790D01*
X184071650Y-131890977D01*
X184020014Y-131861164D01*
X183962419Y-131845732D01*
X183904825Y-131830300D01*
X183904824Y-131830300D01*
X183118960Y-131830300D01*
X183051921Y-131810615D01*
X183031279Y-131793981D01*
X177602795Y-126365497D01*
X177523241Y-126285943D01*
X179104500Y-126285943D01*
X179104500Y-126444057D01*
X179116399Y-126488462D01*
X179145423Y-126596783D01*
X179145426Y-126596790D01*
X179224475Y-126733709D01*
X179224479Y-126733714D01*
X179224480Y-126733716D01*
X179336284Y-126845520D01*
X179336286Y-126845521D01*
X179336290Y-126845524D01*
X179440173Y-126905500D01*
X179473216Y-126924577D01*
X179625943Y-126965500D01*
X179625945Y-126965500D01*
X179784055Y-126965500D01*
X179784057Y-126965500D01*
X179936784Y-126924577D01*
X180073716Y-126845520D01*
X180185520Y-126733716D01*
X180264577Y-126596784D01*
X180305500Y-126444057D01*
X180305500Y-126285943D01*
X180264577Y-126133216D01*
X180212612Y-126043209D01*
X180196000Y-125981210D01*
X180196000Y-117729739D01*
X180215685Y-117662700D01*
X180232315Y-117642062D01*
X180887318Y-116987058D01*
X180948641Y-116953574D01*
X181018333Y-116958558D01*
X181062680Y-116987059D01*
X182578519Y-118502898D01*
X182690481Y-118567539D01*
X182815359Y-118601000D01*
X182944642Y-118601000D01*
X192021211Y-118601000D01*
X192083210Y-118617612D01*
X192173216Y-118669577D01*
X192325943Y-118710500D01*
X192325945Y-118710500D01*
X192484055Y-118710500D01*
X192484057Y-118710500D01*
X192636784Y-118669577D01*
X192773716Y-118590520D01*
X192885520Y-118478716D01*
X192964577Y-118341784D01*
X193005500Y-118189057D01*
X193005500Y-118030943D01*
X192964577Y-117878216D01*
X192949268Y-117851700D01*
X192885524Y-117741290D01*
X192885518Y-117741282D01*
X192773717Y-117629481D01*
X192773709Y-117629475D01*
X192636790Y-117550426D01*
X192636786Y-117550424D01*
X192636784Y-117550423D01*
X192484057Y-117509500D01*
X192325943Y-117509500D01*
X192173216Y-117550423D01*
X192173213Y-117550424D01*
X192083211Y-117602387D01*
X192021211Y-117619000D01*
X183134741Y-117619000D01*
X183067702Y-117599315D01*
X183047060Y-117582681D01*
X181593568Y-116129189D01*
X181561475Y-116073602D01*
X181534577Y-115973216D01*
X181466062Y-115854543D01*
X181455524Y-115836290D01*
X181455518Y-115836282D01*
X181343717Y-115724481D01*
X181343709Y-115724475D01*
X181206790Y-115645426D01*
X181206786Y-115645424D01*
X181206784Y-115645423D01*
X181054057Y-115604500D01*
X180895943Y-115604500D01*
X180743216Y-115645423D01*
X180743209Y-115645426D01*
X180606290Y-115724475D01*
X180606282Y-115724481D01*
X180494481Y-115836282D01*
X180494475Y-115836290D01*
X180415426Y-115973209D01*
X180415420Y-115973222D01*
X180388522Y-116073604D01*
X180356429Y-116129190D01*
X179386078Y-117099542D01*
X179386077Y-117099542D01*
X179386078Y-117099543D01*
X179312099Y-117173522D01*
X179247462Y-117285478D01*
X179247462Y-117285479D01*
X179247461Y-117285481D01*
X179214000Y-117410359D01*
X179214000Y-117410361D01*
X179214000Y-125981210D01*
X179197388Y-126043209D01*
X179145423Y-126133215D01*
X179145423Y-126133216D01*
X179104500Y-126285943D01*
X177523241Y-126285943D01*
X168273689Y-117036392D01*
X168273687Y-117036390D01*
X168222050Y-117006577D01*
X168170414Y-116976764D01*
X168083865Y-116953574D01*
X168055225Y-116945900D01*
X168055224Y-116945900D01*
X137313448Y-116945900D01*
X137246409Y-116926215D01*
X137200654Y-116873411D01*
X137190710Y-116804253D01*
X137193670Y-116789816D01*
X137227100Y-116665057D01*
X137227100Y-116506943D01*
X137186177Y-116354216D01*
X137186173Y-116354209D01*
X137107124Y-116217290D01*
X137107118Y-116217282D01*
X136995317Y-116105481D01*
X136995309Y-116105475D01*
X136858390Y-116026426D01*
X136858386Y-116026424D01*
X136858384Y-116026423D01*
X136767878Y-116002172D01*
X136708219Y-115965808D01*
X136677690Y-115902961D01*
X136685985Y-115833586D01*
X136730470Y-115779708D01*
X136767876Y-115762624D01*
X136807584Y-115751985D01*
X136944516Y-115672928D01*
X137056320Y-115561124D01*
X137135377Y-115424192D01*
X137176300Y-115271465D01*
X137176300Y-115113351D01*
X137135377Y-114960624D01*
X137099729Y-114898879D01*
X137056324Y-114823698D01*
X137056318Y-114823690D01*
X136944517Y-114711889D01*
X136944509Y-114711883D01*
X136807590Y-114632834D01*
X136807586Y-114632832D01*
X136807585Y-114632831D01*
X136807584Y-114632831D01*
X136780810Y-114625657D01*
X136721152Y-114589292D01*
X136690624Y-114526445D01*
X136688920Y-114504118D01*
X136689139Y-114488690D01*
X136693700Y-114471671D01*
X136693700Y-114313557D01*
X136691737Y-114306231D01*
X136691963Y-114290376D01*
X136699725Y-114265265D01*
X136703775Y-114239295D01*
X136709881Y-114232414D01*
X136712599Y-114223623D01*
X136732707Y-114206694D01*
X136750153Y-114187037D01*
X136762377Y-114181715D01*
X136766049Y-114178625D01*
X136770927Y-114177994D01*
X136783851Y-114172368D01*
X136858384Y-114152398D01*
X136995316Y-114073341D01*
X137107120Y-113961537D01*
X137186177Y-113824605D01*
X137227100Y-113671878D01*
X137227100Y-113513764D01*
X137186177Y-113361037D01*
X137137423Y-113276591D01*
X137107124Y-113224111D01*
X137107118Y-113224103D01*
X137009970Y-113126955D01*
X136976485Y-113065632D01*
X136977875Y-113007185D01*
X137013101Y-112875723D01*
X137013101Y-112717609D01*
X136984134Y-112609502D01*
X136985797Y-112539655D01*
X137024959Y-112481792D01*
X137089188Y-112454288D01*
X137103909Y-112453411D01*
X188795112Y-112453411D01*
X188795114Y-112453411D01*
X188910302Y-112422547D01*
X189013576Y-112362921D01*
X192079113Y-109297383D01*
X192140434Y-109263900D01*
X192150615Y-109262126D01*
X192153850Y-109261700D01*
X192153857Y-109261700D01*
X192306584Y-109220777D01*
X192443516Y-109141720D01*
X192555320Y-109029916D01*
X192634377Y-108892984D01*
X192675300Y-108740257D01*
X192675300Y-108582143D01*
X192634377Y-108429416D01*
X192557757Y-108296705D01*
X192555324Y-108292490D01*
X192555318Y-108292482D01*
X192443517Y-108180681D01*
X192443509Y-108180675D01*
X192306590Y-108101626D01*
X192306586Y-108101624D01*
X192306584Y-108101623D01*
X192153857Y-108060700D01*
X191995743Y-108060700D01*
X191843016Y-108101623D01*
X191843009Y-108101626D01*
X191706090Y-108180675D01*
X191706082Y-108180681D01*
X191594281Y-108292482D01*
X191594275Y-108292490D01*
X191515226Y-108429409D01*
X191515223Y-108429416D01*
X191474300Y-108582142D01*
X191473872Y-108585397D01*
X191472747Y-108587938D01*
X191472197Y-108589993D01*
X191471876Y-108589907D01*
X191445603Y-108649292D01*
X191438614Y-108656888D01*
X188584211Y-111511292D01*
X188522888Y-111544777D01*
X188496530Y-111547611D01*
X134561994Y-111547611D01*
X134499994Y-111530998D01*
X134455352Y-111505224D01*
X134429615Y-111490364D01*
X134372020Y-111474932D01*
X134314426Y-111459500D01*
X134195176Y-111459500D01*
X134081485Y-111489963D01*
X134080998Y-111490093D01*
X134079986Y-111490364D01*
X133976716Y-111549987D01*
X133976710Y-111549992D01*
X133646323Y-111880381D01*
X133585000Y-111913866D01*
X133558642Y-111916700D01*
X132901760Y-111916700D01*
X132872319Y-111908055D01*
X132842333Y-111901532D01*
X132837317Y-111897777D01*
X132834721Y-111897015D01*
X132814079Y-111880381D01*
X132790985Y-111857287D01*
X132757500Y-111795964D01*
X132755726Y-111785786D01*
X132755300Y-111782554D01*
X132755300Y-111782543D01*
X132714377Y-111629816D01*
X132684078Y-111577336D01*
X132635324Y-111492890D01*
X132635318Y-111492882D01*
X132523517Y-111381081D01*
X132523509Y-111381075D01*
X132386590Y-111302026D01*
X132386586Y-111302024D01*
X132386584Y-111302023D01*
X132233857Y-111261100D01*
X132075743Y-111261100D01*
X131923016Y-111302023D01*
X131923009Y-111302026D01*
X131786090Y-111381075D01*
X131779639Y-111386026D01*
X131778319Y-111384306D01*
X131726983Y-111412329D01*
X131657292Y-111407335D01*
X131638643Y-111398547D01*
X131536586Y-111339625D01*
X131383859Y-111298702D01*
X131225745Y-111298702D01*
X131073018Y-111339625D01*
X131073017Y-111339625D01*
X130930717Y-111421781D01*
X130862817Y-111438252D01*
X130806718Y-111421780D01*
X130686587Y-111352423D01*
X130686586Y-111352422D01*
X130686585Y-111352422D01*
X130533858Y-111311499D01*
X130375744Y-111311499D01*
X130223017Y-111352422D01*
X130223010Y-111352425D01*
X130086091Y-111431474D01*
X130086083Y-111431480D01*
X130042370Y-111475193D01*
X129981047Y-111508677D01*
X129911355Y-111503692D01*
X129892691Y-111494899D01*
X129889197Y-111492882D01*
X129822584Y-111454423D01*
X129669857Y-111413500D01*
X129511743Y-111413500D01*
X129359016Y-111454423D01*
X129359009Y-111454426D01*
X129222087Y-111533477D01*
X129217676Y-111536862D01*
X129152506Y-111562055D01*
X129084061Y-111548016D01*
X129080191Y-111545872D01*
X129009786Y-111505224D01*
X129009785Y-111505223D01*
X129009784Y-111505223D01*
X128857057Y-111464300D01*
X128698943Y-111464300D01*
X128546216Y-111505223D01*
X128546215Y-111505223D01*
X128410700Y-111583462D01*
X128342800Y-111599934D01*
X128280726Y-111578449D01*
X128280556Y-111578744D01*
X128279026Y-111577861D01*
X128276773Y-111577081D01*
X128273557Y-111574703D01*
X128136591Y-111495627D01*
X128136587Y-111495625D01*
X128136585Y-111495624D01*
X127983858Y-111454701D01*
X127825744Y-111454701D01*
X127673017Y-111495624D01*
X127673016Y-111495624D01*
X127531486Y-111577336D01*
X127463586Y-111593808D01*
X127407487Y-111577335D01*
X127282586Y-111505224D01*
X127282585Y-111505223D01*
X127282584Y-111505223D01*
X127129857Y-111464300D01*
X126971743Y-111464300D01*
X126819016Y-111505223D01*
X126819009Y-111505226D01*
X126682090Y-111584275D01*
X126682082Y-111584281D01*
X126570281Y-111696082D01*
X126570275Y-111696090D01*
X126491226Y-111833009D01*
X126491223Y-111833016D01*
X126450300Y-111985743D01*
X113149777Y-111985743D01*
X113109390Y-111962426D01*
X113109386Y-111962424D01*
X113109384Y-111962423D01*
X112956657Y-111921500D01*
X112798543Y-111921500D01*
X112645816Y-111962423D01*
X112645809Y-111962426D01*
X112508890Y-112041475D01*
X112508882Y-112041481D01*
X112397081Y-112153282D01*
X112397075Y-112153290D01*
X112318026Y-112290209D01*
X112318023Y-112290216D01*
X112277100Y-112442943D01*
X110307300Y-112442943D01*
X110307300Y-109466986D01*
X116628400Y-109466986D01*
X116628400Y-109684213D01*
X116661551Y-109893517D01*
X116662380Y-109898751D01*
X116729504Y-110105336D01*
X116828118Y-110298878D01*
X116955795Y-110474610D01*
X117109390Y-110628205D01*
X117285122Y-110755882D01*
X117478664Y-110854496D01*
X117685249Y-110921620D01*
X117765702Y-110934362D01*
X117899787Y-110955600D01*
X117899792Y-110955600D01*
X118117013Y-110955600D01*
X118236198Y-110936722D01*
X118331551Y-110921620D01*
X118538136Y-110854496D01*
X118731678Y-110755882D01*
X118907410Y-110628205D01*
X119061005Y-110474610D01*
X119188682Y-110298878D01*
X119287296Y-110105336D01*
X119354420Y-109898751D01*
X119376937Y-109756583D01*
X119388400Y-109684213D01*
X119388400Y-109466986D01*
X119360844Y-109293009D01*
X119354420Y-109252449D01*
X119287296Y-109045864D01*
X119188682Y-108852322D01*
X119061005Y-108676590D01*
X118907410Y-108522995D01*
X118731678Y-108395318D01*
X118538136Y-108296704D01*
X118331551Y-108229580D01*
X118331549Y-108229579D01*
X118331547Y-108229579D01*
X118117013Y-108195600D01*
X118117008Y-108195600D01*
X117899792Y-108195600D01*
X117899787Y-108195600D01*
X117685252Y-108229579D01*
X117478661Y-108296705D01*
X117285121Y-108395318D01*
X117238190Y-108429416D01*
X117109390Y-108522995D01*
X117109388Y-108522997D01*
X117109387Y-108522997D01*
X116955797Y-108676587D01*
X116955797Y-108676588D01*
X116955795Y-108676590D01*
X116909540Y-108740255D01*
X116828118Y-108852321D01*
X116729505Y-109045861D01*
X116662379Y-109252452D01*
X116628400Y-109466986D01*
X110307300Y-109466986D01*
X110307300Y-103349743D01*
X141537900Y-103349743D01*
X141537900Y-103507856D01*
X141578823Y-103660583D01*
X141578826Y-103660590D01*
X141657875Y-103797509D01*
X141657879Y-103797514D01*
X141657880Y-103797516D01*
X141769684Y-103909320D01*
X141769686Y-103909321D01*
X141769690Y-103909324D01*
X141906609Y-103988373D01*
X141906616Y-103988377D01*
X142059343Y-104029300D01*
X142059355Y-104029300D01*
X142062586Y-104029726D01*
X142065124Y-104030848D01*
X142067193Y-104031403D01*
X142067106Y-104031725D01*
X142126484Y-104057989D01*
X142134088Y-104064985D01*
X147871990Y-109802887D01*
X147956313Y-109887210D01*
X148059587Y-109946836D01*
X148174775Y-109977700D01*
X162417997Y-109977700D01*
X162485036Y-109997385D01*
X162493487Y-110003327D01*
X162496089Y-110005324D01*
X162633009Y-110084373D01*
X162633016Y-110084377D01*
X162785743Y-110125300D01*
X162785745Y-110125300D01*
X162943855Y-110125300D01*
X162943857Y-110125300D01*
X163096584Y-110084377D01*
X163233516Y-110005320D01*
X163310519Y-109928317D01*
X163371842Y-109894832D01*
X163441534Y-109899816D01*
X163485881Y-109928317D01*
X163562884Y-110005320D01*
X163562886Y-110005321D01*
X163562890Y-110005324D01*
X163699809Y-110084373D01*
X163699816Y-110084377D01*
X163852543Y-110125300D01*
X163852545Y-110125300D01*
X164010655Y-110125300D01*
X164010657Y-110125300D01*
X164163384Y-110084377D01*
X164300316Y-110005320D01*
X164412120Y-109893516D01*
X164491177Y-109756584D01*
X164532100Y-109603857D01*
X164532100Y-109445743D01*
X164491177Y-109293016D01*
X164449468Y-109220773D01*
X164412124Y-109156090D01*
X164412118Y-109156082D01*
X164300317Y-109044281D01*
X164300309Y-109044275D01*
X164163390Y-108965226D01*
X164163386Y-108965224D01*
X164163384Y-108965223D01*
X164010657Y-108924300D01*
X164010656Y-108924300D01*
X164007404Y-108923872D01*
X164004863Y-108922747D01*
X164002807Y-108922197D01*
X164002892Y-108921876D01*
X163943508Y-108895604D01*
X163935911Y-108888614D01*
X163193689Y-108146392D01*
X163193687Y-108146390D01*
X163142050Y-108116577D01*
X163090414Y-108086764D01*
X163032819Y-108071332D01*
X162975225Y-108055900D01*
X162975224Y-108055900D01*
X149133759Y-108055900D01*
X149066720Y-108036215D01*
X149046078Y-108019581D01*
X143384185Y-102357688D01*
X143350700Y-102296365D01*
X143348926Y-102286186D01*
X143348500Y-102282955D01*
X143348500Y-102282943D01*
X143307577Y-102130216D01*
X143307573Y-102130209D01*
X143228524Y-101993290D01*
X143228518Y-101993282D01*
X143116717Y-101881481D01*
X143116709Y-101881475D01*
X142979790Y-101802426D01*
X142979786Y-101802424D01*
X142979784Y-101802423D01*
X142827057Y-101761500D01*
X142668943Y-101761500D01*
X142516216Y-101802423D01*
X142516209Y-101802426D01*
X142379290Y-101881475D01*
X142379282Y-101881481D01*
X142267481Y-101993282D01*
X142267475Y-101993290D01*
X142188426Y-102130209D01*
X142188423Y-102130216D01*
X142147500Y-102282943D01*
X142147500Y-102441057D01*
X142155297Y-102470153D01*
X142188423Y-102593783D01*
X142188423Y-102593784D01*
X142216434Y-102642301D01*
X142232905Y-102710201D01*
X142210053Y-102776228D01*
X142155131Y-102819418D01*
X142109046Y-102828300D01*
X142059343Y-102828300D01*
X141906616Y-102869223D01*
X141906609Y-102869226D01*
X141769690Y-102948275D01*
X141769682Y-102948281D01*
X141657881Y-103060082D01*
X141657875Y-103060090D01*
X141578826Y-103197009D01*
X141578823Y-103197016D01*
X141537900Y-103349743D01*
X110307300Y-103349743D01*
X110307300Y-100708143D01*
X152510700Y-100708143D01*
X152510700Y-100866256D01*
X152551623Y-101018983D01*
X152551626Y-101018990D01*
X152630675Y-101155910D01*
X152632673Y-101158513D01*
X152633675Y-101161106D01*
X152634743Y-101162955D01*
X152634454Y-101163121D01*
X152657870Y-101223682D01*
X152658300Y-101234003D01*
X152658300Y-101304024D01*
X152689164Y-101419214D01*
X152718233Y-101469561D01*
X152748790Y-101522487D01*
X156914390Y-105688087D01*
X156998713Y-105772410D01*
X157101987Y-105832036D01*
X157217175Y-105862900D01*
X158049197Y-105862900D01*
X158116236Y-105882585D01*
X158124687Y-105888527D01*
X158127289Y-105890524D01*
X158264209Y-105969573D01*
X158264216Y-105969577D01*
X158416943Y-106010500D01*
X158416945Y-106010500D01*
X158575055Y-106010500D01*
X158575057Y-106010500D01*
X158727784Y-105969577D01*
X158864716Y-105890520D01*
X158976520Y-105778716D01*
X159055577Y-105641784D01*
X159096500Y-105489057D01*
X159096500Y-105330943D01*
X159055577Y-105178216D01*
X159055573Y-105178209D01*
X158976524Y-105041290D01*
X158976518Y-105041282D01*
X158864717Y-104929481D01*
X158864709Y-104929475D01*
X158727790Y-104850426D01*
X158727786Y-104850424D01*
X158727784Y-104850423D01*
X158575057Y-104809500D01*
X158416943Y-104809500D01*
X158264216Y-104850423D01*
X158264209Y-104850426D01*
X158127289Y-104929475D01*
X158124687Y-104931473D01*
X158122093Y-104932475D01*
X158120245Y-104933543D01*
X158120078Y-104933254D01*
X158059518Y-104956670D01*
X158049197Y-104957100D01*
X157515759Y-104957100D01*
X157448720Y-104937415D01*
X157428078Y-104920781D01*
X154462201Y-101954904D01*
X176086700Y-101954904D01*
X176086700Y-102132295D01*
X176121303Y-102306258D01*
X176121306Y-102306267D01*
X176189183Y-102470140D01*
X176189190Y-102470153D01*
X176287735Y-102617634D01*
X176287738Y-102617638D01*
X176413161Y-102743061D01*
X176413165Y-102743064D01*
X176560646Y-102841609D01*
X176560659Y-102841616D01*
X176627310Y-102869223D01*
X176724534Y-102909494D01*
X176724536Y-102909494D01*
X176724541Y-102909496D01*
X176898504Y-102944099D01*
X176898507Y-102944100D01*
X176898509Y-102944100D01*
X177075893Y-102944100D01*
X177075894Y-102944099D01*
X177133882Y-102932564D01*
X177249858Y-102909496D01*
X177249861Y-102909494D01*
X177249866Y-102909494D01*
X177389735Y-102851558D01*
X177413740Y-102841616D01*
X177413740Y-102841615D01*
X177413747Y-102841613D01*
X177561235Y-102743064D01*
X177686664Y-102617635D01*
X177785213Y-102470147D01*
X177853094Y-102306266D01*
X177855064Y-102296365D01*
X177887699Y-102132295D01*
X177887700Y-102132293D01*
X177887700Y-101954906D01*
X177887699Y-101954904D01*
X177853096Y-101780941D01*
X177853093Y-101780932D01*
X177785216Y-101617059D01*
X177785209Y-101617046D01*
X177686664Y-101469565D01*
X177686661Y-101469561D01*
X177561238Y-101344138D01*
X177561234Y-101344135D01*
X177413753Y-101245590D01*
X177413740Y-101245583D01*
X177249867Y-101177706D01*
X177249858Y-101177703D01*
X177075894Y-101143100D01*
X177075891Y-101143100D01*
X176898509Y-101143100D01*
X176898506Y-101143100D01*
X176724541Y-101177703D01*
X176724532Y-101177706D01*
X176560659Y-101245583D01*
X176560646Y-101245590D01*
X176413165Y-101344135D01*
X176413161Y-101344138D01*
X176287738Y-101469561D01*
X176287735Y-101469565D01*
X176189190Y-101617046D01*
X176189183Y-101617059D01*
X176121306Y-101780932D01*
X176121303Y-101780941D01*
X176086700Y-101954904D01*
X154462201Y-101954904D01*
X153685167Y-101177870D01*
X153651682Y-101116547D01*
X153656666Y-101046855D01*
X153665455Y-101028201D01*
X153670777Y-101018984D01*
X153711700Y-100866257D01*
X153711700Y-100708143D01*
X153670777Y-100555416D01*
X153670773Y-100555409D01*
X153591724Y-100418490D01*
X153591718Y-100418482D01*
X153479917Y-100306681D01*
X153479909Y-100306675D01*
X153342990Y-100227626D01*
X153342986Y-100227624D01*
X153342984Y-100227623D01*
X153190257Y-100186700D01*
X153032143Y-100186700D01*
X152879416Y-100227623D01*
X152879409Y-100227626D01*
X152742490Y-100306675D01*
X152742482Y-100306681D01*
X152630681Y-100418482D01*
X152630675Y-100418490D01*
X152551626Y-100555409D01*
X152551623Y-100555416D01*
X152510700Y-100708143D01*
X110307300Y-100708143D01*
X110307300Y-94617520D01*
X176236699Y-94617520D01*
X176265540Y-94762507D01*
X176265543Y-94762517D01*
X176322112Y-94899088D01*
X176322119Y-94899101D01*
X176404248Y-95022015D01*
X176404251Y-95022019D01*
X176508780Y-95126548D01*
X176508784Y-95126551D01*
X176631698Y-95208680D01*
X176631711Y-95208687D01*
X176768282Y-95265256D01*
X176768287Y-95265258D01*
X176768291Y-95265258D01*
X176768292Y-95265259D01*
X176913279Y-95294100D01*
X176913282Y-95294100D01*
X177061120Y-95294100D01*
X177158662Y-95274696D01*
X177206113Y-95265258D01*
X177342695Y-95208684D01*
X177465616Y-95126551D01*
X177570151Y-95022016D01*
X177652284Y-94899095D01*
X177708858Y-94762513D01*
X177737700Y-94617518D01*
X177737700Y-94469682D01*
X177737700Y-94469679D01*
X177708859Y-94324692D01*
X177708858Y-94324691D01*
X177708858Y-94324687D01*
X177708856Y-94324682D01*
X177652287Y-94188111D01*
X177652280Y-94188098D01*
X177570151Y-94065184D01*
X177570148Y-94065180D01*
X177465619Y-93960651D01*
X177465615Y-93960648D01*
X177342701Y-93878519D01*
X177342688Y-93878512D01*
X177206117Y-93821943D01*
X177206107Y-93821940D01*
X177061120Y-93793100D01*
X177061118Y-93793100D01*
X176913282Y-93793100D01*
X176913280Y-93793100D01*
X176768292Y-93821940D01*
X176768282Y-93821943D01*
X176631711Y-93878512D01*
X176631698Y-93878519D01*
X176508784Y-93960648D01*
X176508780Y-93960651D01*
X176404251Y-94065180D01*
X176404248Y-94065184D01*
X176322119Y-94188098D01*
X176322112Y-94188111D01*
X176265543Y-94324682D01*
X176265540Y-94324692D01*
X176236700Y-94469679D01*
X176236700Y-94469682D01*
X176236700Y-94617518D01*
X176236700Y-94617520D01*
X176236699Y-94617520D01*
X110307300Y-94617520D01*
X110307300Y-90589911D01*
X111956300Y-90589911D01*
X111956300Y-90832488D01*
X111987961Y-91072985D01*
X112050747Y-91307304D01*
X112143573Y-91531405D01*
X112143576Y-91531412D01*
X112264864Y-91741489D01*
X112264866Y-91741492D01*
X112264867Y-91741493D01*
X112412533Y-91933936D01*
X112412539Y-91933943D01*
X112584056Y-92105460D01*
X112584062Y-92105465D01*
X112776511Y-92253136D01*
X112986588Y-92374424D01*
X113210700Y-92467254D01*
X113445011Y-92530038D01*
X113625386Y-92553784D01*
X113685511Y-92561700D01*
X113685512Y-92561700D01*
X113928089Y-92561700D01*
X113976188Y-92555367D01*
X114168589Y-92530038D01*
X114402900Y-92467254D01*
X114627012Y-92374424D01*
X114837089Y-92253136D01*
X115029538Y-92105465D01*
X115201065Y-91933938D01*
X115348736Y-91741489D01*
X115470024Y-91531412D01*
X115562854Y-91307300D01*
X115625638Y-91072989D01*
X115657300Y-90832488D01*
X115657300Y-90589912D01*
X115657300Y-90589911D01*
X194336300Y-90589911D01*
X194336300Y-90832488D01*
X194367961Y-91072985D01*
X194430747Y-91307304D01*
X194523573Y-91531405D01*
X194523576Y-91531412D01*
X194644864Y-91741489D01*
X194644866Y-91741492D01*
X194644867Y-91741493D01*
X194792533Y-91933936D01*
X194792539Y-91933943D01*
X194964056Y-92105460D01*
X194964062Y-92105465D01*
X195156511Y-92253136D01*
X195366588Y-92374424D01*
X195590700Y-92467254D01*
X195825011Y-92530038D01*
X196005386Y-92553784D01*
X196065511Y-92561700D01*
X196065512Y-92561700D01*
X196308089Y-92561700D01*
X196356188Y-92555367D01*
X196548589Y-92530038D01*
X196782900Y-92467254D01*
X197007012Y-92374424D01*
X197217089Y-92253136D01*
X197409538Y-92105465D01*
X197581065Y-91933938D01*
X197728736Y-91741489D01*
X197850024Y-91531412D01*
X197942854Y-91307300D01*
X198005638Y-91072989D01*
X198037300Y-90832488D01*
X198037300Y-90589912D01*
X198005638Y-90349411D01*
X197942854Y-90115100D01*
X197850024Y-89890988D01*
X197728736Y-89680911D01*
X197581065Y-89488462D01*
X197581060Y-89488456D01*
X197409543Y-89316939D01*
X197409536Y-89316933D01*
X197217093Y-89169267D01*
X197217092Y-89169266D01*
X197217089Y-89169264D01*
X197007012Y-89047976D01*
X197007005Y-89047973D01*
X196782904Y-88955147D01*
X196548585Y-88892361D01*
X196308089Y-88860700D01*
X196308088Y-88860700D01*
X196065512Y-88860700D01*
X196065511Y-88860700D01*
X195825014Y-88892361D01*
X195590695Y-88955147D01*
X195366594Y-89047973D01*
X195366585Y-89047977D01*
X195156506Y-89169267D01*
X194964063Y-89316933D01*
X194964056Y-89316939D01*
X194792539Y-89488456D01*
X194792533Y-89488463D01*
X194644867Y-89680906D01*
X194523577Y-89890985D01*
X194523573Y-89890994D01*
X194430747Y-90115095D01*
X194367961Y-90349414D01*
X194336300Y-90589911D01*
X115657300Y-90589911D01*
X115625638Y-90349411D01*
X115562854Y-90115100D01*
X115470024Y-89890988D01*
X115348736Y-89680911D01*
X115201065Y-89488462D01*
X115201060Y-89488456D01*
X115029543Y-89316939D01*
X115029536Y-89316933D01*
X114837093Y-89169267D01*
X114837092Y-89169266D01*
X114837089Y-89169264D01*
X114627012Y-89047976D01*
X114627005Y-89047973D01*
X114402904Y-88955147D01*
X114168585Y-88892361D01*
X113928089Y-88860700D01*
X113928088Y-88860700D01*
X113685512Y-88860700D01*
X113685511Y-88860700D01*
X113445014Y-88892361D01*
X113210695Y-88955147D01*
X112986594Y-89047973D01*
X112986585Y-89047977D01*
X112776506Y-89169267D01*
X112584063Y-89316933D01*
X112584056Y-89316939D01*
X112412539Y-89488456D01*
X112412533Y-89488463D01*
X112264867Y-89680906D01*
X112143577Y-89890985D01*
X112143573Y-89890994D01*
X112050747Y-90115095D01*
X111987961Y-90349414D01*
X111956300Y-90589911D01*
X110307300Y-90589911D01*
X110307300Y-87335700D01*
X110326985Y-87268661D01*
X110379789Y-87222906D01*
X110431300Y-87211700D01*
X199562300Y-87211700D01*
X199629339Y-87231385D01*
G37*
%TD.AperFunction*%
%TD*%
%TA.AperFunction,Conductor*%
%TO.N,+3.3V*%
G36*
X173864913Y-131124111D02*
G01*
X174299456Y-131417664D01*
X174304394Y-131425135D01*
X174302656Y-131433827D01*
X174144415Y-131672334D01*
X174141134Y-131675615D01*
X173902627Y-131833856D01*
X173893839Y-131835575D01*
X173886464Y-131830656D01*
X173733426Y-131604116D01*
X173592910Y-131396112D01*
X173591119Y-131387340D01*
X173594331Y-131381293D01*
X173850092Y-131125532D01*
X173858364Y-131122106D01*
X173864913Y-131124111D01*
G37*
%TD.AperFunction*%
%TD*%
M02*
