%TF.GenerationSoftware,KiCad,Pcbnew,9.0.1*%
%TF.CreationDate,2026-07-16T16:02:55-04:00*%
%TF.ProjectId,Phantom,5068616e-746f-46d2-9e6b-696361645f70,rev?*%
%TF.SameCoordinates,Original*%
%TF.FileFunction,Legend,Bot*%
%TF.FilePolarity,Positive*%
%FSLAX46Y46*%
G04 Gerber Fmt 4.6, Leading zero omitted, Abs format (unit mm)*
G04 Created by KiCad (PCBNEW 9.0.1) date 2026-07-16 16:02:55*
%MOMM*%
%LPD*%
G01*
G04 APERTURE LIST*
%ADD10C,0.150000*%
%ADD11C,0.152400*%
%ADD12C,0.508000*%
G04 APERTURE END LIST*
D10*
X128729199Y-114576733D02*
X128681579Y-114433876D01*
X128681579Y-114433876D02*
X128681579Y-114195781D01*
X128681579Y-114195781D02*
X128729199Y-114100543D01*
X128729199Y-114100543D02*
X128776818Y-114052924D01*
X128776818Y-114052924D02*
X128872056Y-114005305D01*
X128872056Y-114005305D02*
X128967294Y-114005305D01*
X128967294Y-114005305D02*
X129062532Y-114052924D01*
X129062532Y-114052924D02*
X129110151Y-114100543D01*
X129110151Y-114100543D02*
X129157770Y-114195781D01*
X129157770Y-114195781D02*
X129205389Y-114386257D01*
X129205389Y-114386257D02*
X129253008Y-114481495D01*
X129253008Y-114481495D02*
X129300627Y-114529114D01*
X129300627Y-114529114D02*
X129395865Y-114576733D01*
X129395865Y-114576733D02*
X129491103Y-114576733D01*
X129491103Y-114576733D02*
X129586341Y-114529114D01*
X129586341Y-114529114D02*
X129633960Y-114481495D01*
X129633960Y-114481495D02*
X129681579Y-114386257D01*
X129681579Y-114386257D02*
X129681579Y-114148162D01*
X129681579Y-114148162D02*
X129633960Y-114005305D01*
X129681579Y-113671971D02*
X128681579Y-113433876D01*
X128681579Y-113433876D02*
X129395865Y-113243400D01*
X129395865Y-113243400D02*
X128681579Y-113052924D01*
X128681579Y-113052924D02*
X129681579Y-112814829D01*
X129348246Y-112005305D02*
X128681579Y-112005305D01*
X129729199Y-112243400D02*
X129014913Y-112481495D01*
X129014913Y-112481495D02*
X129014913Y-111862448D01*
X116098400Y-109030419D02*
X116098400Y-109268514D01*
X116336495Y-109173276D02*
X116098400Y-109268514D01*
X116098400Y-109268514D02*
X115860305Y-109173276D01*
X116241257Y-109458990D02*
X116098400Y-109268514D01*
X116098400Y-109268514D02*
X115955543Y-109458990D01*
X116098400Y-109030419D02*
X116098400Y-109268514D01*
X116336495Y-109173276D02*
X116098400Y-109268514D01*
X116098400Y-109268514D02*
X115860305Y-109173276D01*
X116241257Y-109458990D02*
X116098400Y-109268514D01*
X116098400Y-109268514D02*
X115955543Y-109458990D01*
X182378868Y-148123950D02*
X182521725Y-148076330D01*
X182521725Y-148076330D02*
X182759820Y-148076330D01*
X182759820Y-148076330D02*
X182855058Y-148123950D01*
X182855058Y-148123950D02*
X182902677Y-148171569D01*
X182902677Y-148171569D02*
X182950296Y-148266807D01*
X182950296Y-148266807D02*
X182950296Y-148362045D01*
X182950296Y-148362045D02*
X182902677Y-148457283D01*
X182902677Y-148457283D02*
X182855058Y-148504902D01*
X182855058Y-148504902D02*
X182759820Y-148552521D01*
X182759820Y-148552521D02*
X182569344Y-148600140D01*
X182569344Y-148600140D02*
X182474106Y-148647759D01*
X182474106Y-148647759D02*
X182426487Y-148695378D01*
X182426487Y-148695378D02*
X182378868Y-148790616D01*
X182378868Y-148790616D02*
X182378868Y-148885854D01*
X182378868Y-148885854D02*
X182426487Y-148981092D01*
X182426487Y-148981092D02*
X182474106Y-149028711D01*
X182474106Y-149028711D02*
X182569344Y-149076330D01*
X182569344Y-149076330D02*
X182807439Y-149076330D01*
X182807439Y-149076330D02*
X182950296Y-149028711D01*
X183283630Y-149076330D02*
X183521725Y-148076330D01*
X183521725Y-148076330D02*
X183712201Y-148790616D01*
X183712201Y-148790616D02*
X183902677Y-148076330D01*
X183902677Y-148076330D02*
X184140773Y-149076330D01*
X184426487Y-149076330D02*
X185045534Y-149076330D01*
X185045534Y-149076330D02*
X184712201Y-148695378D01*
X184712201Y-148695378D02*
X184855058Y-148695378D01*
X184855058Y-148695378D02*
X184950296Y-148647759D01*
X184950296Y-148647759D02*
X184997915Y-148600140D01*
X184997915Y-148600140D02*
X185045534Y-148504902D01*
X185045534Y-148504902D02*
X185045534Y-148266807D01*
X185045534Y-148266807D02*
X184997915Y-148171569D01*
X184997915Y-148171569D02*
X184950296Y-148123950D01*
X184950296Y-148123950D02*
X184855058Y-148076330D01*
X184855058Y-148076330D02*
X184569344Y-148076330D01*
X184569344Y-148076330D02*
X184474106Y-148123950D01*
X184474106Y-148123950D02*
X184426487Y-148171569D01*
D11*
%TO.C,SW4*%
X115338901Y-104498201D02*
X126387901Y-104498201D01*
X115338901Y-123853001D02*
X115338901Y-104498201D01*
X126387901Y-104498201D02*
X126387901Y-123853001D01*
X126387901Y-123853001D02*
X115338901Y-123853001D01*
%TO.C,SW3*%
X177387601Y-134796151D02*
X180376676Y-134796151D01*
X177387601Y-139904721D02*
X177387601Y-134796151D01*
X177387601Y-148258150D02*
X177387601Y-143157582D01*
X178665166Y-148258150D02*
X177387601Y-148258150D01*
X182047725Y-134796151D02*
X182876676Y-134796151D01*
X184547725Y-134796151D02*
X185376676Y-134796151D01*
X187047725Y-134796151D02*
X190036801Y-134796151D01*
X190036801Y-134796151D02*
X190036801Y-139904721D01*
X190036801Y-143157582D02*
X190036801Y-148258150D01*
X190036801Y-148258150D02*
X188759235Y-148258150D01*
D12*
X175990601Y-148531150D02*
G75*
G02*
X175228601Y-148531150I-381000J0D01*
G01*
X175228601Y-148531150D02*
G75*
G02*
X175990601Y-148531150I381000J0D01*
G01*
%TD*%
M02*
