%TF.GenerationSoftware,KiCad,Pcbnew,9.0.1*%
%TF.CreationDate,2026-07-16T16:02:55-04:00*%
%TF.ProjectId,Phantom,5068616e-746f-46d2-9e6b-696361645f70,rev?*%
%TF.SameCoordinates,Original*%
%TF.FileFunction,Paste,Top*%
%TF.FilePolarity,Positive*%
%FSLAX46Y46*%
G04 Gerber Fmt 4.6, Leading zero omitted, Abs format (unit mm)*
G04 Created by KiCad (PCBNEW 9.0.1) date 2026-07-16 16:02:55*
%MOMM*%
%LPD*%
G01*
G04 APERTURE LIST*
G04 Aperture macros list*
%AMRoundRect*
0 Rectangle with rounded corners*
0 $1 Rounding radius*
0 $2 $3 $4 $5 $6 $7 $8 $9 X,Y pos of 4 corners*
0 Add a 4 corners polygon primitive as box body*
4,1,4,$2,$3,$4,$5,$6,$7,$8,$9,$2,$3,0*
0 Add four circle primitives for the rounded corners*
1,1,$1+$1,$2,$3*
1,1,$1+$1,$4,$5*
1,1,$1+$1,$6,$7*
1,1,$1+$1,$8,$9*
0 Add four rect primitives between the rounded corners*
20,1,$1+$1,$2,$3,$4,$5,0*
20,1,$1+$1,$4,$5,$6,$7,0*
20,1,$1+$1,$6,$7,$8,$9,0*
20,1,$1+$1,$8,$9,$2,$3,0*%
G04 Aperture macros list end*
%ADD10C,0.010000*%
%ADD11RoundRect,0.225000X0.250000X-0.225000X0.250000X0.225000X-0.250000X0.225000X-0.250000X-0.225000X0*%
%ADD12RoundRect,0.250000X-0.255000X0.255000X-0.255000X-0.255000X0.255000X-0.255000X0.255000X0.255000X0*%
%ADD13RoundRect,0.062500X-0.062500X0.350000X-0.062500X-0.350000X0.062500X-0.350000X0.062500X0.350000X0*%
%ADD14RoundRect,0.062500X-0.350000X0.062500X-0.350000X-0.062500X0.350000X-0.062500X0.350000X0.062500X0*%
%ADD15RoundRect,0.200000X-0.200000X-0.275000X0.200000X-0.275000X0.200000X0.275000X-0.200000X0.275000X0*%
%ADD16R,1.700000X0.800000*%
%ADD17R,1.100000X0.800000*%
%ADD18R,0.812800X0.406400*%
%ADD19R,1.193800X1.193800*%
%ADD20R,0.406400X0.812800*%
%ADD21R,0.812800X0.812800*%
%ADD22RoundRect,0.200000X-0.275000X0.200000X-0.275000X-0.200000X0.275000X-0.200000X0.275000X0.200000X0*%
%ADD23R,0.800000X1.700000*%
%ADD24R,0.800000X1.100000*%
%ADD25RoundRect,0.225000X-0.225000X-0.250000X0.225000X-0.250000X0.225000X0.250000X-0.225000X0.250000X0*%
%ADD26RoundRect,0.200000X0.200000X0.275000X-0.200000X0.275000X-0.200000X-0.275000X0.200000X-0.275000X0*%
%ADD27RoundRect,0.175000X-0.175000X0.725000X-0.175000X-0.725000X0.175000X-0.725000X0.175000X0.725000X0*%
%ADD28RoundRect,0.200000X-0.200000X0.700000X-0.200000X-0.700000X0.200000X-0.700000X0.200000X0.700000X0*%
%ADD29RoundRect,0.180000X-0.180000X0.730000X-0.180000X-0.730000X0.180000X-0.730000X0.180000X0.730000X0*%
%ADD30R,1.900000X1.400000*%
%ADD31R,1.400000X1.200000*%
%ADD32R,1.400000X1.300000*%
%ADD33R,1.500000X0.800000*%
%ADD34R,1.040000X1.000000*%
%ADD35RoundRect,0.172500X0.262500X0.172500X-0.262500X0.172500X-0.262500X-0.172500X0.262500X-0.172500X0*%
%ADD36RoundRect,0.093750X0.093750X0.106250X-0.093750X0.106250X-0.093750X-0.106250X0.093750X-0.106250X0*%
%ADD37R,0.400000X1.350000*%
%ADD38R,1.200000X1.300000*%
%ADD39R,2.150000X1.900000*%
%ADD40RoundRect,0.225000X0.225000X0.250000X-0.225000X0.250000X-0.225000X-0.250000X0.225000X-0.250000X0*%
%ADD41RoundRect,0.200000X0.275000X-0.200000X0.275000X0.200000X-0.275000X0.200000X-0.275000X-0.200000X0*%
%ADD42R,2.600000X3.540000*%
%ADD43R,2.600000X3.660000*%
%ADD44RoundRect,0.250000X0.475000X-0.250000X0.475000X0.250000X-0.475000X0.250000X-0.475000X-0.250000X0*%
%ADD45R,0.250000X0.625000*%
%ADD46R,0.450000X0.700000*%
%ADD47R,0.450000X0.575000*%
%ADD48R,0.550000X0.800000*%
%ADD49RoundRect,0.250000X-0.250000X0.275000X-0.250000X-0.275000X0.250000X-0.275000X0.250000X0.275000X0*%
%ADD50RoundRect,0.250000X-0.275000X0.850000X-0.275000X-0.850000X0.275000X-0.850000X0.275000X0.850000X0*%
%ADD51RoundRect,0.225000X-0.250000X0.225000X-0.250000X-0.225000X0.250000X-0.225000X0.250000X0.225000X0*%
%ADD52RoundRect,0.250000X-0.250000X-0.475000X0.250000X-0.475000X0.250000X0.475000X-0.250000X0.475000X0*%
%ADD53RoundRect,0.218750X0.218750X0.256250X-0.218750X0.256250X-0.218750X-0.256250X0.218750X-0.256250X0*%
G04 APERTURE END LIST*
D10*
%TO.C,U7*%
X157590200Y-90740800D02*
X157340200Y-90740800D01*
X157340200Y-90090800D01*
X157590200Y-90090800D01*
X157590200Y-90740800D01*
G36*
X157590200Y-90740800D02*
G01*
X157340200Y-90740800D01*
X157340200Y-90090800D01*
X157590200Y-90090800D01*
X157590200Y-90740800D01*
G37*
X158090200Y-90740800D02*
X157840200Y-90740800D01*
X157840200Y-90090800D01*
X158090200Y-90090800D01*
X158090200Y-90740800D01*
G36*
X158090200Y-90740800D02*
G01*
X157840200Y-90740800D01*
X157840200Y-90090800D01*
X158090200Y-90090800D01*
X158090200Y-90740800D01*
G37*
X158590200Y-90740800D02*
X158340200Y-90740800D01*
X158340200Y-90090800D01*
X158590200Y-90090800D01*
X158590200Y-90740800D01*
G36*
X158590200Y-90740800D02*
G01*
X158340200Y-90740800D01*
X158340200Y-90090800D01*
X158590200Y-90090800D01*
X158590200Y-90740800D01*
G37*
X159090200Y-90740800D02*
X158840200Y-90740800D01*
X158840200Y-90090800D01*
X159090200Y-90090800D01*
X159090200Y-90740800D01*
G36*
X159090200Y-90740800D02*
G01*
X158840200Y-90740800D01*
X158840200Y-90090800D01*
X159090200Y-90090800D01*
X159090200Y-90740800D01*
G37*
X159590200Y-90740800D02*
X159340200Y-90740800D01*
X159340200Y-90090800D01*
X159590200Y-90090800D01*
X159590200Y-90740800D01*
G36*
X159590200Y-90740800D02*
G01*
X159340200Y-90740800D01*
X159340200Y-90090800D01*
X159590200Y-90090800D01*
X159590200Y-90740800D01*
G37*
X160090200Y-90740800D02*
X159840200Y-90740800D01*
X159840200Y-90090800D01*
X160090200Y-90090800D01*
X160090200Y-90740800D01*
G36*
X160090200Y-90740800D02*
G01*
X159840200Y-90740800D01*
X159840200Y-90090800D01*
X160090200Y-90090800D01*
X160090200Y-90740800D01*
G37*
X160590200Y-90740800D02*
X160340200Y-90740800D01*
X160340200Y-90090800D01*
X160590200Y-90090800D01*
X160590200Y-90740800D01*
G36*
X160590200Y-90740800D02*
G01*
X160340200Y-90740800D01*
X160340200Y-90090800D01*
X160590200Y-90090800D01*
X160590200Y-90740800D01*
G37*
X161090200Y-90740800D02*
X160840200Y-90740800D01*
X160840200Y-90090800D01*
X161090200Y-90090800D01*
X161090200Y-90740800D01*
G36*
X161090200Y-90740800D02*
G01*
X160840200Y-90740800D01*
X160840200Y-90090800D01*
X161090200Y-90090800D01*
X161090200Y-90740800D01*
G37*
X161590200Y-90740800D02*
X161340200Y-90740800D01*
X161340200Y-90090800D01*
X161590200Y-90090800D01*
X161590200Y-90740800D01*
G36*
X161590200Y-90740800D02*
G01*
X161340200Y-90740800D01*
X161340200Y-90090800D01*
X161590200Y-90090800D01*
X161590200Y-90740800D01*
G37*
X162090200Y-90740800D02*
X161840200Y-90740800D01*
X161840200Y-90090800D01*
X162090200Y-90090800D01*
X162090200Y-90740800D01*
G36*
X162090200Y-90740800D02*
G01*
X161840200Y-90740800D01*
X161840200Y-90090800D01*
X162090200Y-90090800D01*
X162090200Y-90740800D01*
G37*
%TD*%
D11*
%TO.C,C1*%
X123850400Y-98819000D03*
X123850400Y-97269000D03*
%TD*%
D12*
%TO.C,U6*%
X125374400Y-121076400D03*
X124124400Y-121076400D03*
X125374400Y-122326400D03*
X124124400Y-122326400D03*
D13*
X125749400Y-119763900D03*
X125249400Y-119763900D03*
X124749400Y-119763900D03*
X124249400Y-119763900D03*
X123749400Y-119763900D03*
D14*
X122811900Y-120701400D03*
X122811900Y-121201400D03*
X122811900Y-121701400D03*
X122811900Y-122201400D03*
X122811900Y-122701400D03*
D13*
X123749400Y-123638900D03*
X124249400Y-123638900D03*
X124749400Y-123638900D03*
X125249400Y-123638900D03*
X125749400Y-123638900D03*
D14*
X126686900Y-122701400D03*
X126686900Y-122201400D03*
X126686900Y-121701400D03*
X126686900Y-121201400D03*
X126686900Y-120701400D03*
%TD*%
D11*
%TO.C,C5*%
X113995200Y-99835000D03*
X113995200Y-98285000D03*
%TD*%
D15*
%TO.C,R15*%
X179972200Y-152044400D03*
X181622200Y-152044400D03*
%TD*%
D16*
%TO.C,SW1*%
X149098000Y-99290400D03*
X149098000Y-102690400D03*
D17*
X150748000Y-100990400D03*
%TD*%
D18*
%TO.C,U1*%
X126004802Y-97502398D03*
D19*
X131354801Y-101802399D03*
X131354801Y-103452399D03*
X131354801Y-105102399D03*
X133004801Y-101802399D03*
X133004801Y-105102399D03*
X134654801Y-101802399D03*
X134654801Y-103452399D03*
X134654801Y-105102399D03*
D18*
X126004802Y-98352399D03*
X126004802Y-99202400D03*
X126004802Y-100052398D03*
X126004802Y-100902399D03*
X126004802Y-101752400D03*
X126004802Y-102602398D03*
X126004802Y-103452399D03*
X126004802Y-104302400D03*
X126004802Y-105152398D03*
X126004802Y-106002399D03*
X126004802Y-106852400D03*
X126004802Y-107702398D03*
X126004802Y-108552399D03*
X126004802Y-109402400D03*
D20*
X127054800Y-110452398D03*
X127904801Y-110452398D03*
X128754802Y-110452398D03*
X129604800Y-110452398D03*
X130454801Y-110452398D03*
X131304802Y-110452398D03*
X132154800Y-110452398D03*
X133004801Y-110452398D03*
X133854802Y-110452398D03*
X134704800Y-110452398D03*
X135554801Y-110452398D03*
X136404802Y-110452398D03*
X137254800Y-110452398D03*
X138104801Y-110452398D03*
X138954802Y-110452398D03*
D18*
X140004800Y-109402400D03*
X140004800Y-108552399D03*
X140004800Y-107702398D03*
X140004800Y-106852400D03*
X140004800Y-106002399D03*
X140004800Y-105152398D03*
X140004800Y-104302400D03*
X140004800Y-103452399D03*
X140004800Y-102602398D03*
X140004800Y-101752400D03*
X140004800Y-100902399D03*
X140004800Y-100052398D03*
X140004800Y-99202400D03*
X140004800Y-98352399D03*
X140004800Y-97502398D03*
D20*
X138954802Y-96452400D03*
X138104801Y-96452400D03*
X137254800Y-96452400D03*
X136404802Y-96452400D03*
X135554801Y-96452400D03*
X134704800Y-96452400D03*
X133854802Y-96452400D03*
X133004801Y-96452400D03*
X132154800Y-96452400D03*
X131304802Y-96452400D03*
X130454801Y-96452400D03*
X129604800Y-96452400D03*
X128754802Y-96452400D03*
X127904801Y-96452400D03*
X127054800Y-96452400D03*
D19*
X133004801Y-103452399D03*
D21*
X126004802Y-96452398D03*
X126004802Y-110452400D03*
X140004800Y-110452400D03*
X140004800Y-96452398D03*
%TD*%
D22*
%TO.C,R1*%
X143052800Y-98387400D03*
X143052800Y-100037400D03*
%TD*%
D23*
%TO.C,SW2*%
X117097600Y-102768400D03*
X120497600Y-102768400D03*
D24*
X118797600Y-101118400D03*
%TD*%
D25*
%TO.C,C12*%
X186855000Y-129286000D03*
X188405000Y-129286000D03*
%TD*%
D22*
%TO.C,R18*%
X134594600Y-113437400D03*
X134594600Y-115087400D03*
%TD*%
%TO.C,R9*%
X189850800Y-105571800D03*
X189850800Y-107221800D03*
%TD*%
D26*
%TO.C,R6*%
X120653900Y-121563000D03*
X119003900Y-121563000D03*
%TD*%
D22*
%TO.C,R10*%
X192086000Y-105571800D03*
X192086000Y-107221800D03*
%TD*%
D27*
%TO.C,U2*%
X165049200Y-111099200D03*
D28*
X163949200Y-111099200D03*
X162849200Y-111099200D03*
X161749200Y-111099200D03*
X160649200Y-111099200D03*
X159549200Y-111099200D03*
X158449200Y-111099200D03*
X157349200Y-111099200D03*
D27*
X156249200Y-111099200D03*
D29*
X156249200Y-120599200D03*
D28*
X157349200Y-120599200D03*
X158449200Y-120599200D03*
X159549200Y-120599200D03*
X160649200Y-120599200D03*
X161749200Y-120599200D03*
X162849200Y-120599200D03*
X163949200Y-120599200D03*
D27*
X165049200Y-120599200D03*
%TD*%
D30*
%TO.C,J1*%
X197717600Y-122983200D03*
X198717600Y-109833200D03*
D31*
X184567600Y-121443200D03*
D32*
X184567600Y-115693200D03*
D33*
X195427600Y-114503200D03*
X195027600Y-115603200D03*
X195427600Y-116703200D03*
X195627600Y-117803200D03*
X195427600Y-118903200D03*
X195627600Y-120003200D03*
X195427600Y-121103200D03*
X195427600Y-122203200D03*
D34*
X184197600Y-119993200D03*
%TD*%
D35*
%TO.C,U5*%
X116332000Y-98501200D03*
X116332000Y-97701200D03*
D36*
X117219500Y-98751200D03*
X117219500Y-98101200D03*
X117219500Y-97451200D03*
X115444500Y-97451200D03*
X115444500Y-98101200D03*
X115444500Y-98751200D03*
%TD*%
D37*
%TO.C,J2*%
X142311600Y-127406400D03*
X142961600Y-127406400D03*
X143611600Y-127406400D03*
X144261600Y-127406400D03*
X144911600Y-127406400D03*
D38*
X141111600Y-126981400D03*
X146111600Y-126981400D03*
D39*
X141436600Y-129981400D03*
X145786600Y-129981400D03*
%TD*%
D40*
%TO.C,C8*%
X157391400Y-94247000D03*
X155841400Y-94247000D03*
%TD*%
D41*
%TO.C,R2*%
X124968000Y-127227600D03*
X124968000Y-125577600D03*
%TD*%
D26*
%TO.C,R5*%
X120653900Y-124073000D03*
X119003900Y-124073000D03*
%TD*%
D41*
%TO.C,R11*%
X190257200Y-126983000D03*
X190257200Y-125333000D03*
%TD*%
D25*
%TO.C,C4*%
X122198800Y-103276400D03*
X123748800Y-103276400D03*
%TD*%
%TO.C,C15*%
X156057000Y-108839000D03*
X157607000Y-108839000D03*
%TD*%
D11*
%TO.C,C3*%
X145186400Y-99987400D03*
X145186400Y-98437400D03*
%TD*%
D42*
%TO.C,BT1*%
X176987200Y-106273600D03*
D43*
X176987200Y-90473600D03*
%TD*%
D22*
%TO.C,R17*%
X132765800Y-113424200D03*
X132765800Y-115074200D03*
%TD*%
D44*
%TO.C,C2*%
X121310400Y-99080400D03*
X121310400Y-97180400D03*
%TD*%
D40*
%TO.C,C7*%
X196737000Y-107819200D03*
X195187000Y-107819200D03*
%TD*%
D22*
%TO.C,R16*%
X182383200Y-117509800D03*
X182383200Y-119159800D03*
%TD*%
D26*
%TO.C,R14*%
X180911000Y-131521200D03*
X179261000Y-131521200D03*
%TD*%
D15*
%TO.C,R12*%
X165732600Y-107620000D03*
X167382600Y-107620000D03*
%TD*%
D45*
%TO.C,U3*%
X142983200Y-125120400D03*
X143483200Y-125120400D03*
D46*
X143983200Y-125082900D03*
D45*
X144483200Y-125120400D03*
X144983200Y-125120400D03*
X144983200Y-124345400D03*
X144483200Y-124345400D03*
D47*
X143983200Y-124320400D03*
D45*
X143483200Y-124345400D03*
X142983200Y-124345400D03*
%TD*%
D15*
%TO.C,R13*%
X186767200Y-131368800D03*
X188417200Y-131368800D03*
%TD*%
D41*
%TO.C,R4*%
X122521300Y-117950600D03*
X122521300Y-116300600D03*
%TD*%
%TO.C,R3*%
X122885200Y-127227600D03*
X122885200Y-125577600D03*
%TD*%
D48*
%TO.C,U7*%
X162890200Y-88340800D03*
X156540200Y-88340800D03*
%TD*%
D41*
%TO.C,R7*%
X188377600Y-126983000D03*
X188377600Y-125333000D03*
%TD*%
D49*
%TO.C,J4*%
X157226000Y-124510800D03*
D50*
X158701000Y-126035800D03*
X155751000Y-126035800D03*
%TD*%
D51*
%TO.C,C10*%
X159054800Y-92252800D03*
X159054800Y-93802800D03*
%TD*%
D22*
%TO.C,TH1*%
X124206000Y-116289000D03*
X124206000Y-117939000D03*
%TD*%
D40*
%TO.C,C9*%
X157416200Y-91961000D03*
X155866200Y-91961000D03*
%TD*%
D52*
%TO.C,C11*%
X128844000Y-121361200D03*
X130744000Y-121361200D03*
%TD*%
D40*
%TO.C,C13*%
X180797200Y-129336800D03*
X179247200Y-129336800D03*
%TD*%
D22*
%TO.C,R8*%
X187666400Y-105571800D03*
X187666400Y-107221800D03*
%TD*%
D53*
%TO.C,L1*%
X158801000Y-122642800D03*
X157226000Y-122642800D03*
%TD*%
D25*
%TO.C,C14*%
X156070000Y-106460000D03*
X157620000Y-106460000D03*
%TD*%
D11*
%TO.C,C6*%
X118618000Y-98324000D03*
X118618000Y-96774000D03*
%TD*%
M02*
